<mxfile host="app.diagrams.net" agent="Mozilla/5.0 (Windows NT 10.0; Win64; x64) AppleWebKit/537.36 (KHTML, like Gecko) Chrome/135.0.0.0 Safari/537.36" version="26.2.14">
  <diagram name="Page-1" id="UymRD6uqGmvyVsF59VTj">
    <mxGraphModel dx="1960" dy="1675" grid="1" gridSize="10" guides="1" tooltips="1" connect="1" arrows="1" fold="1" page="1" pageScale="1" pageWidth="850" pageHeight="1100" math="0" shadow="0">
      <root>
        <mxCell id="0" />
        <mxCell id="1" parent="0" />
        <mxCell id="Cv067esEAor_iLYO7rBp-243" value="CUSTOMERS" style="shape=table;startSize=25;container=1;collapsible=0;childLayout=tableLayout;fixedRows=1;rowLines=1;fontStyle=1;align=center;resizeLast=1;movable=1;resizable=1;rotatable=1;deletable=1;editable=1;locked=0;connectable=1;" parent="1" vertex="1">
          <mxGeometry x="470" y="-390" width="172" height="223" as="geometry" />
        </mxCell>
        <mxCell id="Cv067esEAor_iLYO7rBp-244" style="shape=tableRow;horizontal=0;startSize=0;swimlaneHead=0;swimlaneBody=0;fillColor=none;collapsible=0;dropTarget=0;points=[[0,0.5],[1,0.5]];portConstraint=eastwest;top=0;left=0;right=0;bottom=0;" parent="Cv067esEAor_iLYO7rBp-243" vertex="1">
          <mxGeometry y="25" width="172" height="22" as="geometry" />
        </mxCell>
        <mxCell id="Cv067esEAor_iLYO7rBp-245" value="ID" style="shape=partialRectangle;connectable=0;fillColor=none;top=0;left=0;bottom=0;right=0;align=left;spacingLeft=2;overflow=hidden;fontSize=11;" parent="Cv067esEAor_iLYO7rBp-244" vertex="1">
          <mxGeometry width="96" height="22" as="geometry">
            <mxRectangle width="96" height="22" as="alternateBounds" />
          </mxGeometry>
        </mxCell>
        <mxCell id="Cv067esEAor_iLYO7rBp-246" value="int" style="shape=partialRectangle;connectable=0;fillColor=none;top=0;left=0;bottom=0;right=0;align=left;spacingLeft=2;overflow=hidden;fontSize=11;" parent="Cv067esEAor_iLYO7rBp-244" vertex="1">
          <mxGeometry x="96" width="54" height="22" as="geometry">
            <mxRectangle width="54" height="22" as="alternateBounds" />
          </mxGeometry>
        </mxCell>
        <mxCell id="Cv067esEAor_iLYO7rBp-247" value="PK" style="shape=partialRectangle;connectable=0;fillColor=none;top=0;left=0;bottom=0;right=0;align=left;spacingLeft=2;overflow=hidden;fontSize=11;" parent="Cv067esEAor_iLYO7rBp-244" vertex="1">
          <mxGeometry x="150" width="22" height="22" as="geometry">
            <mxRectangle width="22" height="22" as="alternateBounds" />
          </mxGeometry>
        </mxCell>
        <mxCell id="Cv067esEAor_iLYO7rBp-248" style="shape=tableRow;horizontal=0;startSize=0;swimlaneHead=0;swimlaneBody=0;fillColor=none;collapsible=0;dropTarget=0;points=[[0,0.5],[1,0.5]];portConstraint=eastwest;top=0;left=0;right=0;bottom=0;" parent="Cv067esEAor_iLYO7rBp-243" vertex="1">
          <mxGeometry y="47" width="172" height="22" as="geometry" />
        </mxCell>
        <mxCell id="Cv067esEAor_iLYO7rBp-249" value="NAME" style="shape=partialRectangle;connectable=0;fillColor=none;top=0;left=0;bottom=0;right=0;align=left;spacingLeft=2;overflow=hidden;fontSize=11;" parent="Cv067esEAor_iLYO7rBp-248" vertex="1">
          <mxGeometry width="96" height="22" as="geometry">
            <mxRectangle width="96" height="22" as="alternateBounds" />
          </mxGeometry>
        </mxCell>
        <mxCell id="Cv067esEAor_iLYO7rBp-250" value="varchar" style="shape=partialRectangle;connectable=0;fillColor=none;top=0;left=0;bottom=0;right=0;align=left;spacingLeft=2;overflow=hidden;fontSize=11;" parent="Cv067esEAor_iLYO7rBp-248" vertex="1">
          <mxGeometry x="96" width="54" height="22" as="geometry">
            <mxRectangle width="54" height="22" as="alternateBounds" />
          </mxGeometry>
        </mxCell>
        <mxCell id="Cv067esEAor_iLYO7rBp-251" value="" style="shape=partialRectangle;connectable=0;fillColor=none;top=0;left=0;bottom=0;right=0;align=left;spacingLeft=2;overflow=hidden;fontSize=11;" parent="Cv067esEAor_iLYO7rBp-248" vertex="1">
          <mxGeometry x="150" width="22" height="22" as="geometry">
            <mxRectangle width="22" height="22" as="alternateBounds" />
          </mxGeometry>
        </mxCell>
        <mxCell id="Cv067esEAor_iLYO7rBp-252" style="shape=tableRow;horizontal=0;startSize=0;swimlaneHead=0;swimlaneBody=0;fillColor=none;collapsible=0;dropTarget=0;points=[[0,0.5],[1,0.5]];portConstraint=eastwest;top=0;left=0;right=0;bottom=0;" parent="Cv067esEAor_iLYO7rBp-243" vertex="1">
          <mxGeometry y="69" width="172" height="22" as="geometry" />
        </mxCell>
        <mxCell id="Cv067esEAor_iLYO7rBp-253" value="EMAIL" style="shape=partialRectangle;connectable=0;fillColor=none;top=0;left=0;bottom=0;right=0;align=left;spacingLeft=2;overflow=hidden;fontSize=11;" parent="Cv067esEAor_iLYO7rBp-252" vertex="1">
          <mxGeometry width="96" height="22" as="geometry">
            <mxRectangle width="96" height="22" as="alternateBounds" />
          </mxGeometry>
        </mxCell>
        <mxCell id="Cv067esEAor_iLYO7rBp-254" value="varchar" style="shape=partialRectangle;connectable=0;fillColor=none;top=0;left=0;bottom=0;right=0;align=left;spacingLeft=2;overflow=hidden;fontSize=11;" parent="Cv067esEAor_iLYO7rBp-252" vertex="1">
          <mxGeometry x="96" width="54" height="22" as="geometry">
            <mxRectangle width="54" height="22" as="alternateBounds" />
          </mxGeometry>
        </mxCell>
        <mxCell id="Cv067esEAor_iLYO7rBp-255" value="" style="shape=partialRectangle;connectable=0;fillColor=none;top=0;left=0;bottom=0;right=0;align=left;spacingLeft=2;overflow=hidden;fontSize=11;" parent="Cv067esEAor_iLYO7rBp-252" vertex="1">
          <mxGeometry x="150" width="22" height="22" as="geometry">
            <mxRectangle width="22" height="22" as="alternateBounds" />
          </mxGeometry>
        </mxCell>
        <mxCell id="Cv067esEAor_iLYO7rBp-256" style="shape=tableRow;horizontal=0;startSize=0;swimlaneHead=0;swimlaneBody=0;fillColor=none;collapsible=0;dropTarget=0;points=[[0,0.5],[1,0.5]];portConstraint=eastwest;top=0;left=0;right=0;bottom=0;" parent="Cv067esEAor_iLYO7rBp-243" vertex="1">
          <mxGeometry y="91" width="172" height="22" as="geometry" />
        </mxCell>
        <mxCell id="Cv067esEAor_iLYO7rBp-257" value="PHONE_NUM" style="shape=partialRectangle;connectable=0;fillColor=none;top=0;left=0;bottom=0;right=0;align=left;spacingLeft=2;overflow=hidden;fontSize=11;" parent="Cv067esEAor_iLYO7rBp-256" vertex="1">
          <mxGeometry width="96" height="22" as="geometry">
            <mxRectangle width="96" height="22" as="alternateBounds" />
          </mxGeometry>
        </mxCell>
        <mxCell id="Cv067esEAor_iLYO7rBp-258" value="varchar" style="shape=partialRectangle;connectable=0;fillColor=none;top=0;left=0;bottom=0;right=0;align=left;spacingLeft=2;overflow=hidden;fontSize=11;" parent="Cv067esEAor_iLYO7rBp-256" vertex="1">
          <mxGeometry x="96" width="54" height="22" as="geometry">
            <mxRectangle width="54" height="22" as="alternateBounds" />
          </mxGeometry>
        </mxCell>
        <mxCell id="Cv067esEAor_iLYO7rBp-259" value="" style="shape=partialRectangle;connectable=0;fillColor=none;top=0;left=0;bottom=0;right=0;align=left;spacingLeft=2;overflow=hidden;fontSize=11;" parent="Cv067esEAor_iLYO7rBp-256" vertex="1">
          <mxGeometry x="150" width="22" height="22" as="geometry">
            <mxRectangle width="22" height="22" as="alternateBounds" />
          </mxGeometry>
        </mxCell>
        <mxCell id="Cv067esEAor_iLYO7rBp-260" style="shape=tableRow;horizontal=0;startSize=0;swimlaneHead=0;swimlaneBody=0;fillColor=none;collapsible=0;dropTarget=0;points=[[0,0.5],[1,0.5]];portConstraint=eastwest;top=0;left=0;right=0;bottom=0;" parent="Cv067esEAor_iLYO7rBp-243" vertex="1">
          <mxGeometry y="113" width="172" height="22" as="geometry" />
        </mxCell>
        <mxCell id="Cv067esEAor_iLYO7rBp-261" value="PASSWORD" style="shape=partialRectangle;connectable=0;fillColor=none;top=0;left=0;bottom=0;right=0;align=left;spacingLeft=2;overflow=hidden;fontSize=11;" parent="Cv067esEAor_iLYO7rBp-260" vertex="1">
          <mxGeometry width="96" height="22" as="geometry">
            <mxRectangle width="96" height="22" as="alternateBounds" />
          </mxGeometry>
        </mxCell>
        <mxCell id="Cv067esEAor_iLYO7rBp-262" value="varchar" style="shape=partialRectangle;connectable=0;fillColor=none;top=0;left=0;bottom=0;right=0;align=left;spacingLeft=2;overflow=hidden;fontSize=11;" parent="Cv067esEAor_iLYO7rBp-260" vertex="1">
          <mxGeometry x="96" width="54" height="22" as="geometry">
            <mxRectangle width="54" height="22" as="alternateBounds" />
          </mxGeometry>
        </mxCell>
        <mxCell id="Cv067esEAor_iLYO7rBp-263" value="" style="shape=partialRectangle;connectable=0;fillColor=none;top=0;left=0;bottom=0;right=0;align=left;spacingLeft=2;overflow=hidden;fontSize=11;" parent="Cv067esEAor_iLYO7rBp-260" vertex="1">
          <mxGeometry x="150" width="22" height="22" as="geometry">
            <mxRectangle width="22" height="22" as="alternateBounds" />
          </mxGeometry>
        </mxCell>
        <mxCell id="Cv067esEAor_iLYO7rBp-264" style="shape=tableRow;horizontal=0;startSize=0;swimlaneHead=0;swimlaneBody=0;fillColor=none;collapsible=0;dropTarget=0;points=[[0,0.5],[1,0.5]];portConstraint=eastwest;top=0;left=0;right=0;bottom=0;" parent="Cv067esEAor_iLYO7rBp-243" vertex="1">
          <mxGeometry y="135" width="172" height="22" as="geometry" />
        </mxCell>
        <mxCell id="Cv067esEAor_iLYO7rBp-265" value="resetToken" style="shape=partialRectangle;connectable=0;fillColor=none;top=0;left=0;bottom=0;right=0;align=left;spacingLeft=2;overflow=hidden;fontSize=11;" parent="Cv067esEAor_iLYO7rBp-264" vertex="1">
          <mxGeometry width="96" height="22" as="geometry">
            <mxRectangle width="96" height="22" as="alternateBounds" />
          </mxGeometry>
        </mxCell>
        <mxCell id="Cv067esEAor_iLYO7rBp-266" value="varchar" style="shape=partialRectangle;connectable=0;fillColor=none;top=0;left=0;bottom=0;right=0;align=left;spacingLeft=2;overflow=hidden;fontSize=11;" parent="Cv067esEAor_iLYO7rBp-264" vertex="1">
          <mxGeometry x="96" width="54" height="22" as="geometry">
            <mxRectangle width="54" height="22" as="alternateBounds" />
          </mxGeometry>
        </mxCell>
        <mxCell id="Cv067esEAor_iLYO7rBp-267" value="" style="shape=partialRectangle;connectable=0;fillColor=none;top=0;left=0;bottom=0;right=0;align=left;spacingLeft=2;overflow=hidden;fontSize=11;" parent="Cv067esEAor_iLYO7rBp-264" vertex="1">
          <mxGeometry x="150" width="22" height="22" as="geometry">
            <mxRectangle width="22" height="22" as="alternateBounds" />
          </mxGeometry>
        </mxCell>
        <mxCell id="Cv067esEAor_iLYO7rBp-268" style="shape=tableRow;horizontal=0;startSize=0;swimlaneHead=0;swimlaneBody=0;fillColor=none;collapsible=0;dropTarget=0;points=[[0,0.5],[1,0.5]];portConstraint=eastwest;top=0;left=0;right=0;bottom=0;" parent="Cv067esEAor_iLYO7rBp-243" vertex="1">
          <mxGeometry y="157" width="172" height="22" as="geometry" />
        </mxCell>
        <mxCell id="Cv067esEAor_iLYO7rBp-269" value="resetTokenExpiry" style="shape=partialRectangle;connectable=0;fillColor=none;top=0;left=0;bottom=0;right=0;align=left;spacingLeft=2;overflow=hidden;fontSize=11;" parent="Cv067esEAor_iLYO7rBp-268" vertex="1">
          <mxGeometry width="96" height="22" as="geometry">
            <mxRectangle width="96" height="22" as="alternateBounds" />
          </mxGeometry>
        </mxCell>
        <mxCell id="Cv067esEAor_iLYO7rBp-270" value="datetime" style="shape=partialRectangle;connectable=0;fillColor=none;top=0;left=0;bottom=0;right=0;align=left;spacingLeft=2;overflow=hidden;fontSize=11;" parent="Cv067esEAor_iLYO7rBp-268" vertex="1">
          <mxGeometry x="96" width="54" height="22" as="geometry">
            <mxRectangle width="54" height="22" as="alternateBounds" />
          </mxGeometry>
        </mxCell>
        <mxCell id="Cv067esEAor_iLYO7rBp-271" value="" style="shape=partialRectangle;connectable=0;fillColor=none;top=0;left=0;bottom=0;right=0;align=left;spacingLeft=2;overflow=hidden;fontSize=11;" parent="Cv067esEAor_iLYO7rBp-268" vertex="1">
          <mxGeometry x="150" width="22" height="22" as="geometry">
            <mxRectangle width="22" height="22" as="alternateBounds" />
          </mxGeometry>
        </mxCell>
        <mxCell id="Cv067esEAor_iLYO7rBp-272" style="shape=tableRow;horizontal=0;startSize=0;swimlaneHead=0;swimlaneBody=0;fillColor=none;collapsible=0;dropTarget=0;points=[[0,0.5],[1,0.5]];portConstraint=eastwest;top=0;left=0;right=0;bottom=0;" parent="Cv067esEAor_iLYO7rBp-243" vertex="1">
          <mxGeometry y="179" width="172" height="22" as="geometry" />
        </mxCell>
        <mxCell id="Cv067esEAor_iLYO7rBp-273" value="createdAt" style="shape=partialRectangle;connectable=0;fillColor=none;top=0;left=0;bottom=0;right=0;align=left;spacingLeft=2;overflow=hidden;fontSize=11;" parent="Cv067esEAor_iLYO7rBp-272" vertex="1">
          <mxGeometry width="96" height="22" as="geometry">
            <mxRectangle width="96" height="22" as="alternateBounds" />
          </mxGeometry>
        </mxCell>
        <mxCell id="Cv067esEAor_iLYO7rBp-274" value="timestamp" style="shape=partialRectangle;connectable=0;fillColor=none;top=0;left=0;bottom=0;right=0;align=left;spacingLeft=2;overflow=hidden;fontSize=11;" parent="Cv067esEAor_iLYO7rBp-272" vertex="1">
          <mxGeometry x="96" width="54" height="22" as="geometry">
            <mxRectangle width="54" height="22" as="alternateBounds" />
          </mxGeometry>
        </mxCell>
        <mxCell id="Cv067esEAor_iLYO7rBp-275" value="" style="shape=partialRectangle;connectable=0;fillColor=none;top=0;left=0;bottom=0;right=0;align=left;spacingLeft=2;overflow=hidden;fontSize=11;" parent="Cv067esEAor_iLYO7rBp-272" vertex="1">
          <mxGeometry x="150" width="22" height="22" as="geometry">
            <mxRectangle width="22" height="22" as="alternateBounds" />
          </mxGeometry>
        </mxCell>
        <mxCell id="Cv067esEAor_iLYO7rBp-276" style="shape=tableRow;horizontal=0;startSize=0;swimlaneHead=0;swimlaneBody=0;fillColor=none;collapsible=0;dropTarget=0;points=[[0,0.5],[1,0.5]];portConstraint=eastwest;top=0;left=0;right=0;bottom=0;" parent="Cv067esEAor_iLYO7rBp-243" vertex="1">
          <mxGeometry y="201" width="172" height="22" as="geometry" />
        </mxCell>
        <mxCell id="Cv067esEAor_iLYO7rBp-277" value="updatedAt" style="shape=partialRectangle;connectable=0;fillColor=none;top=0;left=0;bottom=0;right=0;align=left;spacingLeft=2;overflow=hidden;fontSize=11;" parent="Cv067esEAor_iLYO7rBp-276" vertex="1">
          <mxGeometry width="96" height="22" as="geometry">
            <mxRectangle width="96" height="22" as="alternateBounds" />
          </mxGeometry>
        </mxCell>
        <mxCell id="Cv067esEAor_iLYO7rBp-278" value="timestamp" style="shape=partialRectangle;connectable=0;fillColor=none;top=0;left=0;bottom=0;right=0;align=left;spacingLeft=2;overflow=hidden;fontSize=11;" parent="Cv067esEAor_iLYO7rBp-276" vertex="1">
          <mxGeometry x="96" width="54" height="22" as="geometry">
            <mxRectangle width="54" height="22" as="alternateBounds" />
          </mxGeometry>
        </mxCell>
        <mxCell id="Cv067esEAor_iLYO7rBp-279" value="" style="shape=partialRectangle;connectable=0;fillColor=none;top=0;left=0;bottom=0;right=0;align=left;spacingLeft=2;overflow=hidden;fontSize=11;" parent="Cv067esEAor_iLYO7rBp-276" vertex="1">
          <mxGeometry x="150" width="22" height="22" as="geometry">
            <mxRectangle width="22" height="22" as="alternateBounds" />
          </mxGeometry>
        </mxCell>
        <mxCell id="Cv067esEAor_iLYO7rBp-280" value="EMPLOYEE" style="shape=table;startSize=25;container=1;collapsible=0;childLayout=tableLayout;fixedRows=1;rowLines=1;fontStyle=1;align=center;resizeLast=1;movable=1;resizable=1;rotatable=1;deletable=1;editable=1;locked=0;connectable=1;" parent="1" vertex="1">
          <mxGeometry x="-150" y="-840" width="172" height="355" as="geometry" />
        </mxCell>
        <mxCell id="Cv067esEAor_iLYO7rBp-281" style="shape=tableRow;horizontal=0;startSize=0;swimlaneHead=0;swimlaneBody=0;fillColor=none;collapsible=0;dropTarget=0;points=[[0,0.5],[1,0.5]];portConstraint=eastwest;top=0;left=0;right=0;bottom=0;" parent="Cv067esEAor_iLYO7rBp-280" vertex="1">
          <mxGeometry y="25" width="172" height="22" as="geometry" />
        </mxCell>
        <mxCell id="Cv067esEAor_iLYO7rBp-282" value="ID" style="shape=partialRectangle;connectable=0;fillColor=none;top=0;left=0;bottom=0;right=0;align=left;spacingLeft=2;overflow=hidden;fontSize=11;" parent="Cv067esEAor_iLYO7rBp-281" vertex="1">
          <mxGeometry width="96" height="22" as="geometry">
            <mxRectangle width="96" height="22" as="alternateBounds" />
          </mxGeometry>
        </mxCell>
        <mxCell id="Cv067esEAor_iLYO7rBp-283" value="int" style="shape=partialRectangle;connectable=0;fillColor=none;top=0;left=0;bottom=0;right=0;align=left;spacingLeft=2;overflow=hidden;fontSize=11;" parent="Cv067esEAor_iLYO7rBp-281" vertex="1">
          <mxGeometry x="96" width="54" height="22" as="geometry">
            <mxRectangle width="54" height="22" as="alternateBounds" />
          </mxGeometry>
        </mxCell>
        <mxCell id="Cv067esEAor_iLYO7rBp-284" value="PK" style="shape=partialRectangle;connectable=0;fillColor=none;top=0;left=0;bottom=0;right=0;align=left;spacingLeft=2;overflow=hidden;fontSize=11;" parent="Cv067esEAor_iLYO7rBp-281" vertex="1">
          <mxGeometry x="150" width="22" height="22" as="geometry">
            <mxRectangle width="22" height="22" as="alternateBounds" />
          </mxGeometry>
        </mxCell>
        <mxCell id="Cv067esEAor_iLYO7rBp-285" style="shape=tableRow;horizontal=0;startSize=0;swimlaneHead=0;swimlaneBody=0;fillColor=none;collapsible=0;dropTarget=0;points=[[0,0.5],[1,0.5]];portConstraint=eastwest;top=0;left=0;right=0;bottom=0;" parent="Cv067esEAor_iLYO7rBp-280" vertex="1">
          <mxGeometry y="47" width="172" height="22" as="geometry" />
        </mxCell>
        <mxCell id="Cv067esEAor_iLYO7rBp-286" value="USERNAME" style="shape=partialRectangle;connectable=0;fillColor=none;top=0;left=0;bottom=0;right=0;align=left;spacingLeft=2;overflow=hidden;fontSize=11;" parent="Cv067esEAor_iLYO7rBp-285" vertex="1">
          <mxGeometry width="96" height="22" as="geometry">
            <mxRectangle width="96" height="22" as="alternateBounds" />
          </mxGeometry>
        </mxCell>
        <mxCell id="Cv067esEAor_iLYO7rBp-287" value="varchar" style="shape=partialRectangle;connectable=0;fillColor=none;top=0;left=0;bottom=0;right=0;align=left;spacingLeft=2;overflow=hidden;fontSize=11;" parent="Cv067esEAor_iLYO7rBp-285" vertex="1">
          <mxGeometry x="96" width="54" height="22" as="geometry">
            <mxRectangle width="54" height="22" as="alternateBounds" />
          </mxGeometry>
        </mxCell>
        <mxCell id="Cv067esEAor_iLYO7rBp-288" value="" style="shape=partialRectangle;connectable=0;fillColor=none;top=0;left=0;bottom=0;right=0;align=left;spacingLeft=2;overflow=hidden;fontSize=11;" parent="Cv067esEAor_iLYO7rBp-285" vertex="1">
          <mxGeometry x="150" width="22" height="22" as="geometry">
            <mxRectangle width="22" height="22" as="alternateBounds" />
          </mxGeometry>
        </mxCell>
        <mxCell id="Cv067esEAor_iLYO7rBp-289" style="shape=tableRow;horizontal=0;startSize=0;swimlaneHead=0;swimlaneBody=0;fillColor=none;collapsible=0;dropTarget=0;points=[[0,0.5],[1,0.5]];portConstraint=eastwest;top=0;left=0;right=0;bottom=0;" parent="Cv067esEAor_iLYO7rBp-280" vertex="1">
          <mxGeometry y="69" width="172" height="22" as="geometry" />
        </mxCell>
        <mxCell id="Cv067esEAor_iLYO7rBp-290" value="EMAIL" style="shape=partialRectangle;connectable=0;fillColor=none;top=0;left=0;bottom=0;right=0;align=left;spacingLeft=2;overflow=hidden;fontSize=11;" parent="Cv067esEAor_iLYO7rBp-289" vertex="1">
          <mxGeometry width="96" height="22" as="geometry">
            <mxRectangle width="96" height="22" as="alternateBounds" />
          </mxGeometry>
        </mxCell>
        <mxCell id="Cv067esEAor_iLYO7rBp-291" value="varchar" style="shape=partialRectangle;connectable=0;fillColor=none;top=0;left=0;bottom=0;right=0;align=left;spacingLeft=2;overflow=hidden;fontSize=11;" parent="Cv067esEAor_iLYO7rBp-289" vertex="1">
          <mxGeometry x="96" width="54" height="22" as="geometry">
            <mxRectangle width="54" height="22" as="alternateBounds" />
          </mxGeometry>
        </mxCell>
        <mxCell id="Cv067esEAor_iLYO7rBp-292" value="" style="shape=partialRectangle;connectable=0;fillColor=none;top=0;left=0;bottom=0;right=0;align=left;spacingLeft=2;overflow=hidden;fontSize=11;" parent="Cv067esEAor_iLYO7rBp-289" vertex="1">
          <mxGeometry x="150" width="22" height="22" as="geometry">
            <mxRectangle width="22" height="22" as="alternateBounds" />
          </mxGeometry>
        </mxCell>
        <mxCell id="Cv067esEAor_iLYO7rBp-293" style="shape=tableRow;horizontal=0;startSize=0;swimlaneHead=0;swimlaneBody=0;fillColor=none;collapsible=0;dropTarget=0;points=[[0,0.5],[1,0.5]];portConstraint=eastwest;top=0;left=0;right=0;bottom=0;" parent="Cv067esEAor_iLYO7rBp-280" vertex="1">
          <mxGeometry y="91" width="172" height="22" as="geometry" />
        </mxCell>
        <mxCell id="Cv067esEAor_iLYO7rBp-294" value="F_NAME" style="shape=partialRectangle;connectable=0;fillColor=none;top=0;left=0;bottom=0;right=0;align=left;spacingLeft=2;overflow=hidden;fontSize=11;" parent="Cv067esEAor_iLYO7rBp-293" vertex="1">
          <mxGeometry width="96" height="22" as="geometry">
            <mxRectangle width="96" height="22" as="alternateBounds" />
          </mxGeometry>
        </mxCell>
        <mxCell id="Cv067esEAor_iLYO7rBp-295" value="varchar" style="shape=partialRectangle;connectable=0;fillColor=none;top=0;left=0;bottom=0;right=0;align=left;spacingLeft=2;overflow=hidden;fontSize=11;" parent="Cv067esEAor_iLYO7rBp-293" vertex="1">
          <mxGeometry x="96" width="54" height="22" as="geometry">
            <mxRectangle width="54" height="22" as="alternateBounds" />
          </mxGeometry>
        </mxCell>
        <mxCell id="Cv067esEAor_iLYO7rBp-296" value="" style="shape=partialRectangle;connectable=0;fillColor=none;top=0;left=0;bottom=0;right=0;align=left;spacingLeft=2;overflow=hidden;fontSize=11;" parent="Cv067esEAor_iLYO7rBp-293" vertex="1">
          <mxGeometry x="150" width="22" height="22" as="geometry">
            <mxRectangle width="22" height="22" as="alternateBounds" />
          </mxGeometry>
        </mxCell>
        <mxCell id="Cv067esEAor_iLYO7rBp-297" style="shape=tableRow;horizontal=0;startSize=0;swimlaneHead=0;swimlaneBody=0;fillColor=none;collapsible=0;dropTarget=0;points=[[0,0.5],[1,0.5]];portConstraint=eastwest;top=0;left=0;right=0;bottom=0;" parent="Cv067esEAor_iLYO7rBp-280" vertex="1">
          <mxGeometry y="113" width="172" height="22" as="geometry" />
        </mxCell>
        <mxCell id="Cv067esEAor_iLYO7rBp-298" value="L_NAME" style="shape=partialRectangle;connectable=0;fillColor=none;top=0;left=0;bottom=0;right=0;align=left;spacingLeft=2;overflow=hidden;fontSize=11;" parent="Cv067esEAor_iLYO7rBp-297" vertex="1">
          <mxGeometry width="96" height="22" as="geometry">
            <mxRectangle width="96" height="22" as="alternateBounds" />
          </mxGeometry>
        </mxCell>
        <mxCell id="Cv067esEAor_iLYO7rBp-299" value="varchar" style="shape=partialRectangle;connectable=0;fillColor=none;top=0;left=0;bottom=0;right=0;align=left;spacingLeft=2;overflow=hidden;fontSize=11;" parent="Cv067esEAor_iLYO7rBp-297" vertex="1">
          <mxGeometry x="96" width="54" height="22" as="geometry">
            <mxRectangle width="54" height="22" as="alternateBounds" />
          </mxGeometry>
        </mxCell>
        <mxCell id="Cv067esEAor_iLYO7rBp-300" value="" style="shape=partialRectangle;connectable=0;fillColor=none;top=0;left=0;bottom=0;right=0;align=left;spacingLeft=2;overflow=hidden;fontSize=11;" parent="Cv067esEAor_iLYO7rBp-297" vertex="1">
          <mxGeometry x="150" width="22" height="22" as="geometry">
            <mxRectangle width="22" height="22" as="alternateBounds" />
          </mxGeometry>
        </mxCell>
        <mxCell id="Cv067esEAor_iLYO7rBp-301" style="shape=tableRow;horizontal=0;startSize=0;swimlaneHead=0;swimlaneBody=0;fillColor=none;collapsible=0;dropTarget=0;points=[[0,0.5],[1,0.5]];portConstraint=eastwest;top=0;left=0;right=0;bottom=0;" parent="Cv067esEAor_iLYO7rBp-280" vertex="1">
          <mxGeometry y="135" width="172" height="22" as="geometry" />
        </mxCell>
        <mxCell id="Cv067esEAor_iLYO7rBp-302" value="PASSWORD" style="shape=partialRectangle;connectable=0;fillColor=none;top=0;left=0;bottom=0;right=0;align=left;spacingLeft=2;overflow=hidden;fontSize=11;" parent="Cv067esEAor_iLYO7rBp-301" vertex="1">
          <mxGeometry width="96" height="22" as="geometry">
            <mxRectangle width="96" height="22" as="alternateBounds" />
          </mxGeometry>
        </mxCell>
        <mxCell id="Cv067esEAor_iLYO7rBp-303" value="varchar" style="shape=partialRectangle;connectable=0;fillColor=none;top=0;left=0;bottom=0;right=0;align=left;spacingLeft=2;overflow=hidden;fontSize=11;" parent="Cv067esEAor_iLYO7rBp-301" vertex="1">
          <mxGeometry x="96" width="54" height="22" as="geometry">
            <mxRectangle width="54" height="22" as="alternateBounds" />
          </mxGeometry>
        </mxCell>
        <mxCell id="Cv067esEAor_iLYO7rBp-304" value="" style="shape=partialRectangle;connectable=0;fillColor=none;top=0;left=0;bottom=0;right=0;align=left;spacingLeft=2;overflow=hidden;fontSize=11;" parent="Cv067esEAor_iLYO7rBp-301" vertex="1">
          <mxGeometry x="150" width="22" height="22" as="geometry">
            <mxRectangle width="22" height="22" as="alternateBounds" />
          </mxGeometry>
        </mxCell>
        <mxCell id="Cv067esEAor_iLYO7rBp-305" style="shape=tableRow;horizontal=0;startSize=0;swimlaneHead=0;swimlaneBody=0;fillColor=none;collapsible=0;dropTarget=0;points=[[0,0.5],[1,0.5]];portConstraint=eastwest;top=0;left=0;right=0;bottom=0;" parent="Cv067esEAor_iLYO7rBp-280" vertex="1">
          <mxGeometry y="157" width="172" height="22" as="geometry" />
        </mxCell>
        <mxCell id="Cv067esEAor_iLYO7rBp-306" value="PHONE_NUM" style="shape=partialRectangle;connectable=0;fillColor=none;top=0;left=0;bottom=0;right=0;align=left;spacingLeft=2;overflow=hidden;fontSize=11;" parent="Cv067esEAor_iLYO7rBp-305" vertex="1">
          <mxGeometry width="96" height="22" as="geometry">
            <mxRectangle width="96" height="22" as="alternateBounds" />
          </mxGeometry>
        </mxCell>
        <mxCell id="Cv067esEAor_iLYO7rBp-307" value="varchar" style="shape=partialRectangle;connectable=0;fillColor=none;top=0;left=0;bottom=0;right=0;align=left;spacingLeft=2;overflow=hidden;fontSize=11;" parent="Cv067esEAor_iLYO7rBp-305" vertex="1">
          <mxGeometry x="96" width="54" height="22" as="geometry">
            <mxRectangle width="54" height="22" as="alternateBounds" />
          </mxGeometry>
        </mxCell>
        <mxCell id="Cv067esEAor_iLYO7rBp-308" value="" style="shape=partialRectangle;connectable=0;fillColor=none;top=0;left=0;bottom=0;right=0;align=left;spacingLeft=2;overflow=hidden;fontSize=11;" parent="Cv067esEAor_iLYO7rBp-305" vertex="1">
          <mxGeometry x="150" width="22" height="22" as="geometry">
            <mxRectangle width="22" height="22" as="alternateBounds" />
          </mxGeometry>
        </mxCell>
        <mxCell id="Cv067esEAor_iLYO7rBp-309" style="shape=tableRow;horizontal=0;startSize=0;swimlaneHead=0;swimlaneBody=0;fillColor=none;collapsible=0;dropTarget=0;points=[[0,0.5],[1,0.5]];portConstraint=eastwest;top=0;left=0;right=0;bottom=0;" parent="Cv067esEAor_iLYO7rBp-280" vertex="1">
          <mxGeometry y="179" width="172" height="22" as="geometry" />
        </mxCell>
        <mxCell id="Cv067esEAor_iLYO7rBp-310" value="ENTRY_DATE" style="shape=partialRectangle;connectable=0;fillColor=none;top=0;left=0;bottom=0;right=0;align=left;spacingLeft=2;overflow=hidden;fontSize=11;" parent="Cv067esEAor_iLYO7rBp-309" vertex="1">
          <mxGeometry width="96" height="22" as="geometry">
            <mxRectangle width="96" height="22" as="alternateBounds" />
          </mxGeometry>
        </mxCell>
        <mxCell id="Cv067esEAor_iLYO7rBp-311" value="datetime" style="shape=partialRectangle;connectable=0;fillColor=none;top=0;left=0;bottom=0;right=0;align=left;spacingLeft=2;overflow=hidden;fontSize=11;" parent="Cv067esEAor_iLYO7rBp-309" vertex="1">
          <mxGeometry x="96" width="54" height="22" as="geometry">
            <mxRectangle width="54" height="22" as="alternateBounds" />
          </mxGeometry>
        </mxCell>
        <mxCell id="Cv067esEAor_iLYO7rBp-312" value="" style="shape=partialRectangle;connectable=0;fillColor=none;top=0;left=0;bottom=0;right=0;align=left;spacingLeft=2;overflow=hidden;fontSize=11;" parent="Cv067esEAor_iLYO7rBp-309" vertex="1">
          <mxGeometry x="150" width="22" height="22" as="geometry">
            <mxRectangle width="22" height="22" as="alternateBounds" />
          </mxGeometry>
        </mxCell>
        <mxCell id="Cv067esEAor_iLYO7rBp-313" style="shape=tableRow;horizontal=0;startSize=0;swimlaneHead=0;swimlaneBody=0;fillColor=none;collapsible=0;dropTarget=0;points=[[0,0.5],[1,0.5]];portConstraint=eastwest;top=0;left=0;right=0;bottom=0;" parent="Cv067esEAor_iLYO7rBp-280" vertex="1">
          <mxGeometry y="201" width="172" height="22" as="geometry" />
        </mxCell>
        <mxCell id="Cv067esEAor_iLYO7rBp-314" value="ROLE" style="shape=partialRectangle;connectable=0;fillColor=none;top=0;left=0;bottom=0;right=0;align=left;spacingLeft=2;overflow=hidden;fontSize=11;" parent="Cv067esEAor_iLYO7rBp-313" vertex="1">
          <mxGeometry width="96" height="22" as="geometry">
            <mxRectangle width="96" height="22" as="alternateBounds" />
          </mxGeometry>
        </mxCell>
        <mxCell id="Cv067esEAor_iLYO7rBp-315" value="varchar" style="shape=partialRectangle;connectable=0;fillColor=none;top=0;left=0;bottom=0;right=0;align=left;spacingLeft=2;overflow=hidden;fontSize=11;" parent="Cv067esEAor_iLYO7rBp-313" vertex="1">
          <mxGeometry x="96" width="54" height="22" as="geometry">
            <mxRectangle width="54" height="22" as="alternateBounds" />
          </mxGeometry>
        </mxCell>
        <mxCell id="Cv067esEAor_iLYO7rBp-316" value="" style="shape=partialRectangle;connectable=0;fillColor=none;top=0;left=0;bottom=0;right=0;align=left;spacingLeft=2;overflow=hidden;fontSize=11;" parent="Cv067esEAor_iLYO7rBp-313" vertex="1">
          <mxGeometry x="150" width="22" height="22" as="geometry">
            <mxRectangle width="22" height="22" as="alternateBounds" />
          </mxGeometry>
        </mxCell>
        <mxCell id="Cv067esEAor_iLYO7rBp-317" style="shape=tableRow;horizontal=0;startSize=0;swimlaneHead=0;swimlaneBody=0;fillColor=none;collapsible=0;dropTarget=0;points=[[0,0.5],[1,0.5]];portConstraint=eastwest;top=0;left=0;right=0;bottom=0;" parent="Cv067esEAor_iLYO7rBp-280" vertex="1">
          <mxGeometry y="223" width="172" height="22" as="geometry" />
        </mxCell>
        <mxCell id="Cv067esEAor_iLYO7rBp-318" value="PHONE_NUM1" style="shape=partialRectangle;connectable=0;fillColor=none;top=0;left=0;bottom=0;right=0;align=left;spacingLeft=2;overflow=hidden;fontSize=11;" parent="Cv067esEAor_iLYO7rBp-317" vertex="1">
          <mxGeometry width="96" height="22" as="geometry">
            <mxRectangle width="96" height="22" as="alternateBounds" />
          </mxGeometry>
        </mxCell>
        <mxCell id="Cv067esEAor_iLYO7rBp-319" value="varchar" style="shape=partialRectangle;connectable=0;fillColor=none;top=0;left=0;bottom=0;right=0;align=left;spacingLeft=2;overflow=hidden;fontSize=11;" parent="Cv067esEAor_iLYO7rBp-317" vertex="1">
          <mxGeometry x="96" width="54" height="22" as="geometry">
            <mxRectangle width="54" height="22" as="alternateBounds" />
          </mxGeometry>
        </mxCell>
        <mxCell id="Cv067esEAor_iLYO7rBp-320" value="" style="shape=partialRectangle;connectable=0;fillColor=none;top=0;left=0;bottom=0;right=0;align=left;spacingLeft=2;overflow=hidden;fontSize=11;" parent="Cv067esEAor_iLYO7rBp-317" vertex="1">
          <mxGeometry x="150" width="22" height="22" as="geometry">
            <mxRectangle width="22" height="22" as="alternateBounds" />
          </mxGeometry>
        </mxCell>
        <mxCell id="Cv067esEAor_iLYO7rBp-321" style="shape=tableRow;horizontal=0;startSize=0;swimlaneHead=0;swimlaneBody=0;fillColor=none;collapsible=0;dropTarget=0;points=[[0,0.5],[1,0.5]];portConstraint=eastwest;top=0;left=0;right=0;bottom=0;" parent="Cv067esEAor_iLYO7rBp-280" vertex="1">
          <mxGeometry y="245" width="172" height="22" as="geometry" />
        </mxCell>
        <mxCell id="Cv067esEAor_iLYO7rBp-322" value="PHONE_NUM2" style="shape=partialRectangle;connectable=0;fillColor=none;top=0;left=0;bottom=0;right=0;align=left;spacingLeft=2;overflow=hidden;fontSize=11;" parent="Cv067esEAor_iLYO7rBp-321" vertex="1">
          <mxGeometry width="96" height="22" as="geometry">
            <mxRectangle width="96" height="22" as="alternateBounds" />
          </mxGeometry>
        </mxCell>
        <mxCell id="Cv067esEAor_iLYO7rBp-323" value="varchar" style="shape=partialRectangle;connectable=0;fillColor=none;top=0;left=0;bottom=0;right=0;align=left;spacingLeft=2;overflow=hidden;fontSize=11;" parent="Cv067esEAor_iLYO7rBp-321" vertex="1">
          <mxGeometry x="96" width="54" height="22" as="geometry">
            <mxRectangle width="54" height="22" as="alternateBounds" />
          </mxGeometry>
        </mxCell>
        <mxCell id="Cv067esEAor_iLYO7rBp-324" value="" style="shape=partialRectangle;connectable=0;fillColor=none;top=0;left=0;bottom=0;right=0;align=left;spacingLeft=2;overflow=hidden;fontSize=11;" parent="Cv067esEAor_iLYO7rBp-321" vertex="1">
          <mxGeometry x="150" width="22" height="22" as="geometry">
            <mxRectangle width="22" height="22" as="alternateBounds" />
          </mxGeometry>
        </mxCell>
        <mxCell id="Cv067esEAor_iLYO7rBp-325" style="shape=tableRow;horizontal=0;startSize=0;swimlaneHead=0;swimlaneBody=0;fillColor=none;collapsible=0;dropTarget=0;points=[[0,0.5],[1,0.5]];portConstraint=eastwest;top=0;left=0;right=0;bottom=0;" parent="Cv067esEAor_iLYO7rBp-280" vertex="1">
          <mxGeometry y="267" width="172" height="22" as="geometry" />
        </mxCell>
        <mxCell id="Cv067esEAor_iLYO7rBp-326" value="resetToken" style="shape=partialRectangle;connectable=0;fillColor=none;top=0;left=0;bottom=0;right=0;align=left;spacingLeft=2;overflow=hidden;fontSize=11;" parent="Cv067esEAor_iLYO7rBp-325" vertex="1">
          <mxGeometry width="96" height="22" as="geometry">
            <mxRectangle width="96" height="22" as="alternateBounds" />
          </mxGeometry>
        </mxCell>
        <mxCell id="Cv067esEAor_iLYO7rBp-327" value="varchar" style="shape=partialRectangle;connectable=0;fillColor=none;top=0;left=0;bottom=0;right=0;align=left;spacingLeft=2;overflow=hidden;fontSize=11;" parent="Cv067esEAor_iLYO7rBp-325" vertex="1">
          <mxGeometry x="96" width="54" height="22" as="geometry">
            <mxRectangle width="54" height="22" as="alternateBounds" />
          </mxGeometry>
        </mxCell>
        <mxCell id="Cv067esEAor_iLYO7rBp-328" value="" style="shape=partialRectangle;connectable=0;fillColor=none;top=0;left=0;bottom=0;right=0;align=left;spacingLeft=2;overflow=hidden;fontSize=11;" parent="Cv067esEAor_iLYO7rBp-325" vertex="1">
          <mxGeometry x="150" width="22" height="22" as="geometry">
            <mxRectangle width="22" height="22" as="alternateBounds" />
          </mxGeometry>
        </mxCell>
        <mxCell id="Cv067esEAor_iLYO7rBp-329" style="shape=tableRow;horizontal=0;startSize=0;swimlaneHead=0;swimlaneBody=0;fillColor=none;collapsible=0;dropTarget=0;points=[[0,0.5],[1,0.5]];portConstraint=eastwest;top=0;left=0;right=0;bottom=0;" parent="Cv067esEAor_iLYO7rBp-280" vertex="1">
          <mxGeometry y="289" width="172" height="22" as="geometry" />
        </mxCell>
        <mxCell id="Cv067esEAor_iLYO7rBp-330" value="resetTokenExpiry" style="shape=partialRectangle;connectable=0;fillColor=none;top=0;left=0;bottom=0;right=0;align=left;spacingLeft=2;overflow=hidden;fontSize=11;" parent="Cv067esEAor_iLYO7rBp-329" vertex="1">
          <mxGeometry width="96" height="22" as="geometry">
            <mxRectangle width="96" height="22" as="alternateBounds" />
          </mxGeometry>
        </mxCell>
        <mxCell id="Cv067esEAor_iLYO7rBp-331" value="datetime" style="shape=partialRectangle;connectable=0;fillColor=none;top=0;left=0;bottom=0;right=0;align=left;spacingLeft=2;overflow=hidden;fontSize=11;" parent="Cv067esEAor_iLYO7rBp-329" vertex="1">
          <mxGeometry x="96" width="54" height="22" as="geometry">
            <mxRectangle width="54" height="22" as="alternateBounds" />
          </mxGeometry>
        </mxCell>
        <mxCell id="Cv067esEAor_iLYO7rBp-332" value="" style="shape=partialRectangle;connectable=0;fillColor=none;top=0;left=0;bottom=0;right=0;align=left;spacingLeft=2;overflow=hidden;fontSize=11;" parent="Cv067esEAor_iLYO7rBp-329" vertex="1">
          <mxGeometry x="150" width="22" height="22" as="geometry">
            <mxRectangle width="22" height="22" as="alternateBounds" />
          </mxGeometry>
        </mxCell>
        <mxCell id="Cv067esEAor_iLYO7rBp-333" style="shape=tableRow;horizontal=0;startSize=0;swimlaneHead=0;swimlaneBody=0;fillColor=none;collapsible=0;dropTarget=0;points=[[0,0.5],[1,0.5]];portConstraint=eastwest;top=0;left=0;right=0;bottom=0;" parent="Cv067esEAor_iLYO7rBp-280" vertex="1">
          <mxGeometry y="311" width="172" height="22" as="geometry" />
        </mxCell>
        <mxCell id="Cv067esEAor_iLYO7rBp-334" value="createdAt" style="shape=partialRectangle;connectable=0;fillColor=none;top=0;left=0;bottom=0;right=0;align=left;spacingLeft=2;overflow=hidden;fontSize=11;" parent="Cv067esEAor_iLYO7rBp-333" vertex="1">
          <mxGeometry width="96" height="22" as="geometry">
            <mxRectangle width="96" height="22" as="alternateBounds" />
          </mxGeometry>
        </mxCell>
        <mxCell id="Cv067esEAor_iLYO7rBp-335" value="timestamp" style="shape=partialRectangle;connectable=0;fillColor=none;top=0;left=0;bottom=0;right=0;align=left;spacingLeft=2;overflow=hidden;fontSize=11;" parent="Cv067esEAor_iLYO7rBp-333" vertex="1">
          <mxGeometry x="96" width="54" height="22" as="geometry">
            <mxRectangle width="54" height="22" as="alternateBounds" />
          </mxGeometry>
        </mxCell>
        <mxCell id="Cv067esEAor_iLYO7rBp-336" value="" style="shape=partialRectangle;connectable=0;fillColor=none;top=0;left=0;bottom=0;right=0;align=left;spacingLeft=2;overflow=hidden;fontSize=11;" parent="Cv067esEAor_iLYO7rBp-333" vertex="1">
          <mxGeometry x="150" width="22" height="22" as="geometry">
            <mxRectangle width="22" height="22" as="alternateBounds" />
          </mxGeometry>
        </mxCell>
        <mxCell id="Cv067esEAor_iLYO7rBp-337" style="shape=tableRow;horizontal=0;startSize=0;swimlaneHead=0;swimlaneBody=0;fillColor=none;collapsible=0;dropTarget=0;points=[[0,0.5],[1,0.5]];portConstraint=eastwest;top=0;left=0;right=0;bottom=0;" parent="Cv067esEAor_iLYO7rBp-280" vertex="1">
          <mxGeometry y="333" width="172" height="22" as="geometry" />
        </mxCell>
        <mxCell id="Cv067esEAor_iLYO7rBp-338" value="updatedAt" style="shape=partialRectangle;connectable=0;fillColor=none;top=0;left=0;bottom=0;right=0;align=left;spacingLeft=2;overflow=hidden;fontSize=11;" parent="Cv067esEAor_iLYO7rBp-337" vertex="1">
          <mxGeometry width="96" height="22" as="geometry">
            <mxRectangle width="96" height="22" as="alternateBounds" />
          </mxGeometry>
        </mxCell>
        <mxCell id="Cv067esEAor_iLYO7rBp-339" value="timestamp" style="shape=partialRectangle;connectable=0;fillColor=none;top=0;left=0;bottom=0;right=0;align=left;spacingLeft=2;overflow=hidden;fontSize=11;" parent="Cv067esEAor_iLYO7rBp-337" vertex="1">
          <mxGeometry x="96" width="54" height="22" as="geometry">
            <mxRectangle width="54" height="22" as="alternateBounds" />
          </mxGeometry>
        </mxCell>
        <mxCell id="Cv067esEAor_iLYO7rBp-340" value="" style="shape=partialRectangle;connectable=0;fillColor=none;top=0;left=0;bottom=0;right=0;align=left;spacingLeft=2;overflow=hidden;fontSize=11;" parent="Cv067esEAor_iLYO7rBp-337" vertex="1">
          <mxGeometry x="150" width="22" height="22" as="geometry">
            <mxRectangle width="22" height="22" as="alternateBounds" />
          </mxGeometry>
        </mxCell>
        <mxCell id="aV815E0Qi508MG-vV4y0-1" style="edgeStyle=orthogonalEdgeStyle;rounded=0;orthogonalLoop=1;jettySize=auto;html=1;entryX=0.94;entryY=0.235;entryDx=0;entryDy=0;entryPerimeter=0;exitX=0.412;exitY=-0.003;exitDx=0;exitDy=0;exitPerimeter=0;" parent="1" source="Cv067esEAor_iLYO7rBp-341" target="Cv067esEAor_iLYO7rBp-293" edge="1">
          <mxGeometry relative="1" as="geometry" />
        </mxCell>
        <mxCell id="Cv067esEAor_iLYO7rBp-341" value="ADMINS" style="shape=table;startSize=25;container=1;collapsible=0;childLayout=tableLayout;fixedRows=1;rowLines=1;fontStyle=1;align=center;resizeLast=1;movable=1;resizable=1;rotatable=1;deletable=1;editable=1;locked=0;connectable=1;" parent="1" vertex="1">
          <mxGeometry x="180" y="-760" width="172" height="223" as="geometry" />
        </mxCell>
        <mxCell id="Cv067esEAor_iLYO7rBp-342" style="shape=tableRow;horizontal=0;startSize=0;swimlaneHead=0;swimlaneBody=0;fillColor=none;collapsible=0;dropTarget=0;points=[[0,0.5],[1,0.5]];portConstraint=eastwest;top=0;left=0;right=0;bottom=0;" parent="Cv067esEAor_iLYO7rBp-341" vertex="1">
          <mxGeometry y="25" width="172" height="22" as="geometry" />
        </mxCell>
        <mxCell id="Cv067esEAor_iLYO7rBp-343" value="ID" style="shape=partialRectangle;connectable=0;fillColor=none;top=0;left=0;bottom=0;right=0;align=left;spacingLeft=2;overflow=hidden;fontSize=11;" parent="Cv067esEAor_iLYO7rBp-342" vertex="1">
          <mxGeometry width="96" height="22" as="geometry">
            <mxRectangle width="96" height="22" as="alternateBounds" />
          </mxGeometry>
        </mxCell>
        <mxCell id="Cv067esEAor_iLYO7rBp-344" value="int" style="shape=partialRectangle;connectable=0;fillColor=none;top=0;left=0;bottom=0;right=0;align=left;spacingLeft=2;overflow=hidden;fontSize=11;" parent="Cv067esEAor_iLYO7rBp-342" vertex="1">
          <mxGeometry x="96" width="54" height="22" as="geometry">
            <mxRectangle width="54" height="22" as="alternateBounds" />
          </mxGeometry>
        </mxCell>
        <mxCell id="Cv067esEAor_iLYO7rBp-345" value="PK" style="shape=partialRectangle;connectable=0;fillColor=none;top=0;left=0;bottom=0;right=0;align=left;spacingLeft=2;overflow=hidden;fontSize=11;" parent="Cv067esEAor_iLYO7rBp-342" vertex="1">
          <mxGeometry x="150" width="22" height="22" as="geometry">
            <mxRectangle width="22" height="22" as="alternateBounds" />
          </mxGeometry>
        </mxCell>
        <mxCell id="Cv067esEAor_iLYO7rBp-346" style="shape=tableRow;horizontal=0;startSize=0;swimlaneHead=0;swimlaneBody=0;fillColor=none;collapsible=0;dropTarget=0;points=[[0,0.5],[1,0.5]];portConstraint=eastwest;top=0;left=0;right=0;bottom=0;" parent="Cv067esEAor_iLYO7rBp-341" vertex="1">
          <mxGeometry y="47" width="172" height="22" as="geometry" />
        </mxCell>
        <mxCell id="Cv067esEAor_iLYO7rBp-347" value="NAME" style="shape=partialRectangle;connectable=0;fillColor=none;top=0;left=0;bottom=0;right=0;align=left;spacingLeft=2;overflow=hidden;fontSize=11;" parent="Cv067esEAor_iLYO7rBp-346" vertex="1">
          <mxGeometry width="96" height="22" as="geometry">
            <mxRectangle width="96" height="22" as="alternateBounds" />
          </mxGeometry>
        </mxCell>
        <mxCell id="Cv067esEAor_iLYO7rBp-348" value="varchar" style="shape=partialRectangle;connectable=0;fillColor=none;top=0;left=0;bottom=0;right=0;align=left;spacingLeft=2;overflow=hidden;fontSize=11;" parent="Cv067esEAor_iLYO7rBp-346" vertex="1">
          <mxGeometry x="96" width="54" height="22" as="geometry">
            <mxRectangle width="54" height="22" as="alternateBounds" />
          </mxGeometry>
        </mxCell>
        <mxCell id="Cv067esEAor_iLYO7rBp-349" value="" style="shape=partialRectangle;connectable=0;fillColor=none;top=0;left=0;bottom=0;right=0;align=left;spacingLeft=2;overflow=hidden;fontSize=11;" parent="Cv067esEAor_iLYO7rBp-346" vertex="1">
          <mxGeometry x="150" width="22" height="22" as="geometry">
            <mxRectangle width="22" height="22" as="alternateBounds" />
          </mxGeometry>
        </mxCell>
        <mxCell id="Cv067esEAor_iLYO7rBp-350" style="shape=tableRow;horizontal=0;startSize=0;swimlaneHead=0;swimlaneBody=0;fillColor=none;collapsible=0;dropTarget=0;points=[[0,0.5],[1,0.5]];portConstraint=eastwest;top=0;left=0;right=0;bottom=0;" parent="Cv067esEAor_iLYO7rBp-341" vertex="1">
          <mxGeometry y="69" width="172" height="22" as="geometry" />
        </mxCell>
        <mxCell id="Cv067esEAor_iLYO7rBp-351" value="EMAIL" style="shape=partialRectangle;connectable=0;fillColor=none;top=0;left=0;bottom=0;right=0;align=left;spacingLeft=2;overflow=hidden;fontSize=11;" parent="Cv067esEAor_iLYO7rBp-350" vertex="1">
          <mxGeometry width="96" height="22" as="geometry">
            <mxRectangle width="96" height="22" as="alternateBounds" />
          </mxGeometry>
        </mxCell>
        <mxCell id="Cv067esEAor_iLYO7rBp-352" value="varchar" style="shape=partialRectangle;connectable=0;fillColor=none;top=0;left=0;bottom=0;right=0;align=left;spacingLeft=2;overflow=hidden;fontSize=11;" parent="Cv067esEAor_iLYO7rBp-350" vertex="1">
          <mxGeometry x="96" width="54" height="22" as="geometry">
            <mxRectangle width="54" height="22" as="alternateBounds" />
          </mxGeometry>
        </mxCell>
        <mxCell id="Cv067esEAor_iLYO7rBp-353" value="" style="shape=partialRectangle;connectable=0;fillColor=none;top=0;left=0;bottom=0;right=0;align=left;spacingLeft=2;overflow=hidden;fontSize=11;" parent="Cv067esEAor_iLYO7rBp-350" vertex="1">
          <mxGeometry x="150" width="22" height="22" as="geometry">
            <mxRectangle width="22" height="22" as="alternateBounds" />
          </mxGeometry>
        </mxCell>
        <mxCell id="Cv067esEAor_iLYO7rBp-354" style="shape=tableRow;horizontal=0;startSize=0;swimlaneHead=0;swimlaneBody=0;fillColor=none;collapsible=0;dropTarget=0;points=[[0,0.5],[1,0.5]];portConstraint=eastwest;top=0;left=0;right=0;bottom=0;" parent="Cv067esEAor_iLYO7rBp-341" vertex="1">
          <mxGeometry y="91" width="172" height="22" as="geometry" />
        </mxCell>
        <mxCell id="Cv067esEAor_iLYO7rBp-355" value="PHONE_NUM" style="shape=partialRectangle;connectable=0;fillColor=none;top=0;left=0;bottom=0;right=0;align=left;spacingLeft=2;overflow=hidden;fontSize=11;" parent="Cv067esEAor_iLYO7rBp-354" vertex="1">
          <mxGeometry width="96" height="22" as="geometry">
            <mxRectangle width="96" height="22" as="alternateBounds" />
          </mxGeometry>
        </mxCell>
        <mxCell id="Cv067esEAor_iLYO7rBp-356" value="varchar" style="shape=partialRectangle;connectable=0;fillColor=none;top=0;left=0;bottom=0;right=0;align=left;spacingLeft=2;overflow=hidden;fontSize=11;" parent="Cv067esEAor_iLYO7rBp-354" vertex="1">
          <mxGeometry x="96" width="54" height="22" as="geometry">
            <mxRectangle width="54" height="22" as="alternateBounds" />
          </mxGeometry>
        </mxCell>
        <mxCell id="Cv067esEAor_iLYO7rBp-357" value="" style="shape=partialRectangle;connectable=0;fillColor=none;top=0;left=0;bottom=0;right=0;align=left;spacingLeft=2;overflow=hidden;fontSize=11;" parent="Cv067esEAor_iLYO7rBp-354" vertex="1">
          <mxGeometry x="150" width="22" height="22" as="geometry">
            <mxRectangle width="22" height="22" as="alternateBounds" />
          </mxGeometry>
        </mxCell>
        <mxCell id="Cv067esEAor_iLYO7rBp-358" style="shape=tableRow;horizontal=0;startSize=0;swimlaneHead=0;swimlaneBody=0;fillColor=none;collapsible=0;dropTarget=0;points=[[0,0.5],[1,0.5]];portConstraint=eastwest;top=0;left=0;right=0;bottom=0;" parent="Cv067esEAor_iLYO7rBp-341" vertex="1">
          <mxGeometry y="113" width="172" height="22" as="geometry" />
        </mxCell>
        <mxCell id="Cv067esEAor_iLYO7rBp-359" value="PASSWORD" style="shape=partialRectangle;connectable=0;fillColor=none;top=0;left=0;bottom=0;right=0;align=left;spacingLeft=2;overflow=hidden;fontSize=11;" parent="Cv067esEAor_iLYO7rBp-358" vertex="1">
          <mxGeometry width="96" height="22" as="geometry">
            <mxRectangle width="96" height="22" as="alternateBounds" />
          </mxGeometry>
        </mxCell>
        <mxCell id="Cv067esEAor_iLYO7rBp-360" value="varchar" style="shape=partialRectangle;connectable=0;fillColor=none;top=0;left=0;bottom=0;right=0;align=left;spacingLeft=2;overflow=hidden;fontSize=11;" parent="Cv067esEAor_iLYO7rBp-358" vertex="1">
          <mxGeometry x="96" width="54" height="22" as="geometry">
            <mxRectangle width="54" height="22" as="alternateBounds" />
          </mxGeometry>
        </mxCell>
        <mxCell id="Cv067esEAor_iLYO7rBp-361" value="" style="shape=partialRectangle;connectable=0;fillColor=none;top=0;left=0;bottom=0;right=0;align=left;spacingLeft=2;overflow=hidden;fontSize=11;" parent="Cv067esEAor_iLYO7rBp-358" vertex="1">
          <mxGeometry x="150" width="22" height="22" as="geometry">
            <mxRectangle width="22" height="22" as="alternateBounds" />
          </mxGeometry>
        </mxCell>
        <mxCell id="Cv067esEAor_iLYO7rBp-362" style="shape=tableRow;horizontal=0;startSize=0;swimlaneHead=0;swimlaneBody=0;fillColor=none;collapsible=0;dropTarget=0;points=[[0,0.5],[1,0.5]];portConstraint=eastwest;top=0;left=0;right=0;bottom=0;" parent="Cv067esEAor_iLYO7rBp-341" vertex="1">
          <mxGeometry y="135" width="172" height="22" as="geometry" />
        </mxCell>
        <mxCell id="Cv067esEAor_iLYO7rBp-363" value="resetToken" style="shape=partialRectangle;connectable=0;fillColor=none;top=0;left=0;bottom=0;right=0;align=left;spacingLeft=2;overflow=hidden;fontSize=11;" parent="Cv067esEAor_iLYO7rBp-362" vertex="1">
          <mxGeometry width="96" height="22" as="geometry">
            <mxRectangle width="96" height="22" as="alternateBounds" />
          </mxGeometry>
        </mxCell>
        <mxCell id="Cv067esEAor_iLYO7rBp-364" value="varchar" style="shape=partialRectangle;connectable=0;fillColor=none;top=0;left=0;bottom=0;right=0;align=left;spacingLeft=2;overflow=hidden;fontSize=11;" parent="Cv067esEAor_iLYO7rBp-362" vertex="1">
          <mxGeometry x="96" width="54" height="22" as="geometry">
            <mxRectangle width="54" height="22" as="alternateBounds" />
          </mxGeometry>
        </mxCell>
        <mxCell id="Cv067esEAor_iLYO7rBp-365" value="" style="shape=partialRectangle;connectable=0;fillColor=none;top=0;left=0;bottom=0;right=0;align=left;spacingLeft=2;overflow=hidden;fontSize=11;" parent="Cv067esEAor_iLYO7rBp-362" vertex="1">
          <mxGeometry x="150" width="22" height="22" as="geometry">
            <mxRectangle width="22" height="22" as="alternateBounds" />
          </mxGeometry>
        </mxCell>
        <mxCell id="Cv067esEAor_iLYO7rBp-366" style="shape=tableRow;horizontal=0;startSize=0;swimlaneHead=0;swimlaneBody=0;fillColor=none;collapsible=0;dropTarget=0;points=[[0,0.5],[1,0.5]];portConstraint=eastwest;top=0;left=0;right=0;bottom=0;" parent="Cv067esEAor_iLYO7rBp-341" vertex="1">
          <mxGeometry y="157" width="172" height="22" as="geometry" />
        </mxCell>
        <mxCell id="Cv067esEAor_iLYO7rBp-367" value="resetTokenExpiry" style="shape=partialRectangle;connectable=0;fillColor=none;top=0;left=0;bottom=0;right=0;align=left;spacingLeft=2;overflow=hidden;fontSize=11;" parent="Cv067esEAor_iLYO7rBp-366" vertex="1">
          <mxGeometry width="96" height="22" as="geometry">
            <mxRectangle width="96" height="22" as="alternateBounds" />
          </mxGeometry>
        </mxCell>
        <mxCell id="Cv067esEAor_iLYO7rBp-368" value="datetime" style="shape=partialRectangle;connectable=0;fillColor=none;top=0;left=0;bottom=0;right=0;align=left;spacingLeft=2;overflow=hidden;fontSize=11;" parent="Cv067esEAor_iLYO7rBp-366" vertex="1">
          <mxGeometry x="96" width="54" height="22" as="geometry">
            <mxRectangle width="54" height="22" as="alternateBounds" />
          </mxGeometry>
        </mxCell>
        <mxCell id="Cv067esEAor_iLYO7rBp-369" value="" style="shape=partialRectangle;connectable=0;fillColor=none;top=0;left=0;bottom=0;right=0;align=left;spacingLeft=2;overflow=hidden;fontSize=11;" parent="Cv067esEAor_iLYO7rBp-366" vertex="1">
          <mxGeometry x="150" width="22" height="22" as="geometry">
            <mxRectangle width="22" height="22" as="alternateBounds" />
          </mxGeometry>
        </mxCell>
        <mxCell id="Cv067esEAor_iLYO7rBp-370" style="shape=tableRow;horizontal=0;startSize=0;swimlaneHead=0;swimlaneBody=0;fillColor=none;collapsible=0;dropTarget=0;points=[[0,0.5],[1,0.5]];portConstraint=eastwest;top=0;left=0;right=0;bottom=0;" parent="Cv067esEAor_iLYO7rBp-341" vertex="1">
          <mxGeometry y="179" width="172" height="22" as="geometry" />
        </mxCell>
        <mxCell id="Cv067esEAor_iLYO7rBp-371" value="createdAt" style="shape=partialRectangle;connectable=0;fillColor=none;top=0;left=0;bottom=0;right=0;align=left;spacingLeft=2;overflow=hidden;fontSize=11;" parent="Cv067esEAor_iLYO7rBp-370" vertex="1">
          <mxGeometry width="96" height="22" as="geometry">
            <mxRectangle width="96" height="22" as="alternateBounds" />
          </mxGeometry>
        </mxCell>
        <mxCell id="Cv067esEAor_iLYO7rBp-372" value="timestamp" style="shape=partialRectangle;connectable=0;fillColor=none;top=0;left=0;bottom=0;right=0;align=left;spacingLeft=2;overflow=hidden;fontSize=11;" parent="Cv067esEAor_iLYO7rBp-370" vertex="1">
          <mxGeometry x="96" width="54" height="22" as="geometry">
            <mxRectangle width="54" height="22" as="alternateBounds" />
          </mxGeometry>
        </mxCell>
        <mxCell id="Cv067esEAor_iLYO7rBp-373" value="" style="shape=partialRectangle;connectable=0;fillColor=none;top=0;left=0;bottom=0;right=0;align=left;spacingLeft=2;overflow=hidden;fontSize=11;" parent="Cv067esEAor_iLYO7rBp-370" vertex="1">
          <mxGeometry x="150" width="22" height="22" as="geometry">
            <mxRectangle width="22" height="22" as="alternateBounds" />
          </mxGeometry>
        </mxCell>
        <mxCell id="Cv067esEAor_iLYO7rBp-374" style="shape=tableRow;horizontal=0;startSize=0;swimlaneHead=0;swimlaneBody=0;fillColor=none;collapsible=0;dropTarget=0;points=[[0,0.5],[1,0.5]];portConstraint=eastwest;top=0;left=0;right=0;bottom=0;" parent="Cv067esEAor_iLYO7rBp-341" vertex="1">
          <mxGeometry y="201" width="172" height="22" as="geometry" />
        </mxCell>
        <mxCell id="Cv067esEAor_iLYO7rBp-375" value="updatedAt" style="shape=partialRectangle;connectable=0;fillColor=none;top=0;left=0;bottom=0;right=0;align=left;spacingLeft=2;overflow=hidden;fontSize=11;" parent="Cv067esEAor_iLYO7rBp-374" vertex="1">
          <mxGeometry width="96" height="22" as="geometry">
            <mxRectangle width="96" height="22" as="alternateBounds" />
          </mxGeometry>
        </mxCell>
        <mxCell id="Cv067esEAor_iLYO7rBp-376" value="timestamp" style="shape=partialRectangle;connectable=0;fillColor=none;top=0;left=0;bottom=0;right=0;align=left;spacingLeft=2;overflow=hidden;fontSize=11;" parent="Cv067esEAor_iLYO7rBp-374" vertex="1">
          <mxGeometry x="96" width="54" height="22" as="geometry">
            <mxRectangle width="54" height="22" as="alternateBounds" />
          </mxGeometry>
        </mxCell>
        <mxCell id="Cv067esEAor_iLYO7rBp-377" value="" style="shape=partialRectangle;connectable=0;fillColor=none;top=0;left=0;bottom=0;right=0;align=left;spacingLeft=2;overflow=hidden;fontSize=11;" parent="Cv067esEAor_iLYO7rBp-374" vertex="1">
          <mxGeometry x="150" width="22" height="22" as="geometry">
            <mxRectangle width="22" height="22" as="alternateBounds" />
          </mxGeometry>
        </mxCell>
        <mxCell id="aV815E0Qi508MG-vV4y0-11" value="SIZES" style="shape=table;startSize=25;container=1;collapsible=0;childLayout=tableLayout;fixedRows=1;rowLines=1;fontStyle=1;align=center;resizeLast=1;" parent="1" vertex="1">
          <mxGeometry x="920" y="-794" width="160" height="66" as="geometry" />
        </mxCell>
        <mxCell id="aV815E0Qi508MG-vV4y0-12" style="shape=tableRow;horizontal=0;startSize=0;swimlaneHead=0;swimlaneBody=0;fillColor=none;collapsible=0;dropTarget=0;points=[[0,0.5],[1,0.5]];portConstraint=eastwest;top=0;left=0;right=0;bottom=0;" parent="aV815E0Qi508MG-vV4y0-11" vertex="1">
          <mxGeometry y="25" width="160" height="20" as="geometry" />
        </mxCell>
        <mxCell id="aV815E0Qi508MG-vV4y0-13" value="Size_ID" style="shape=partialRectangle;connectable=0;fillColor=none;top=0;left=0;bottom=0;right=0;align=left;spacingLeft=2;overflow=hidden;fontSize=11;" parent="aV815E0Qi508MG-vV4y0-12" vertex="1">
          <mxGeometry width="80" height="20" as="geometry">
            <mxRectangle width="80" height="20" as="alternateBounds" />
          </mxGeometry>
        </mxCell>
        <mxCell id="aV815E0Qi508MG-vV4y0-14" value="int" style="shape=partialRectangle;connectable=0;fillColor=none;top=0;left=0;bottom=0;right=0;align=left;spacingLeft=2;overflow=hidden;fontSize=11;" parent="aV815E0Qi508MG-vV4y0-12" vertex="1">
          <mxGeometry x="80" width="50" height="20" as="geometry">
            <mxRectangle width="50" height="20" as="alternateBounds" />
          </mxGeometry>
        </mxCell>
        <mxCell id="aV815E0Qi508MG-vV4y0-15" value="PK" style="shape=partialRectangle;connectable=0;fillColor=none;top=0;left=0;bottom=0;right=0;align=left;spacingLeft=2;overflow=hidden;fontSize=11;" parent="aV815E0Qi508MG-vV4y0-12" vertex="1">
          <mxGeometry x="130" width="30" height="20" as="geometry">
            <mxRectangle width="30" height="20" as="alternateBounds" />
          </mxGeometry>
        </mxCell>
        <mxCell id="aV815E0Qi508MG-vV4y0-16" style="shape=tableRow;horizontal=0;startSize=0;swimlaneHead=0;swimlaneBody=0;fillColor=none;collapsible=0;dropTarget=0;points=[[0,0.5],[1,0.5]];portConstraint=eastwest;top=0;left=0;right=0;bottom=0;" parent="aV815E0Qi508MG-vV4y0-11" vertex="1">
          <mxGeometry y="45" width="160" height="21" as="geometry" />
        </mxCell>
        <mxCell id="aV815E0Qi508MG-vV4y0-17" value="SIZE_VALUE" style="shape=partialRectangle;connectable=0;fillColor=none;top=0;left=0;bottom=0;right=0;align=left;spacingLeft=2;overflow=hidden;fontSize=11;" parent="aV815E0Qi508MG-vV4y0-16" vertex="1">
          <mxGeometry width="80" height="21" as="geometry">
            <mxRectangle width="80" height="21" as="alternateBounds" />
          </mxGeometry>
        </mxCell>
        <mxCell id="aV815E0Qi508MG-vV4y0-18" value="varchar" style="shape=partialRectangle;connectable=0;fillColor=none;top=0;left=0;bottom=0;right=0;align=left;spacingLeft=2;overflow=hidden;fontSize=11;" parent="aV815E0Qi508MG-vV4y0-16" vertex="1">
          <mxGeometry x="80" width="50" height="21" as="geometry">
            <mxRectangle width="50" height="21" as="alternateBounds" />
          </mxGeometry>
        </mxCell>
        <mxCell id="aV815E0Qi508MG-vV4y0-19" value="" style="shape=partialRectangle;connectable=0;fillColor=none;top=0;left=0;bottom=0;right=0;align=left;spacingLeft=2;overflow=hidden;fontSize=11;" parent="aV815E0Qi508MG-vV4y0-16" vertex="1">
          <mxGeometry x="130" width="30" height="21" as="geometry">
            <mxRectangle width="30" height="21" as="alternateBounds" />
          </mxGeometry>
        </mxCell>
        <mxCell id="aV815E0Qi508MG-vV4y0-20" value="COLORS" style="shape=table;startSize=25;container=1;collapsible=0;childLayout=tableLayout;fixedRows=1;rowLines=1;fontStyle=1;align=center;resizeLast=1;" parent="1" vertex="1">
          <mxGeometry x="930" y="-670" width="145" height="67" as="geometry" />
        </mxCell>
        <mxCell id="aV815E0Qi508MG-vV4y0-21" style="shape=tableRow;horizontal=0;startSize=0;swimlaneHead=0;swimlaneBody=0;fillColor=none;collapsible=0;dropTarget=0;points=[[0,0.5],[1,0.5]];portConstraint=eastwest;top=0;left=0;right=0;bottom=0;" parent="aV815E0Qi508MG-vV4y0-20" vertex="1">
          <mxGeometry y="25" width="145" height="21" as="geometry" />
        </mxCell>
        <mxCell id="aV815E0Qi508MG-vV4y0-22" value="Color_ID" style="shape=partialRectangle;connectable=0;fillColor=none;top=0;left=0;bottom=0;right=0;align=left;spacingLeft=2;overflow=hidden;fontSize=11;" parent="aV815E0Qi508MG-vV4y0-21" vertex="1">
          <mxGeometry width="66" height="21" as="geometry">
            <mxRectangle width="66" height="21" as="alternateBounds" />
          </mxGeometry>
        </mxCell>
        <mxCell id="aV815E0Qi508MG-vV4y0-23" value="int" style="shape=partialRectangle;connectable=0;fillColor=none;top=0;left=0;bottom=0;right=0;align=left;spacingLeft=2;overflow=hidden;fontSize=11;" parent="aV815E0Qi508MG-vV4y0-21" vertex="1">
          <mxGeometry x="66" width="57" height="21" as="geometry">
            <mxRectangle width="57" height="21" as="alternateBounds" />
          </mxGeometry>
        </mxCell>
        <mxCell id="aV815E0Qi508MG-vV4y0-24" value="PK" style="shape=partialRectangle;connectable=0;fillColor=none;top=0;left=0;bottom=0;right=0;align=left;spacingLeft=2;overflow=hidden;fontSize=11;" parent="aV815E0Qi508MG-vV4y0-21" vertex="1">
          <mxGeometry x="123" width="22" height="21" as="geometry">
            <mxRectangle width="22" height="21" as="alternateBounds" />
          </mxGeometry>
        </mxCell>
        <mxCell id="aV815E0Qi508MG-vV4y0-25" style="shape=tableRow;horizontal=0;startSize=0;swimlaneHead=0;swimlaneBody=0;fillColor=none;collapsible=0;dropTarget=0;points=[[0,0.5],[1,0.5]];portConstraint=eastwest;top=0;left=0;right=0;bottom=0;" parent="aV815E0Qi508MG-vV4y0-20" vertex="1">
          <mxGeometry y="46" width="145" height="21" as="geometry" />
        </mxCell>
        <mxCell id="aV815E0Qi508MG-vV4y0-26" value="COLOR_VALUE" style="shape=partialRectangle;connectable=0;fillColor=none;top=0;left=0;bottom=0;right=0;align=left;spacingLeft=2;overflow=hidden;fontSize=11;" parent="aV815E0Qi508MG-vV4y0-25" vertex="1">
          <mxGeometry width="66" height="21" as="geometry">
            <mxRectangle width="66" height="21" as="alternateBounds" />
          </mxGeometry>
        </mxCell>
        <mxCell id="aV815E0Qi508MG-vV4y0-27" value="varchar" style="shape=partialRectangle;connectable=0;fillColor=none;top=0;left=0;bottom=0;right=0;align=left;spacingLeft=2;overflow=hidden;fontSize=11;" parent="aV815E0Qi508MG-vV4y0-25" vertex="1">
          <mxGeometry x="66" width="57" height="21" as="geometry">
            <mxRectangle width="57" height="21" as="alternateBounds" />
          </mxGeometry>
        </mxCell>
        <mxCell id="aV815E0Qi508MG-vV4y0-28" value="" style="shape=partialRectangle;connectable=0;fillColor=none;top=0;left=0;bottom=0;right=0;align=left;spacingLeft=2;overflow=hidden;fontSize=11;" parent="aV815E0Qi508MG-vV4y0-25" vertex="1">
          <mxGeometry x="123" width="22" height="21" as="geometry">
            <mxRectangle width="22" height="21" as="alternateBounds" />
          </mxGeometry>
        </mxCell>
        <mxCell id="aV815E0Qi508MG-vV4y0-117" style="edgeStyle=orthogonalEdgeStyle;rounded=0;orthogonalLoop=1;jettySize=auto;html=1;entryX=0;entryY=0.5;entryDx=0;entryDy=0;exitX=1.007;exitY=0.318;exitDx=0;exitDy=0;exitPerimeter=0;" parent="1" source="aV815E0Qi508MG-vV4y0-111" target="aV815E0Qi508MG-vV4y0-25" edge="1">
          <mxGeometry relative="1" as="geometry" />
        </mxCell>
        <mxCell id="aV815E0Qi508MG-vV4y0-119" style="edgeStyle=orthogonalEdgeStyle;rounded=0;orthogonalLoop=1;jettySize=auto;html=1;exitX=0.997;exitY=0.285;exitDx=0;exitDy=0;entryX=0.019;entryY=0.292;entryDx=0;entryDy=0;entryPerimeter=0;exitPerimeter=0;" parent="1" source="aV815E0Qi508MG-vV4y0-99" target="aV815E0Qi508MG-vV4y0-12" edge="1">
          <mxGeometry relative="1" as="geometry">
            <mxPoint x="629.9999999999995" y="-880" as="targetPoint" />
          </mxGeometry>
        </mxCell>
        <mxCell id="aV815E0Qi508MG-vV4y0-29" value="PRODUCT_TABLE" style="shape=table;startSize=25;container=1;collapsible=0;childLayout=tableLayout;fixedRows=1;rowLines=1;fontStyle=1;align=center;resizeLast=1;" parent="1" vertex="1">
          <mxGeometry x="410" y="-862" width="184" height="377" as="geometry" />
        </mxCell>
        <mxCell id="aV815E0Qi508MG-vV4y0-30" style="shape=tableRow;horizontal=0;startSize=0;swimlaneHead=0;swimlaneBody=0;fillColor=none;collapsible=0;dropTarget=0;points=[[0,0.5],[1,0.5]];portConstraint=eastwest;top=0;left=0;right=0;bottom=0;" parent="aV815E0Qi508MG-vV4y0-29" vertex="1">
          <mxGeometry y="25" width="184" height="22" as="geometry" />
        </mxCell>
        <mxCell id="aV815E0Qi508MG-vV4y0-31" value="ProductID" style="shape=partialRectangle;connectable=0;fillColor=none;top=0;left=0;bottom=0;right=0;align=left;spacingLeft=2;overflow=hidden;fontSize=11;" parent="aV815E0Qi508MG-vV4y0-30" vertex="1">
          <mxGeometry width="108" height="22" as="geometry">
            <mxRectangle width="108" height="22" as="alternateBounds" />
          </mxGeometry>
        </mxCell>
        <mxCell id="aV815E0Qi508MG-vV4y0-32" value="int" style="shape=partialRectangle;connectable=0;fillColor=none;top=0;left=0;bottom=0;right=0;align=left;spacingLeft=2;overflow=hidden;fontSize=11;" parent="aV815E0Qi508MG-vV4y0-30" vertex="1">
          <mxGeometry x="108" width="54" height="22" as="geometry">
            <mxRectangle width="54" height="22" as="alternateBounds" />
          </mxGeometry>
        </mxCell>
        <mxCell id="aV815E0Qi508MG-vV4y0-33" value="PK" style="shape=partialRectangle;connectable=0;fillColor=none;top=0;left=0;bottom=0;right=0;align=left;spacingLeft=2;overflow=hidden;fontSize=11;" parent="aV815E0Qi508MG-vV4y0-30" vertex="1">
          <mxGeometry x="162" width="22" height="22" as="geometry">
            <mxRectangle width="22" height="22" as="alternateBounds" />
          </mxGeometry>
        </mxCell>
        <mxCell id="aV815E0Qi508MG-vV4y0-34" style="shape=tableRow;horizontal=0;startSize=0;swimlaneHead=0;swimlaneBody=0;fillColor=none;collapsible=0;dropTarget=0;points=[[0,0.5],[1,0.5]];portConstraint=eastwest;top=0;left=0;right=0;bottom=0;" parent="aV815E0Qi508MG-vV4y0-29" vertex="1">
          <mxGeometry y="47" width="184" height="22" as="geometry" />
        </mxCell>
        <mxCell id="aV815E0Qi508MG-vV4y0-35" value="ProductName" style="shape=partialRectangle;connectable=0;fillColor=none;top=0;left=0;bottom=0;right=0;align=left;spacingLeft=2;overflow=hidden;fontSize=11;" parent="aV815E0Qi508MG-vV4y0-34" vertex="1">
          <mxGeometry width="108" height="22" as="geometry">
            <mxRectangle width="108" height="22" as="alternateBounds" />
          </mxGeometry>
        </mxCell>
        <mxCell id="aV815E0Qi508MG-vV4y0-36" value="varchar" style="shape=partialRectangle;connectable=0;fillColor=none;top=0;left=0;bottom=0;right=0;align=left;spacingLeft=2;overflow=hidden;fontSize=11;" parent="aV815E0Qi508MG-vV4y0-34" vertex="1">
          <mxGeometry x="108" width="54" height="22" as="geometry">
            <mxRectangle width="54" height="22" as="alternateBounds" />
          </mxGeometry>
        </mxCell>
        <mxCell id="aV815E0Qi508MG-vV4y0-37" value="" style="shape=partialRectangle;connectable=0;fillColor=none;top=0;left=0;bottom=0;right=0;align=left;spacingLeft=2;overflow=hidden;fontSize=11;" parent="aV815E0Qi508MG-vV4y0-34" vertex="1">
          <mxGeometry x="162" width="22" height="22" as="geometry">
            <mxRectangle width="22" height="22" as="alternateBounds" />
          </mxGeometry>
        </mxCell>
        <mxCell id="aV815E0Qi508MG-vV4y0-38" style="shape=tableRow;horizontal=0;startSize=0;swimlaneHead=0;swimlaneBody=0;fillColor=none;collapsible=0;dropTarget=0;points=[[0,0.5],[1,0.5]];portConstraint=eastwest;top=0;left=0;right=0;bottom=0;" parent="aV815E0Qi508MG-vV4y0-29" vertex="1">
          <mxGeometry y="69" width="184" height="22" as="geometry" />
        </mxCell>
        <mxCell id="aV815E0Qi508MG-vV4y0-39" value="ProductDescription" style="shape=partialRectangle;connectable=0;fillColor=none;top=0;left=0;bottom=0;right=0;align=left;spacingLeft=2;overflow=hidden;fontSize=11;" parent="aV815E0Qi508MG-vV4y0-38" vertex="1">
          <mxGeometry width="108" height="22" as="geometry">
            <mxRectangle width="108" height="22" as="alternateBounds" />
          </mxGeometry>
        </mxCell>
        <mxCell id="aV815E0Qi508MG-vV4y0-40" value="text" style="shape=partialRectangle;connectable=0;fillColor=none;top=0;left=0;bottom=0;right=0;align=left;spacingLeft=2;overflow=hidden;fontSize=11;" parent="aV815E0Qi508MG-vV4y0-38" vertex="1">
          <mxGeometry x="108" width="54" height="22" as="geometry">
            <mxRectangle width="54" height="22" as="alternateBounds" />
          </mxGeometry>
        </mxCell>
        <mxCell id="aV815E0Qi508MG-vV4y0-41" value="" style="shape=partialRectangle;connectable=0;fillColor=none;top=0;left=0;bottom=0;right=0;align=left;spacingLeft=2;overflow=hidden;fontSize=11;" parent="aV815E0Qi508MG-vV4y0-38" vertex="1">
          <mxGeometry x="162" width="22" height="22" as="geometry">
            <mxRectangle width="22" height="22" as="alternateBounds" />
          </mxGeometry>
        </mxCell>
        <mxCell id="aV815E0Qi508MG-vV4y0-42" style="shape=tableRow;horizontal=0;startSize=0;swimlaneHead=0;swimlaneBody=0;fillColor=none;collapsible=0;dropTarget=0;points=[[0,0.5],[1,0.5]];portConstraint=eastwest;top=0;left=0;right=0;bottom=0;" parent="aV815E0Qi508MG-vV4y0-29" vertex="1">
          <mxGeometry y="91" width="184" height="22" as="geometry" />
        </mxCell>
        <mxCell id="aV815E0Qi508MG-vV4y0-43" value="UnitPrice" style="shape=partialRectangle;connectable=0;fillColor=none;top=0;left=0;bottom=0;right=0;align=left;spacingLeft=2;overflow=hidden;fontSize=11;" parent="aV815E0Qi508MG-vV4y0-42" vertex="1">
          <mxGeometry width="108" height="22" as="geometry">
            <mxRectangle width="108" height="22" as="alternateBounds" />
          </mxGeometry>
        </mxCell>
        <mxCell id="aV815E0Qi508MG-vV4y0-44" value="decimal" style="shape=partialRectangle;connectable=0;fillColor=none;top=0;left=0;bottom=0;right=0;align=left;spacingLeft=2;overflow=hidden;fontSize=11;" parent="aV815E0Qi508MG-vV4y0-42" vertex="1">
          <mxGeometry x="108" width="54" height="22" as="geometry">
            <mxRectangle width="54" height="22" as="alternateBounds" />
          </mxGeometry>
        </mxCell>
        <mxCell id="aV815E0Qi508MG-vV4y0-45" value="" style="shape=partialRectangle;connectable=0;fillColor=none;top=0;left=0;bottom=0;right=0;align=left;spacingLeft=2;overflow=hidden;fontSize=11;" parent="aV815E0Qi508MG-vV4y0-42" vertex="1">
          <mxGeometry x="162" width="22" height="22" as="geometry">
            <mxRectangle width="22" height="22" as="alternateBounds" />
          </mxGeometry>
        </mxCell>
        <mxCell id="aV815E0Qi508MG-vV4y0-46" style="shape=tableRow;horizontal=0;startSize=0;swimlaneHead=0;swimlaneBody=0;fillColor=none;collapsible=0;dropTarget=0;points=[[0,0.5],[1,0.5]];portConstraint=eastwest;top=0;left=0;right=0;bottom=0;" parent="aV815E0Qi508MG-vV4y0-29" vertex="1">
          <mxGeometry y="113" width="184" height="22" as="geometry" />
        </mxCell>
        <mxCell id="aV815E0Qi508MG-vV4y0-47" value="DateAdded" style="shape=partialRectangle;connectable=0;fillColor=none;top=0;left=0;bottom=0;right=0;align=left;spacingLeft=2;overflow=hidden;fontSize=11;" parent="aV815E0Qi508MG-vV4y0-46" vertex="1">
          <mxGeometry width="108" height="22" as="geometry">
            <mxRectangle width="108" height="22" as="alternateBounds" />
          </mxGeometry>
        </mxCell>
        <mxCell id="aV815E0Qi508MG-vV4y0-48" value="date" style="shape=partialRectangle;connectable=0;fillColor=none;top=0;left=0;bottom=0;right=0;align=left;spacingLeft=2;overflow=hidden;fontSize=11;" parent="aV815E0Qi508MG-vV4y0-46" vertex="1">
          <mxGeometry x="108" width="54" height="22" as="geometry">
            <mxRectangle width="54" height="22" as="alternateBounds" />
          </mxGeometry>
        </mxCell>
        <mxCell id="aV815E0Qi508MG-vV4y0-49" value="" style="shape=partialRectangle;connectable=0;fillColor=none;top=0;left=0;bottom=0;right=0;align=left;spacingLeft=2;overflow=hidden;fontSize=11;" parent="aV815E0Qi508MG-vV4y0-46" vertex="1">
          <mxGeometry x="162" width="22" height="22" as="geometry">
            <mxRectangle width="22" height="22" as="alternateBounds" />
          </mxGeometry>
        </mxCell>
        <mxCell id="aV815E0Qi508MG-vV4y0-50" style="shape=tableRow;horizontal=0;startSize=0;swimlaneHead=0;swimlaneBody=0;fillColor=none;collapsible=0;dropTarget=0;points=[[0,0.5],[1,0.5]];portConstraint=eastwest;top=0;left=0;right=0;bottom=0;" parent="aV815E0Qi508MG-vV4y0-29" vertex="1">
          <mxGeometry y="135" width="184" height="22" as="geometry" />
        </mxCell>
        <mxCell id="aV815E0Qi508MG-vV4y0-51" value="ShippingWeight" style="shape=partialRectangle;connectable=0;fillColor=none;top=0;left=0;bottom=0;right=0;align=left;spacingLeft=2;overflow=hidden;fontSize=11;" parent="aV815E0Qi508MG-vV4y0-50" vertex="1">
          <mxGeometry width="108" height="22" as="geometry">
            <mxRectangle width="108" height="22" as="alternateBounds" />
          </mxGeometry>
        </mxCell>
        <mxCell id="aV815E0Qi508MG-vV4y0-52" value="decimal" style="shape=partialRectangle;connectable=0;fillColor=none;top=0;left=0;bottom=0;right=0;align=left;spacingLeft=2;overflow=hidden;fontSize=11;" parent="aV815E0Qi508MG-vV4y0-50" vertex="1">
          <mxGeometry x="108" width="54" height="22" as="geometry">
            <mxRectangle width="54" height="22" as="alternateBounds" />
          </mxGeometry>
        </mxCell>
        <mxCell id="aV815E0Qi508MG-vV4y0-53" value="" style="shape=partialRectangle;connectable=0;fillColor=none;top=0;left=0;bottom=0;right=0;align=left;spacingLeft=2;overflow=hidden;fontSize=11;" parent="aV815E0Qi508MG-vV4y0-50" vertex="1">
          <mxGeometry x="162" width="22" height="22" as="geometry">
            <mxRectangle width="22" height="22" as="alternateBounds" />
          </mxGeometry>
        </mxCell>
        <mxCell id="aV815E0Qi508MG-vV4y0-54" style="shape=tableRow;horizontal=0;startSize=0;swimlaneHead=0;swimlaneBody=0;fillColor=none;collapsible=0;dropTarget=0;points=[[0,0.5],[1,0.5]];portConstraint=eastwest;top=0;left=0;right=0;bottom=0;" parent="aV815E0Qi508MG-vV4y0-29" vertex="1">
          <mxGeometry y="157" width="184" height="22" as="geometry" />
        </mxCell>
        <mxCell id="aV815E0Qi508MG-vV4y0-55" value="Category1" style="shape=partialRectangle;connectable=0;fillColor=none;top=0;left=0;bottom=0;right=0;align=left;spacingLeft=2;overflow=hidden;fontSize=11;" parent="aV815E0Qi508MG-vV4y0-54" vertex="1">
          <mxGeometry width="108" height="22" as="geometry">
            <mxRectangle width="108" height="22" as="alternateBounds" />
          </mxGeometry>
        </mxCell>
        <mxCell id="aV815E0Qi508MG-vV4y0-56" value="varchar" style="shape=partialRectangle;connectable=0;fillColor=none;top=0;left=0;bottom=0;right=0;align=left;spacingLeft=2;overflow=hidden;fontSize=11;" parent="aV815E0Qi508MG-vV4y0-54" vertex="1">
          <mxGeometry x="108" width="54" height="22" as="geometry">
            <mxRectangle width="54" height="22" as="alternateBounds" />
          </mxGeometry>
        </mxCell>
        <mxCell id="aV815E0Qi508MG-vV4y0-57" value="" style="shape=partialRectangle;connectable=0;fillColor=none;top=0;left=0;bottom=0;right=0;align=left;spacingLeft=2;overflow=hidden;fontSize=11;" parent="aV815E0Qi508MG-vV4y0-54" vertex="1">
          <mxGeometry x="162" width="22" height="22" as="geometry">
            <mxRectangle width="22" height="22" as="alternateBounds" />
          </mxGeometry>
        </mxCell>
        <mxCell id="aV815E0Qi508MG-vV4y0-58" style="shape=tableRow;horizontal=0;startSize=0;swimlaneHead=0;swimlaneBody=0;fillColor=none;collapsible=0;dropTarget=0;points=[[0,0.5],[1,0.5]];portConstraint=eastwest;top=0;left=0;right=0;bottom=0;" parent="aV815E0Qi508MG-vV4y0-29" vertex="1">
          <mxGeometry y="179" width="184" height="22" as="geometry" />
        </mxCell>
        <mxCell id="aV815E0Qi508MG-vV4y0-59" value="Category2" style="shape=partialRectangle;connectable=0;fillColor=none;top=0;left=0;bottom=0;right=0;align=left;spacingLeft=2;overflow=hidden;fontSize=11;" parent="aV815E0Qi508MG-vV4y0-58" vertex="1">
          <mxGeometry width="108" height="22" as="geometry">
            <mxRectangle width="108" height="22" as="alternateBounds" />
          </mxGeometry>
        </mxCell>
        <mxCell id="aV815E0Qi508MG-vV4y0-60" value="varchar" style="shape=partialRectangle;connectable=0;fillColor=none;top=0;left=0;bottom=0;right=0;align=left;spacingLeft=2;overflow=hidden;fontSize=11;" parent="aV815E0Qi508MG-vV4y0-58" vertex="1">
          <mxGeometry x="108" width="54" height="22" as="geometry">
            <mxRectangle width="54" height="22" as="alternateBounds" />
          </mxGeometry>
        </mxCell>
        <mxCell id="aV815E0Qi508MG-vV4y0-61" value="" style="shape=partialRectangle;connectable=0;fillColor=none;top=0;left=0;bottom=0;right=0;align=left;spacingLeft=2;overflow=hidden;fontSize=11;" parent="aV815E0Qi508MG-vV4y0-58" vertex="1">
          <mxGeometry x="162" width="22" height="22" as="geometry">
            <mxRectangle width="22" height="22" as="alternateBounds" />
          </mxGeometry>
        </mxCell>
        <mxCell id="aV815E0Qi508MG-vV4y0-62" style="shape=tableRow;horizontal=0;startSize=0;swimlaneHead=0;swimlaneBody=0;fillColor=none;collapsible=0;dropTarget=0;points=[[0,0.5],[1,0.5]];portConstraint=eastwest;top=0;left=0;right=0;bottom=0;" parent="aV815E0Qi508MG-vV4y0-29" vertex="1">
          <mxGeometry y="201" width="184" height="22" as="geometry" />
        </mxCell>
        <mxCell id="aV815E0Qi508MG-vV4y0-63" value="Category3" style="shape=partialRectangle;connectable=0;fillColor=none;top=0;left=0;bottom=0;right=0;align=left;spacingLeft=2;overflow=hidden;fontSize=11;" parent="aV815E0Qi508MG-vV4y0-62" vertex="1">
          <mxGeometry width="108" height="22" as="geometry">
            <mxRectangle width="108" height="22" as="alternateBounds" />
          </mxGeometry>
        </mxCell>
        <mxCell id="aV815E0Qi508MG-vV4y0-64" value="varchar" style="shape=partialRectangle;connectable=0;fillColor=none;top=0;left=0;bottom=0;right=0;align=left;spacingLeft=2;overflow=hidden;fontSize=11;" parent="aV815E0Qi508MG-vV4y0-62" vertex="1">
          <mxGeometry x="108" width="54" height="22" as="geometry">
            <mxRectangle width="54" height="22" as="alternateBounds" />
          </mxGeometry>
        </mxCell>
        <mxCell id="aV815E0Qi508MG-vV4y0-65" value="" style="shape=partialRectangle;connectable=0;fillColor=none;top=0;left=0;bottom=0;right=0;align=left;spacingLeft=2;overflow=hidden;fontSize=11;" parent="aV815E0Qi508MG-vV4y0-62" vertex="1">
          <mxGeometry x="162" width="22" height="22" as="geometry">
            <mxRectangle width="22" height="22" as="alternateBounds" />
          </mxGeometry>
        </mxCell>
        <mxCell id="aV815E0Qi508MG-vV4y0-66" style="shape=tableRow;horizontal=0;startSize=0;swimlaneHead=0;swimlaneBody=0;fillColor=none;collapsible=0;dropTarget=0;points=[[0,0.5],[1,0.5]];portConstraint=eastwest;top=0;left=0;right=0;bottom=0;" parent="aV815E0Qi508MG-vV4y0-29" vertex="1">
          <mxGeometry y="223" width="184" height="22" as="geometry" />
        </mxCell>
        <mxCell id="aV815E0Qi508MG-vV4y0-67" value="Material" style="shape=partialRectangle;connectable=0;fillColor=none;top=0;left=0;bottom=0;right=0;align=left;spacingLeft=2;overflow=hidden;fontSize=11;" parent="aV815E0Qi508MG-vV4y0-66" vertex="1">
          <mxGeometry width="108" height="22" as="geometry">
            <mxRectangle width="108" height="22" as="alternateBounds" />
          </mxGeometry>
        </mxCell>
        <mxCell id="aV815E0Qi508MG-vV4y0-68" value="varchar" style="shape=partialRectangle;connectable=0;fillColor=none;top=0;left=0;bottom=0;right=0;align=left;spacingLeft=2;overflow=hidden;fontSize=11;" parent="aV815E0Qi508MG-vV4y0-66" vertex="1">
          <mxGeometry x="108" width="54" height="22" as="geometry">
            <mxRectangle width="54" height="22" as="alternateBounds" />
          </mxGeometry>
        </mxCell>
        <mxCell id="aV815E0Qi508MG-vV4y0-69" value="" style="shape=partialRectangle;connectable=0;fillColor=none;top=0;left=0;bottom=0;right=0;align=left;spacingLeft=2;overflow=hidden;fontSize=11;" parent="aV815E0Qi508MG-vV4y0-66" vertex="1">
          <mxGeometry x="162" width="22" height="22" as="geometry">
            <mxRectangle width="22" height="22" as="alternateBounds" />
          </mxGeometry>
        </mxCell>
        <mxCell id="aV815E0Qi508MG-vV4y0-70" style="shape=tableRow;horizontal=0;startSize=0;swimlaneHead=0;swimlaneBody=0;fillColor=none;collapsible=0;dropTarget=0;points=[[0,0.5],[1,0.5]];portConstraint=eastwest;top=0;left=0;right=0;bottom=0;" parent="aV815E0Qi508MG-vV4y0-29" vertex="1">
          <mxGeometry y="245" width="184" height="22" as="geometry" />
        </mxCell>
        <mxCell id="aV815E0Qi508MG-vV4y0-71" value="FabricType" style="shape=partialRectangle;connectable=0;fillColor=none;top=0;left=0;bottom=0;right=0;align=left;spacingLeft=2;overflow=hidden;fontSize=11;" parent="aV815E0Qi508MG-vV4y0-70" vertex="1">
          <mxGeometry width="108" height="22" as="geometry">
            <mxRectangle width="108" height="22" as="alternateBounds" />
          </mxGeometry>
        </mxCell>
        <mxCell id="aV815E0Qi508MG-vV4y0-72" value="varchar" style="shape=partialRectangle;connectable=0;fillColor=none;top=0;left=0;bottom=0;right=0;align=left;spacingLeft=2;overflow=hidden;fontSize=11;" parent="aV815E0Qi508MG-vV4y0-70" vertex="1">
          <mxGeometry x="108" width="54" height="22" as="geometry">
            <mxRectangle width="54" height="22" as="alternateBounds" />
          </mxGeometry>
        </mxCell>
        <mxCell id="aV815E0Qi508MG-vV4y0-73" value="" style="shape=partialRectangle;connectable=0;fillColor=none;top=0;left=0;bottom=0;right=0;align=left;spacingLeft=2;overflow=hidden;fontSize=11;" parent="aV815E0Qi508MG-vV4y0-70" vertex="1">
          <mxGeometry x="162" width="22" height="22" as="geometry">
            <mxRectangle width="22" height="22" as="alternateBounds" />
          </mxGeometry>
        </mxCell>
        <mxCell id="aV815E0Qi508MG-vV4y0-74" style="shape=tableRow;horizontal=0;startSize=0;swimlaneHead=0;swimlaneBody=0;fillColor=none;collapsible=0;dropTarget=0;points=[[0,0.5],[1,0.5]];portConstraint=eastwest;top=0;left=0;right=0;bottom=0;" parent="aV815E0Qi508MG-vV4y0-29" vertex="1">
          <mxGeometry y="267" width="184" height="22" as="geometry" />
        </mxCell>
        <mxCell id="aV815E0Qi508MG-vV4y0-75" value="ReturnPolicy" style="shape=partialRectangle;connectable=0;fillColor=none;top=0;left=0;bottom=0;right=0;align=left;spacingLeft=2;overflow=hidden;fontSize=11;" parent="aV815E0Qi508MG-vV4y0-74" vertex="1">
          <mxGeometry width="108" height="22" as="geometry">
            <mxRectangle width="108" height="22" as="alternateBounds" />
          </mxGeometry>
        </mxCell>
        <mxCell id="aV815E0Qi508MG-vV4y0-76" value="varchar" style="shape=partialRectangle;connectable=0;fillColor=none;top=0;left=0;bottom=0;right=0;align=left;spacingLeft=2;overflow=hidden;fontSize=11;" parent="aV815E0Qi508MG-vV4y0-74" vertex="1">
          <mxGeometry x="108" width="54" height="22" as="geometry">
            <mxRectangle width="54" height="22" as="alternateBounds" />
          </mxGeometry>
        </mxCell>
        <mxCell id="aV815E0Qi508MG-vV4y0-77" value="" style="shape=partialRectangle;connectable=0;fillColor=none;top=0;left=0;bottom=0;right=0;align=left;spacingLeft=2;overflow=hidden;fontSize=11;" parent="aV815E0Qi508MG-vV4y0-74" vertex="1">
          <mxGeometry x="162" width="22" height="22" as="geometry">
            <mxRectangle width="22" height="22" as="alternateBounds" />
          </mxGeometry>
        </mxCell>
        <mxCell id="aV815E0Qi508MG-vV4y0-78" style="shape=tableRow;horizontal=0;startSize=0;swimlaneHead=0;swimlaneBody=0;fillColor=none;collapsible=0;dropTarget=0;points=[[0,0.5],[1,0.5]];portConstraint=eastwest;top=0;left=0;right=0;bottom=0;" parent="aV815E0Qi508MG-vV4y0-29" vertex="1">
          <mxGeometry y="289" width="184" height="22" as="geometry" />
        </mxCell>
        <mxCell id="aV815E0Qi508MG-vV4y0-79" value="WishlistCount" style="shape=partialRectangle;connectable=0;fillColor=none;top=0;left=0;bottom=0;right=0;align=left;spacingLeft=2;overflow=hidden;fontSize=11;" parent="aV815E0Qi508MG-vV4y0-78" vertex="1">
          <mxGeometry width="108" height="22" as="geometry">
            <mxRectangle width="108" height="22" as="alternateBounds" />
          </mxGeometry>
        </mxCell>
        <mxCell id="aV815E0Qi508MG-vV4y0-80" value="int" style="shape=partialRectangle;connectable=0;fillColor=none;top=0;left=0;bottom=0;right=0;align=left;spacingLeft=2;overflow=hidden;fontSize=11;" parent="aV815E0Qi508MG-vV4y0-78" vertex="1">
          <mxGeometry x="108" width="54" height="22" as="geometry">
            <mxRectangle width="54" height="22" as="alternateBounds" />
          </mxGeometry>
        </mxCell>
        <mxCell id="aV815E0Qi508MG-vV4y0-81" value="" style="shape=partialRectangle;connectable=0;fillColor=none;top=0;left=0;bottom=0;right=0;align=left;spacingLeft=2;overflow=hidden;fontSize=11;" parent="aV815E0Qi508MG-vV4y0-78" vertex="1">
          <mxGeometry x="162" width="22" height="22" as="geometry">
            <mxRectangle width="22" height="22" as="alternateBounds" />
          </mxGeometry>
        </mxCell>
        <mxCell id="aV815E0Qi508MG-vV4y0-82" style="shape=tableRow;horizontal=0;startSize=0;swimlaneHead=0;swimlaneBody=0;fillColor=none;collapsible=0;dropTarget=0;points=[[0,0.5],[1,0.5]];portConstraint=eastwest;top=0;left=0;right=0;bottom=0;" parent="aV815E0Qi508MG-vV4y0-29" vertex="1">
          <mxGeometry y="311" width="184" height="22" as="geometry" />
        </mxCell>
        <mxCell id="aV815E0Qi508MG-vV4y0-83" value="FinalRating" style="shape=partialRectangle;connectable=0;fillColor=none;top=0;left=0;bottom=0;right=0;align=left;spacingLeft=2;overflow=hidden;fontSize=11;" parent="aV815E0Qi508MG-vV4y0-82" vertex="1">
          <mxGeometry width="108" height="22" as="geometry">
            <mxRectangle width="108" height="22" as="alternateBounds" />
          </mxGeometry>
        </mxCell>
        <mxCell id="aV815E0Qi508MG-vV4y0-84" value="decimal" style="shape=partialRectangle;connectable=0;fillColor=none;top=0;left=0;bottom=0;right=0;align=left;spacingLeft=2;overflow=hidden;fontSize=11;" parent="aV815E0Qi508MG-vV4y0-82" vertex="1">
          <mxGeometry x="108" width="54" height="22" as="geometry">
            <mxRectangle width="54" height="22" as="alternateBounds" />
          </mxGeometry>
        </mxCell>
        <mxCell id="aV815E0Qi508MG-vV4y0-85" value="" style="shape=partialRectangle;connectable=0;fillColor=none;top=0;left=0;bottom=0;right=0;align=left;spacingLeft=2;overflow=hidden;fontSize=11;" parent="aV815E0Qi508MG-vV4y0-82" vertex="1">
          <mxGeometry x="162" width="22" height="22" as="geometry">
            <mxRectangle width="22" height="22" as="alternateBounds" />
          </mxGeometry>
        </mxCell>
        <mxCell id="aV815E0Qi508MG-vV4y0-86" style="shape=tableRow;horizontal=0;startSize=0;swimlaneHead=0;swimlaneBody=0;fillColor=none;collapsible=0;dropTarget=0;points=[[0,0.5],[1,0.5]];portConstraint=eastwest;top=0;left=0;right=0;bottom=0;" parent="aV815E0Qi508MG-vV4y0-29" vertex="1">
          <mxGeometry y="333" width="184" height="22" as="geometry" />
        </mxCell>
        <mxCell id="aV815E0Qi508MG-vV4y0-87" value="createdAt" style="shape=partialRectangle;connectable=0;fillColor=none;top=0;left=0;bottom=0;right=0;align=left;spacingLeft=2;overflow=hidden;fontSize=11;" parent="aV815E0Qi508MG-vV4y0-86" vertex="1">
          <mxGeometry width="108" height="22" as="geometry">
            <mxRectangle width="108" height="22" as="alternateBounds" />
          </mxGeometry>
        </mxCell>
        <mxCell id="aV815E0Qi508MG-vV4y0-88" value="timestamp" style="shape=partialRectangle;connectable=0;fillColor=none;top=0;left=0;bottom=0;right=0;align=left;spacingLeft=2;overflow=hidden;fontSize=11;" parent="aV815E0Qi508MG-vV4y0-86" vertex="1">
          <mxGeometry x="108" width="54" height="22" as="geometry">
            <mxRectangle width="54" height="22" as="alternateBounds" />
          </mxGeometry>
        </mxCell>
        <mxCell id="aV815E0Qi508MG-vV4y0-89" value="" style="shape=partialRectangle;connectable=0;fillColor=none;top=0;left=0;bottom=0;right=0;align=left;spacingLeft=2;overflow=hidden;fontSize=11;" parent="aV815E0Qi508MG-vV4y0-86" vertex="1">
          <mxGeometry x="162" width="22" height="22" as="geometry">
            <mxRectangle width="22" height="22" as="alternateBounds" />
          </mxGeometry>
        </mxCell>
        <mxCell id="aV815E0Qi508MG-vV4y0-90" style="shape=tableRow;horizontal=0;startSize=0;swimlaneHead=0;swimlaneBody=0;fillColor=none;collapsible=0;dropTarget=0;points=[[0,0.5],[1,0.5]];portConstraint=eastwest;top=0;left=0;right=0;bottom=0;" parent="aV815E0Qi508MG-vV4y0-29" vertex="1">
          <mxGeometry y="355" width="184" height="22" as="geometry" />
        </mxCell>
        <mxCell id="aV815E0Qi508MG-vV4y0-91" value="updatedAt" style="shape=partialRectangle;connectable=0;fillColor=none;top=0;left=0;bottom=0;right=0;align=left;spacingLeft=2;overflow=hidden;fontSize=11;" parent="aV815E0Qi508MG-vV4y0-90" vertex="1">
          <mxGeometry width="108" height="22" as="geometry">
            <mxRectangle width="108" height="22" as="alternateBounds" />
          </mxGeometry>
        </mxCell>
        <mxCell id="aV815E0Qi508MG-vV4y0-92" value="timestamp" style="shape=partialRectangle;connectable=0;fillColor=none;top=0;left=0;bottom=0;right=0;align=left;spacingLeft=2;overflow=hidden;fontSize=11;" parent="aV815E0Qi508MG-vV4y0-90" vertex="1">
          <mxGeometry x="108" width="54" height="22" as="geometry">
            <mxRectangle width="54" height="22" as="alternateBounds" />
          </mxGeometry>
        </mxCell>
        <mxCell id="aV815E0Qi508MG-vV4y0-93" value="" style="shape=partialRectangle;connectable=0;fillColor=none;top=0;left=0;bottom=0;right=0;align=left;spacingLeft=2;overflow=hidden;fontSize=11;" parent="aV815E0Qi508MG-vV4y0-90" vertex="1">
          <mxGeometry x="162" width="22" height="22" as="geometry">
            <mxRectangle width="22" height="22" as="alternateBounds" />
          </mxGeometry>
        </mxCell>
        <mxCell id="aV815E0Qi508MG-vV4y0-94" value="PRODUCT_VARIATIONS" style="shape=table;startSize=25;container=1;collapsible=0;childLayout=tableLayout;fixedRows=1;rowLines=1;fontStyle=1;align=center;resizeLast=1;" parent="1" vertex="1">
          <mxGeometry x="698" y="-760" width="149" height="135" as="geometry" />
        </mxCell>
        <mxCell id="aV815E0Qi508MG-vV4y0-95" style="shape=tableRow;horizontal=0;startSize=0;swimlaneHead=0;swimlaneBody=0;fillColor=none;collapsible=0;dropTarget=0;points=[[0,0.5],[1,0.5]];portConstraint=eastwest;top=0;left=0;right=0;bottom=0;" parent="aV815E0Qi508MG-vV4y0-94" vertex="1">
          <mxGeometry y="25" width="149" height="22" as="geometry" />
        </mxCell>
        <mxCell id="aV815E0Qi508MG-vV4y0-96" value="VariationID" style="shape=partialRectangle;connectable=0;fillColor=none;top=0;left=0;bottom=0;right=0;align=left;spacingLeft=2;overflow=hidden;fontSize=11;" parent="aV815E0Qi508MG-vV4y0-95" vertex="1">
          <mxGeometry width="66" height="22" as="geometry">
            <mxRectangle width="66" height="22" as="alternateBounds" />
          </mxGeometry>
        </mxCell>
        <mxCell id="aV815E0Qi508MG-vV4y0-97" value="int" style="shape=partialRectangle;connectable=0;fillColor=none;top=0;left=0;bottom=0;right=0;align=left;spacingLeft=2;overflow=hidden;fontSize=11;" parent="aV815E0Qi508MG-vV4y0-95" vertex="1">
          <mxGeometry x="66" width="61" height="22" as="geometry">
            <mxRectangle width="61" height="22" as="alternateBounds" />
          </mxGeometry>
        </mxCell>
        <mxCell id="aV815E0Qi508MG-vV4y0-98" value="PK" style="shape=partialRectangle;connectable=0;fillColor=none;top=0;left=0;bottom=0;right=0;align=left;spacingLeft=2;overflow=hidden;fontSize=11;" parent="aV815E0Qi508MG-vV4y0-95" vertex="1">
          <mxGeometry x="127" width="22" height="22" as="geometry">
            <mxRectangle width="22" height="22" as="alternateBounds" />
          </mxGeometry>
        </mxCell>
        <mxCell id="aV815E0Qi508MG-vV4y0-99" style="shape=tableRow;horizontal=0;startSize=0;swimlaneHead=0;swimlaneBody=0;fillColor=none;collapsible=0;dropTarget=0;points=[[0,0.5],[1,0.5]];portConstraint=eastwest;top=0;left=0;right=0;bottom=0;" parent="aV815E0Qi508MG-vV4y0-94" vertex="1">
          <mxGeometry y="47" width="149" height="22" as="geometry" />
        </mxCell>
        <mxCell id="aV815E0Qi508MG-vV4y0-100" value="ProductID" style="shape=partialRectangle;connectable=0;fillColor=none;top=0;left=0;bottom=0;right=0;align=left;spacingLeft=2;overflow=hidden;fontSize=11;" parent="aV815E0Qi508MG-vV4y0-99" vertex="1">
          <mxGeometry width="66" height="22" as="geometry">
            <mxRectangle width="66" height="22" as="alternateBounds" />
          </mxGeometry>
        </mxCell>
        <mxCell id="aV815E0Qi508MG-vV4y0-101" value="varchar" style="shape=partialRectangle;connectable=0;fillColor=none;top=0;left=0;bottom=0;right=0;align=left;spacingLeft=2;overflow=hidden;fontSize=11;" parent="aV815E0Qi508MG-vV4y0-99" vertex="1">
          <mxGeometry x="66" width="61" height="22" as="geometry">
            <mxRectangle width="61" height="22" as="alternateBounds" />
          </mxGeometry>
        </mxCell>
        <mxCell id="aV815E0Qi508MG-vV4y0-102" value="FK" style="shape=partialRectangle;connectable=0;fillColor=none;top=0;left=0;bottom=0;right=0;align=left;spacingLeft=2;overflow=hidden;fontSize=11;" parent="aV815E0Qi508MG-vV4y0-99" vertex="1">
          <mxGeometry x="127" width="22" height="22" as="geometry">
            <mxRectangle width="22" height="22" as="alternateBounds" />
          </mxGeometry>
        </mxCell>
        <mxCell id="aV815E0Qi508MG-vV4y0-103" style="shape=tableRow;horizontal=0;startSize=0;swimlaneHead=0;swimlaneBody=0;fillColor=none;collapsible=0;dropTarget=0;points=[[0,0.5],[1,0.5]];portConstraint=eastwest;top=0;left=0;right=0;bottom=0;" parent="aV815E0Qi508MG-vV4y0-94" vertex="1">
          <mxGeometry y="69" width="149" height="22" as="geometry" />
        </mxCell>
        <mxCell id="aV815E0Qi508MG-vV4y0-104" value="SizeID" style="shape=partialRectangle;connectable=0;fillColor=none;top=0;left=0;bottom=0;right=0;align=left;spacingLeft=2;overflow=hidden;fontSize=11;" parent="aV815E0Qi508MG-vV4y0-103" vertex="1">
          <mxGeometry width="66" height="22" as="geometry">
            <mxRectangle width="66" height="22" as="alternateBounds" />
          </mxGeometry>
        </mxCell>
        <mxCell id="aV815E0Qi508MG-vV4y0-105" value="int" style="shape=partialRectangle;connectable=0;fillColor=none;top=0;left=0;bottom=0;right=0;align=left;spacingLeft=2;overflow=hidden;fontSize=11;" parent="aV815E0Qi508MG-vV4y0-103" vertex="1">
          <mxGeometry x="66" width="61" height="22" as="geometry">
            <mxRectangle width="61" height="22" as="alternateBounds" />
          </mxGeometry>
        </mxCell>
        <mxCell id="aV815E0Qi508MG-vV4y0-106" value="FK" style="shape=partialRectangle;connectable=0;fillColor=none;top=0;left=0;bottom=0;right=0;align=left;spacingLeft=2;overflow=hidden;fontSize=11;" parent="aV815E0Qi508MG-vV4y0-103" vertex="1">
          <mxGeometry x="127" width="22" height="22" as="geometry">
            <mxRectangle width="22" height="22" as="alternateBounds" />
          </mxGeometry>
        </mxCell>
        <mxCell id="aV815E0Qi508MG-vV4y0-107" style="shape=tableRow;horizontal=0;startSize=0;swimlaneHead=0;swimlaneBody=0;fillColor=none;collapsible=0;dropTarget=0;points=[[0,0.5],[1,0.5]];portConstraint=eastwest;top=0;left=0;right=0;bottom=0;" parent="aV815E0Qi508MG-vV4y0-94" vertex="1">
          <mxGeometry y="91" width="149" height="22" as="geometry" />
        </mxCell>
        <mxCell id="aV815E0Qi508MG-vV4y0-108" value="ColorID" style="shape=partialRectangle;connectable=0;fillColor=none;top=0;left=0;bottom=0;right=0;align=left;spacingLeft=2;overflow=hidden;fontSize=11;" parent="aV815E0Qi508MG-vV4y0-107" vertex="1">
          <mxGeometry width="66" height="22" as="geometry">
            <mxRectangle width="66" height="22" as="alternateBounds" />
          </mxGeometry>
        </mxCell>
        <mxCell id="aV815E0Qi508MG-vV4y0-109" value="int" style="shape=partialRectangle;connectable=0;fillColor=none;top=0;left=0;bottom=0;right=0;align=left;spacingLeft=2;overflow=hidden;fontSize=11;" parent="aV815E0Qi508MG-vV4y0-107" vertex="1">
          <mxGeometry x="66" width="61" height="22" as="geometry">
            <mxRectangle width="61" height="22" as="alternateBounds" />
          </mxGeometry>
        </mxCell>
        <mxCell id="aV815E0Qi508MG-vV4y0-110" value="FK" style="shape=partialRectangle;connectable=0;fillColor=none;top=0;left=0;bottom=0;right=0;align=left;spacingLeft=2;overflow=hidden;fontSize=11;" parent="aV815E0Qi508MG-vV4y0-107" vertex="1">
          <mxGeometry x="127" width="22" height="22" as="geometry">
            <mxRectangle width="22" height="22" as="alternateBounds" />
          </mxGeometry>
        </mxCell>
        <mxCell id="aV815E0Qi508MG-vV4y0-111" style="shape=tableRow;horizontal=0;startSize=0;swimlaneHead=0;swimlaneBody=0;fillColor=none;collapsible=0;dropTarget=0;points=[[0,0.5],[1,0.5]];portConstraint=eastwest;top=0;left=0;right=0;bottom=0;" parent="aV815E0Qi508MG-vV4y0-94" vertex="1">
          <mxGeometry y="113" width="149" height="22" as="geometry" />
        </mxCell>
        <mxCell id="aV815E0Qi508MG-vV4y0-112" value="units" style="shape=partialRectangle;connectable=0;fillColor=none;top=0;left=0;bottom=0;right=0;align=left;spacingLeft=2;overflow=hidden;fontSize=11;" parent="aV815E0Qi508MG-vV4y0-111" vertex="1">
          <mxGeometry width="66" height="22" as="geometry">
            <mxRectangle width="66" height="22" as="alternateBounds" />
          </mxGeometry>
        </mxCell>
        <mxCell id="aV815E0Qi508MG-vV4y0-113" value="int" style="shape=partialRectangle;connectable=0;fillColor=none;top=0;left=0;bottom=0;right=0;align=left;spacingLeft=2;overflow=hidden;fontSize=11;" parent="aV815E0Qi508MG-vV4y0-111" vertex="1">
          <mxGeometry x="66" width="61" height="22" as="geometry">
            <mxRectangle width="61" height="22" as="alternateBounds" />
          </mxGeometry>
        </mxCell>
        <mxCell id="aV815E0Qi508MG-vV4y0-114" value="" style="shape=partialRectangle;connectable=0;fillColor=none;top=0;left=0;bottom=0;right=0;align=left;spacingLeft=2;overflow=hidden;fontSize=11;" parent="aV815E0Qi508MG-vV4y0-111" vertex="1">
          <mxGeometry x="127" width="22" height="22" as="geometry">
            <mxRectangle width="22" height="22" as="alternateBounds" />
          </mxGeometry>
        </mxCell>
        <mxCell id="aV815E0Qi508MG-vV4y0-115" style="edgeStyle=orthogonalEdgeStyle;rounded=0;orthogonalLoop=1;jettySize=auto;html=1;entryX=0;entryY=0.5;entryDx=0;entryDy=0;" parent="1" source="Cv067esEAor_iLYO7rBp-342" target="aV815E0Qi508MG-vV4y0-50" edge="1">
          <mxGeometry relative="1" as="geometry" />
        </mxCell>
        <mxCell id="aV815E0Qi508MG-vV4y0-120" value="EXPENSES" style="shape=table;startSize=25;container=1;collapsible=0;childLayout=tableLayout;fixedRows=1;rowLines=1;fontStyle=1;align=center;resizeLast=1;" parent="1" vertex="1">
          <mxGeometry x="100" y="-1052" width="165" height="179" as="geometry" />
        </mxCell>
        <mxCell id="aV815E0Qi508MG-vV4y0-121" style="shape=tableRow;horizontal=0;startSize=0;swimlaneHead=0;swimlaneBody=0;fillColor=none;collapsible=0;dropTarget=0;points=[[0,0.5],[1,0.5]];portConstraint=eastwest;top=0;left=0;right=0;bottom=0;" parent="aV815E0Qi508MG-vV4y0-120" vertex="1">
          <mxGeometry y="25" width="165" height="22" as="geometry" />
        </mxCell>
        <mxCell id="aV815E0Qi508MG-vV4y0-122" value="expenses_id" style="shape=partialRectangle;connectable=0;fillColor=none;top=0;left=0;bottom=0;right=0;align=left;spacingLeft=2;overflow=hidden;fontSize=11;" parent="aV815E0Qi508MG-vV4y0-121" vertex="1">
          <mxGeometry width="78" height="22" as="geometry">
            <mxRectangle width="78" height="22" as="alternateBounds" />
          </mxGeometry>
        </mxCell>
        <mxCell id="aV815E0Qi508MG-vV4y0-123" value="int" style="shape=partialRectangle;connectable=0;fillColor=none;top=0;left=0;bottom=0;right=0;align=left;spacingLeft=2;overflow=hidden;fontSize=11;" parent="aV815E0Qi508MG-vV4y0-121" vertex="1">
          <mxGeometry x="78" width="65" height="22" as="geometry">
            <mxRectangle width="65" height="22" as="alternateBounds" />
          </mxGeometry>
        </mxCell>
        <mxCell id="aV815E0Qi508MG-vV4y0-124" value="PK" style="shape=partialRectangle;connectable=0;fillColor=none;top=0;left=0;bottom=0;right=0;align=left;spacingLeft=2;overflow=hidden;fontSize=11;" parent="aV815E0Qi508MG-vV4y0-121" vertex="1">
          <mxGeometry x="143" width="22" height="22" as="geometry">
            <mxRectangle width="22" height="22" as="alternateBounds" />
          </mxGeometry>
        </mxCell>
        <mxCell id="aV815E0Qi508MG-vV4y0-125" style="shape=tableRow;horizontal=0;startSize=0;swimlaneHead=0;swimlaneBody=0;fillColor=none;collapsible=0;dropTarget=0;points=[[0,0.5],[1,0.5]];portConstraint=eastwest;top=0;left=0;right=0;bottom=0;" parent="aV815E0Qi508MG-vV4y0-120" vertex="1">
          <mxGeometry y="47" width="165" height="22" as="geometry" />
        </mxCell>
        <mxCell id="aV815E0Qi508MG-vV4y0-126" value="date" style="shape=partialRectangle;connectable=0;fillColor=none;top=0;left=0;bottom=0;right=0;align=left;spacingLeft=2;overflow=hidden;fontSize=11;" parent="aV815E0Qi508MG-vV4y0-125" vertex="1">
          <mxGeometry width="78" height="22" as="geometry">
            <mxRectangle width="78" height="22" as="alternateBounds" />
          </mxGeometry>
        </mxCell>
        <mxCell id="aV815E0Qi508MG-vV4y0-127" value="date" style="shape=partialRectangle;connectable=0;fillColor=none;top=0;left=0;bottom=0;right=0;align=left;spacingLeft=2;overflow=hidden;fontSize=11;" parent="aV815E0Qi508MG-vV4y0-125" vertex="1">
          <mxGeometry x="78" width="65" height="22" as="geometry">
            <mxRectangle width="65" height="22" as="alternateBounds" />
          </mxGeometry>
        </mxCell>
        <mxCell id="aV815E0Qi508MG-vV4y0-128" value="" style="shape=partialRectangle;connectable=0;fillColor=none;top=0;left=0;bottom=0;right=0;align=left;spacingLeft=2;overflow=hidden;fontSize=11;" parent="aV815E0Qi508MG-vV4y0-125" vertex="1">
          <mxGeometry x="143" width="22" height="22" as="geometry">
            <mxRectangle width="22" height="22" as="alternateBounds" />
          </mxGeometry>
        </mxCell>
        <mxCell id="aV815E0Qi508MG-vV4y0-129" style="shape=tableRow;horizontal=0;startSize=0;swimlaneHead=0;swimlaneBody=0;fillColor=none;collapsible=0;dropTarget=0;points=[[0,0.5],[1,0.5]];portConstraint=eastwest;top=0;left=0;right=0;bottom=0;" parent="aV815E0Qi508MG-vV4y0-120" vertex="1">
          <mxGeometry y="69" width="165" height="22" as="geometry" />
        </mxCell>
        <mxCell id="aV815E0Qi508MG-vV4y0-130" value="expenses_name" style="shape=partialRectangle;connectable=0;fillColor=none;top=0;left=0;bottom=0;right=0;align=left;spacingLeft=2;overflow=hidden;fontSize=11;" parent="aV815E0Qi508MG-vV4y0-129" vertex="1">
          <mxGeometry width="78" height="22" as="geometry">
            <mxRectangle width="78" height="22" as="alternateBounds" />
          </mxGeometry>
        </mxCell>
        <mxCell id="aV815E0Qi508MG-vV4y0-131" value="varchar" style="shape=partialRectangle;connectable=0;fillColor=none;top=0;left=0;bottom=0;right=0;align=left;spacingLeft=2;overflow=hidden;fontSize=11;" parent="aV815E0Qi508MG-vV4y0-129" vertex="1">
          <mxGeometry x="78" width="65" height="22" as="geometry">
            <mxRectangle width="65" height="22" as="alternateBounds" />
          </mxGeometry>
        </mxCell>
        <mxCell id="aV815E0Qi508MG-vV4y0-132" value="" style="shape=partialRectangle;connectable=0;fillColor=none;top=0;left=0;bottom=0;right=0;align=left;spacingLeft=2;overflow=hidden;fontSize=11;" parent="aV815E0Qi508MG-vV4y0-129" vertex="1">
          <mxGeometry x="143" width="22" height="22" as="geometry">
            <mxRectangle width="22" height="22" as="alternateBounds" />
          </mxGeometry>
        </mxCell>
        <mxCell id="aV815E0Qi508MG-vV4y0-133" style="shape=tableRow;horizontal=0;startSize=0;swimlaneHead=0;swimlaneBody=0;fillColor=none;collapsible=0;dropTarget=0;points=[[0,0.5],[1,0.5]];portConstraint=eastwest;top=0;left=0;right=0;bottom=0;" parent="aV815E0Qi508MG-vV4y0-120" vertex="1">
          <mxGeometry y="91" width="165" height="22" as="geometry" />
        </mxCell>
        <mxCell id="aV815E0Qi508MG-vV4y0-134" value="cost" style="shape=partialRectangle;connectable=0;fillColor=none;top=0;left=0;bottom=0;right=0;align=left;spacingLeft=2;overflow=hidden;fontSize=11;" parent="aV815E0Qi508MG-vV4y0-133" vertex="1">
          <mxGeometry width="78" height="22" as="geometry">
            <mxRectangle width="78" height="22" as="alternateBounds" />
          </mxGeometry>
        </mxCell>
        <mxCell id="aV815E0Qi508MG-vV4y0-135" value="decimal" style="shape=partialRectangle;connectable=0;fillColor=none;top=0;left=0;bottom=0;right=0;align=left;spacingLeft=2;overflow=hidden;fontSize=11;" parent="aV815E0Qi508MG-vV4y0-133" vertex="1">
          <mxGeometry x="78" width="65" height="22" as="geometry">
            <mxRectangle width="65" height="22" as="alternateBounds" />
          </mxGeometry>
        </mxCell>
        <mxCell id="aV815E0Qi508MG-vV4y0-136" value="" style="shape=partialRectangle;connectable=0;fillColor=none;top=0;left=0;bottom=0;right=0;align=left;spacingLeft=2;overflow=hidden;fontSize=11;" parent="aV815E0Qi508MG-vV4y0-133" vertex="1">
          <mxGeometry x="143" width="22" height="22" as="geometry">
            <mxRectangle width="22" height="22" as="alternateBounds" />
          </mxGeometry>
        </mxCell>
        <mxCell id="aV815E0Qi508MG-vV4y0-137" style="shape=tableRow;horizontal=0;startSize=0;swimlaneHead=0;swimlaneBody=0;fillColor=none;collapsible=0;dropTarget=0;points=[[0,0.5],[1,0.5]];portConstraint=eastwest;top=0;left=0;right=0;bottom=0;" parent="aV815E0Qi508MG-vV4y0-120" vertex="1">
          <mxGeometry y="113" width="165" height="22" as="geometry" />
        </mxCell>
        <mxCell id="aV815E0Qi508MG-vV4y0-138" value="description" style="shape=partialRectangle;connectable=0;fillColor=none;top=0;left=0;bottom=0;right=0;align=left;spacingLeft=2;overflow=hidden;fontSize=11;" parent="aV815E0Qi508MG-vV4y0-137" vertex="1">
          <mxGeometry width="78" height="22" as="geometry">
            <mxRectangle width="78" height="22" as="alternateBounds" />
          </mxGeometry>
        </mxCell>
        <mxCell id="aV815E0Qi508MG-vV4y0-139" value="text" style="shape=partialRectangle;connectable=0;fillColor=none;top=0;left=0;bottom=0;right=0;align=left;spacingLeft=2;overflow=hidden;fontSize=11;" parent="aV815E0Qi508MG-vV4y0-137" vertex="1">
          <mxGeometry x="78" width="65" height="22" as="geometry">
            <mxRectangle width="65" height="22" as="alternateBounds" />
          </mxGeometry>
        </mxCell>
        <mxCell id="aV815E0Qi508MG-vV4y0-140" value="" style="shape=partialRectangle;connectable=0;fillColor=none;top=0;left=0;bottom=0;right=0;align=left;spacingLeft=2;overflow=hidden;fontSize=11;" parent="aV815E0Qi508MG-vV4y0-137" vertex="1">
          <mxGeometry x="143" width="22" height="22" as="geometry">
            <mxRectangle width="22" height="22" as="alternateBounds" />
          </mxGeometry>
        </mxCell>
        <mxCell id="aV815E0Qi508MG-vV4y0-141" style="shape=tableRow;horizontal=0;startSize=0;swimlaneHead=0;swimlaneBody=0;fillColor=none;collapsible=0;dropTarget=0;points=[[0,0.5],[1,0.5]];portConstraint=eastwest;top=0;left=0;right=0;bottom=0;" parent="aV815E0Qi508MG-vV4y0-120" vertex="1">
          <mxGeometry y="135" width="165" height="22" as="geometry" />
        </mxCell>
        <mxCell id="aV815E0Qi508MG-vV4y0-142" value="createdAt" style="shape=partialRectangle;connectable=0;fillColor=none;top=0;left=0;bottom=0;right=0;align=left;spacingLeft=2;overflow=hidden;fontSize=11;" parent="aV815E0Qi508MG-vV4y0-141" vertex="1">
          <mxGeometry width="78" height="22" as="geometry">
            <mxRectangle width="78" height="22" as="alternateBounds" />
          </mxGeometry>
        </mxCell>
        <mxCell id="aV815E0Qi508MG-vV4y0-143" value="timestamp" style="shape=partialRectangle;connectable=0;fillColor=none;top=0;left=0;bottom=0;right=0;align=left;spacingLeft=2;overflow=hidden;fontSize=11;" parent="aV815E0Qi508MG-vV4y0-141" vertex="1">
          <mxGeometry x="78" width="65" height="22" as="geometry">
            <mxRectangle width="65" height="22" as="alternateBounds" />
          </mxGeometry>
        </mxCell>
        <mxCell id="aV815E0Qi508MG-vV4y0-144" value="" style="shape=partialRectangle;connectable=0;fillColor=none;top=0;left=0;bottom=0;right=0;align=left;spacingLeft=2;overflow=hidden;fontSize=11;" parent="aV815E0Qi508MG-vV4y0-141" vertex="1">
          <mxGeometry x="143" width="22" height="22" as="geometry">
            <mxRectangle width="22" height="22" as="alternateBounds" />
          </mxGeometry>
        </mxCell>
        <mxCell id="aV815E0Qi508MG-vV4y0-145" style="shape=tableRow;horizontal=0;startSize=0;swimlaneHead=0;swimlaneBody=0;fillColor=none;collapsible=0;dropTarget=0;points=[[0,0.5],[1,0.5]];portConstraint=eastwest;top=0;left=0;right=0;bottom=0;" parent="aV815E0Qi508MG-vV4y0-120" vertex="1">
          <mxGeometry y="157" width="165" height="22" as="geometry" />
        </mxCell>
        <mxCell id="aV815E0Qi508MG-vV4y0-146" value="updatedAt" style="shape=partialRectangle;connectable=0;fillColor=none;top=0;left=0;bottom=0;right=0;align=left;spacingLeft=2;overflow=hidden;fontSize=11;" parent="aV815E0Qi508MG-vV4y0-145" vertex="1">
          <mxGeometry width="78" height="22" as="geometry">
            <mxRectangle width="78" height="22" as="alternateBounds" />
          </mxGeometry>
        </mxCell>
        <mxCell id="aV815E0Qi508MG-vV4y0-147" value="timestamp" style="shape=partialRectangle;connectable=0;fillColor=none;top=0;left=0;bottom=0;right=0;align=left;spacingLeft=2;overflow=hidden;fontSize=11;" parent="aV815E0Qi508MG-vV4y0-145" vertex="1">
          <mxGeometry x="78" width="65" height="22" as="geometry">
            <mxRectangle width="65" height="22" as="alternateBounds" />
          </mxGeometry>
        </mxCell>
        <mxCell id="aV815E0Qi508MG-vV4y0-148" value="" style="shape=partialRectangle;connectable=0;fillColor=none;top=0;left=0;bottom=0;right=0;align=left;spacingLeft=2;overflow=hidden;fontSize=11;" parent="aV815E0Qi508MG-vV4y0-145" vertex="1">
          <mxGeometry x="143" width="22" height="22" as="geometry">
            <mxRectangle width="22" height="22" as="alternateBounds" />
          </mxGeometry>
        </mxCell>
        <mxCell id="aV815E0Qi508MG-vV4y0-150" style="edgeStyle=orthogonalEdgeStyle;rounded=0;orthogonalLoop=1;jettySize=auto;html=1;entryX=0;entryY=0.5;entryDx=0;entryDy=0;" parent="1" source="aV815E0Qi508MG-vV4y0-29" target="aV815E0Qi508MG-vV4y0-103" edge="1">
          <mxGeometry relative="1" as="geometry">
            <Array as="points">
              <mxPoint x="646" y="-673" />
              <mxPoint x="646" y="-670" />
              <mxPoint x="670" y="-670" />
              <mxPoint x="670" y="-680" />
            </Array>
          </mxGeometry>
        </mxCell>
        <mxCell id="aV815E0Qi508MG-vV4y0-151" style="edgeStyle=orthogonalEdgeStyle;rounded=0;orthogonalLoop=1;jettySize=auto;html=1;entryX=0.856;entryY=0.996;entryDx=0;entryDy=0;entryPerimeter=0;" parent="1" source="Cv067esEAor_iLYO7rBp-341" target="aV815E0Qi508MG-vV4y0-145" edge="1">
          <mxGeometry relative="1" as="geometry" />
        </mxCell>
        <mxCell id="dwkSHHfREJtTc5k_KRKD-82" value="ORDERS" style="shape=table;startSize=25;container=1;collapsible=0;childLayout=tableLayout;fixedRows=1;rowLines=1;fontStyle=1;align=center;resizeLast=1;" parent="1" vertex="1">
          <mxGeometry x="90" y="-460" width="197" height="377" as="geometry" />
        </mxCell>
        <mxCell id="dwkSHHfREJtTc5k_KRKD-83" style="shape=tableRow;horizontal=0;startSize=0;swimlaneHead=0;swimlaneBody=0;fillColor=none;collapsible=0;dropTarget=0;points=[[0,0.5],[1,0.5]];portConstraint=eastwest;top=0;left=0;right=0;bottom=0;" parent="dwkSHHfREJtTc5k_KRKD-82" vertex="1">
          <mxGeometry y="25" width="197" height="22" as="geometry" />
        </mxCell>
        <mxCell id="dwkSHHfREJtTc5k_KRKD-84" value="Order_ID" style="shape=partialRectangle;connectable=0;fillColor=none;top=0;left=0;bottom=0;right=0;align=left;spacingLeft=2;overflow=hidden;fontSize=11;" parent="dwkSHHfREJtTc5k_KRKD-83" vertex="1">
          <mxGeometry width="114" height="22" as="geometry">
            <mxRectangle width="114" height="22" as="alternateBounds" />
          </mxGeometry>
        </mxCell>
        <mxCell id="dwkSHHfREJtTc5k_KRKD-85" value="varchar" style="shape=partialRectangle;connectable=0;fillColor=none;top=0;left=0;bottom=0;right=0;align=left;spacingLeft=2;overflow=hidden;fontSize=11;" parent="dwkSHHfREJtTc5k_KRKD-83" vertex="1">
          <mxGeometry x="114" width="61" height="22" as="geometry">
            <mxRectangle width="61" height="22" as="alternateBounds" />
          </mxGeometry>
        </mxCell>
        <mxCell id="dwkSHHfREJtTc5k_KRKD-86" value="PK" style="shape=partialRectangle;connectable=0;fillColor=none;top=0;left=0;bottom=0;right=0;align=left;spacingLeft=2;overflow=hidden;fontSize=11;" parent="dwkSHHfREJtTc5k_KRKD-83" vertex="1">
          <mxGeometry x="175" width="22" height="22" as="geometry">
            <mxRectangle width="22" height="22" as="alternateBounds" />
          </mxGeometry>
        </mxCell>
        <mxCell id="dwkSHHfREJtTc5k_KRKD-87" style="shape=tableRow;horizontal=0;startSize=0;swimlaneHead=0;swimlaneBody=0;fillColor=none;collapsible=0;dropTarget=0;points=[[0,0.5],[1,0.5]];portConstraint=eastwest;top=0;left=0;right=0;bottom=0;" parent="dwkSHHfREJtTc5k_KRKD-82" vertex="1">
          <mxGeometry y="47" width="197" height="22" as="geometry" />
        </mxCell>
        <mxCell id="dwkSHHfREJtTc5k_KRKD-88" value="ID" style="shape=partialRectangle;connectable=0;fillColor=none;top=0;left=0;bottom=0;right=0;align=left;spacingLeft=2;overflow=hidden;fontSize=11;" parent="dwkSHHfREJtTc5k_KRKD-87" vertex="1">
          <mxGeometry width="114" height="22" as="geometry">
            <mxRectangle width="114" height="22" as="alternateBounds" />
          </mxGeometry>
        </mxCell>
        <mxCell id="dwkSHHfREJtTc5k_KRKD-89" value="int" style="shape=partialRectangle;connectable=0;fillColor=none;top=0;left=0;bottom=0;right=0;align=left;spacingLeft=2;overflow=hidden;fontSize=11;" parent="dwkSHHfREJtTc5k_KRKD-87" vertex="1">
          <mxGeometry x="114" width="61" height="22" as="geometry">
            <mxRectangle width="61" height="22" as="alternateBounds" />
          </mxGeometry>
        </mxCell>
        <mxCell id="dwkSHHfREJtTc5k_KRKD-90" value="FK" style="shape=partialRectangle;connectable=0;fillColor=none;top=0;left=0;bottom=0;right=0;align=left;spacingLeft=2;overflow=hidden;fontSize=11;" parent="dwkSHHfREJtTc5k_KRKD-87" vertex="1">
          <mxGeometry x="175" width="22" height="22" as="geometry">
            <mxRectangle width="22" height="22" as="alternateBounds" />
          </mxGeometry>
        </mxCell>
        <mxCell id="dwkSHHfREJtTc5k_KRKD-91" style="shape=tableRow;horizontal=0;startSize=0;swimlaneHead=0;swimlaneBody=0;fillColor=none;collapsible=0;dropTarget=0;points=[[0,0.5],[1,0.5]];portConstraint=eastwest;top=0;left=0;right=0;bottom=0;" parent="dwkSHHfREJtTc5k_KRKD-82" vertex="1">
          <mxGeometry y="69" width="197" height="22" as="geometry" />
        </mxCell>
        <mxCell id="dwkSHHfREJtTc5k_KRKD-92" value="ProductID" style="shape=partialRectangle;connectable=0;fillColor=none;top=0;left=0;bottom=0;right=0;align=left;spacingLeft=2;overflow=hidden;fontSize=11;" parent="dwkSHHfREJtTc5k_KRKD-91" vertex="1">
          <mxGeometry width="114" height="22" as="geometry">
            <mxRectangle width="114" height="22" as="alternateBounds" />
          </mxGeometry>
        </mxCell>
        <mxCell id="dwkSHHfREJtTc5k_KRKD-93" value="varchar" style="shape=partialRectangle;connectable=0;fillColor=none;top=0;left=0;bottom=0;right=0;align=left;spacingLeft=2;overflow=hidden;fontSize=11;" parent="dwkSHHfREJtTc5k_KRKD-91" vertex="1">
          <mxGeometry x="114" width="61" height="22" as="geometry">
            <mxRectangle width="61" height="22" as="alternateBounds" />
          </mxGeometry>
        </mxCell>
        <mxCell id="dwkSHHfREJtTc5k_KRKD-94" value="FK" style="shape=partialRectangle;connectable=0;fillColor=none;top=0;left=0;bottom=0;right=0;align=left;spacingLeft=2;overflow=hidden;fontSize=11;" parent="dwkSHHfREJtTc5k_KRKD-91" vertex="1">
          <mxGeometry x="175" width="22" height="22" as="geometry">
            <mxRectangle width="22" height="22" as="alternateBounds" />
          </mxGeometry>
        </mxCell>
        <mxCell id="dwkSHHfREJtTc5k_KRKD-95" style="shape=tableRow;horizontal=0;startSize=0;swimlaneHead=0;swimlaneBody=0;fillColor=none;collapsible=0;dropTarget=0;points=[[0,0.5],[1,0.5]];portConstraint=eastwest;top=0;left=0;right=0;bottom=0;" parent="dwkSHHfREJtTc5k_KRKD-82" vertex="1">
          <mxGeometry y="91" width="197" height="22" as="geometry" />
        </mxCell>
        <mxCell id="dwkSHHfREJtTc5k_KRKD-96" value="VariationID" style="shape=partialRectangle;connectable=0;fillColor=none;top=0;left=0;bottom=0;right=0;align=left;spacingLeft=2;overflow=hidden;fontSize=11;" parent="dwkSHHfREJtTc5k_KRKD-95" vertex="1">
          <mxGeometry width="114" height="22" as="geometry">
            <mxRectangle width="114" height="22" as="alternateBounds" />
          </mxGeometry>
        </mxCell>
        <mxCell id="dwkSHHfREJtTc5k_KRKD-97" value="int" style="shape=partialRectangle;connectable=0;fillColor=none;top=0;left=0;bottom=0;right=0;align=left;spacingLeft=2;overflow=hidden;fontSize=11;" parent="dwkSHHfREJtTc5k_KRKD-95" vertex="1">
          <mxGeometry x="114" width="61" height="22" as="geometry">
            <mxRectangle width="61" height="22" as="alternateBounds" />
          </mxGeometry>
        </mxCell>
        <mxCell id="dwkSHHfREJtTc5k_KRKD-98" value="FK" style="shape=partialRectangle;connectable=0;fillColor=none;top=0;left=0;bottom=0;right=0;align=left;spacingLeft=2;overflow=hidden;fontSize=11;" parent="dwkSHHfREJtTc5k_KRKD-95" vertex="1">
          <mxGeometry x="175" width="22" height="22" as="geometry">
            <mxRectangle width="22" height="22" as="alternateBounds" />
          </mxGeometry>
        </mxCell>
        <mxCell id="dwkSHHfREJtTc5k_KRKD-99" style="shape=tableRow;horizontal=0;startSize=0;swimlaneHead=0;swimlaneBody=0;fillColor=none;collapsible=0;dropTarget=0;points=[[0,0.5],[1,0.5]];portConstraint=eastwest;top=0;left=0;right=0;bottom=0;" parent="dwkSHHfREJtTc5k_KRKD-82" vertex="1">
          <mxGeometry y="113" width="197" height="22" as="geometry" />
        </mxCell>
        <mxCell id="dwkSHHfREJtTc5k_KRKD-100" value="Quantity" style="shape=partialRectangle;connectable=0;fillColor=none;top=0;left=0;bottom=0;right=0;align=left;spacingLeft=2;overflow=hidden;fontSize=11;" parent="dwkSHHfREJtTc5k_KRKD-99" vertex="1">
          <mxGeometry width="114" height="22" as="geometry">
            <mxRectangle width="114" height="22" as="alternateBounds" />
          </mxGeometry>
        </mxCell>
        <mxCell id="dwkSHHfREJtTc5k_KRKD-101" value="int" style="shape=partialRectangle;connectable=0;fillColor=none;top=0;left=0;bottom=0;right=0;align=left;spacingLeft=2;overflow=hidden;fontSize=11;" parent="dwkSHHfREJtTc5k_KRKD-99" vertex="1">
          <mxGeometry x="114" width="61" height="22" as="geometry">
            <mxRectangle width="61" height="22" as="alternateBounds" />
          </mxGeometry>
        </mxCell>
        <mxCell id="dwkSHHfREJtTc5k_KRKD-102" value="" style="shape=partialRectangle;connectable=0;fillColor=none;top=0;left=0;bottom=0;right=0;align=left;spacingLeft=2;overflow=hidden;fontSize=11;" parent="dwkSHHfREJtTc5k_KRKD-99" vertex="1">
          <mxGeometry x="175" width="22" height="22" as="geometry">
            <mxRectangle width="22" height="22" as="alternateBounds" />
          </mxGeometry>
        </mxCell>
        <mxCell id="dwkSHHfREJtTc5k_KRKD-103" style="shape=tableRow;horizontal=0;startSize=0;swimlaneHead=0;swimlaneBody=0;fillColor=none;collapsible=0;dropTarget=0;points=[[0,0.5],[1,0.5]];portConstraint=eastwest;top=0;left=0;right=0;bottom=0;" parent="dwkSHHfREJtTc5k_KRKD-82" vertex="1">
          <mxGeometry y="135" width="197" height="22" as="geometry" />
        </mxCell>
        <mxCell id="dwkSHHfREJtTc5k_KRKD-104" value="payment_id" style="shape=partialRectangle;connectable=0;fillColor=none;top=0;left=0;bottom=0;right=0;align=left;spacingLeft=2;overflow=hidden;fontSize=11;" parent="dwkSHHfREJtTc5k_KRKD-103" vertex="1">
          <mxGeometry width="114" height="22" as="geometry">
            <mxRectangle width="114" height="22" as="alternateBounds" />
          </mxGeometry>
        </mxCell>
        <mxCell id="dwkSHHfREJtTc5k_KRKD-105" value="varchar" style="shape=partialRectangle;connectable=0;fillColor=none;top=0;left=0;bottom=0;right=0;align=left;spacingLeft=2;overflow=hidden;fontSize=11;" parent="dwkSHHfREJtTc5k_KRKD-103" vertex="1">
          <mxGeometry x="114" width="61" height="22" as="geometry">
            <mxRectangle width="61" height="22" as="alternateBounds" />
          </mxGeometry>
        </mxCell>
        <mxCell id="dwkSHHfREJtTc5k_KRKD-106" value="" style="shape=partialRectangle;connectable=0;fillColor=none;top=0;left=0;bottom=0;right=0;align=left;spacingLeft=2;overflow=hidden;fontSize=11;" parent="dwkSHHfREJtTc5k_KRKD-103" vertex="1">
          <mxGeometry x="175" width="22" height="22" as="geometry">
            <mxRectangle width="22" height="22" as="alternateBounds" />
          </mxGeometry>
        </mxCell>
        <mxCell id="dwkSHHfREJtTc5k_KRKD-107" style="shape=tableRow;horizontal=0;startSize=0;swimlaneHead=0;swimlaneBody=0;fillColor=none;collapsible=0;dropTarget=0;points=[[0,0.5],[1,0.5]];portConstraint=eastwest;top=0;left=0;right=0;bottom=0;" parent="dwkSHHfREJtTc5k_KRKD-82" vertex="1">
          <mxGeometry y="157" width="197" height="22" as="geometry" />
        </mxCell>
        <mxCell id="dwkSHHfREJtTc5k_KRKD-108" value="TotalAmount" style="shape=partialRectangle;connectable=0;fillColor=none;top=0;left=0;bottom=0;right=0;align=left;spacingLeft=2;overflow=hidden;fontSize=11;" parent="dwkSHHfREJtTc5k_KRKD-107" vertex="1">
          <mxGeometry width="114" height="22" as="geometry">
            <mxRectangle width="114" height="22" as="alternateBounds" />
          </mxGeometry>
        </mxCell>
        <mxCell id="dwkSHHfREJtTc5k_KRKD-109" value="decimal" style="shape=partialRectangle;connectable=0;fillColor=none;top=0;left=0;bottom=0;right=0;align=left;spacingLeft=2;overflow=hidden;fontSize=11;" parent="dwkSHHfREJtTc5k_KRKD-107" vertex="1">
          <mxGeometry x="114" width="61" height="22" as="geometry">
            <mxRectangle width="61" height="22" as="alternateBounds" />
          </mxGeometry>
        </mxCell>
        <mxCell id="dwkSHHfREJtTc5k_KRKD-110" value="" style="shape=partialRectangle;connectable=0;fillColor=none;top=0;left=0;bottom=0;right=0;align=left;spacingLeft=2;overflow=hidden;fontSize=11;" parent="dwkSHHfREJtTc5k_KRKD-107" vertex="1">
          <mxGeometry x="175" width="22" height="22" as="geometry">
            <mxRectangle width="22" height="22" as="alternateBounds" />
          </mxGeometry>
        </mxCell>
        <mxCell id="dwkSHHfREJtTc5k_KRKD-111" style="shape=tableRow;horizontal=0;startSize=0;swimlaneHead=0;swimlaneBody=0;fillColor=none;collapsible=0;dropTarget=0;points=[[0,0.5],[1,0.5]];portConstraint=eastwest;top=0;left=0;right=0;bottom=0;" parent="dwkSHHfREJtTc5k_KRKD-82" vertex="1">
          <mxGeometry y="179" width="197" height="22" as="geometry" />
        </mxCell>
        <mxCell id="dwkSHHfREJtTc5k_KRKD-112" value="OrderStatus" style="shape=partialRectangle;connectable=0;fillColor=none;top=0;left=0;bottom=0;right=0;align=left;spacingLeft=2;overflow=hidden;fontSize=11;" parent="dwkSHHfREJtTc5k_KRKD-111" vertex="1">
          <mxGeometry width="114" height="22" as="geometry">
            <mxRectangle width="114" height="22" as="alternateBounds" />
          </mxGeometry>
        </mxCell>
        <mxCell id="dwkSHHfREJtTc5k_KRKD-113" value="enum" style="shape=partialRectangle;connectable=0;fillColor=none;top=0;left=0;bottom=0;right=0;align=left;spacingLeft=2;overflow=hidden;fontSize=11;" parent="dwkSHHfREJtTc5k_KRKD-111" vertex="1">
          <mxGeometry x="114" width="61" height="22" as="geometry">
            <mxRectangle width="61" height="22" as="alternateBounds" />
          </mxGeometry>
        </mxCell>
        <mxCell id="dwkSHHfREJtTc5k_KRKD-114" value="" style="shape=partialRectangle;connectable=0;fillColor=none;top=0;left=0;bottom=0;right=0;align=left;spacingLeft=2;overflow=hidden;fontSize=11;" parent="dwkSHHfREJtTc5k_KRKD-111" vertex="1">
          <mxGeometry x="175" width="22" height="22" as="geometry">
            <mxRectangle width="22" height="22" as="alternateBounds" />
          </mxGeometry>
        </mxCell>
        <mxCell id="dwkSHHfREJtTc5k_KRKD-115" style="shape=tableRow;horizontal=0;startSize=0;swimlaneHead=0;swimlaneBody=0;fillColor=none;collapsible=0;dropTarget=0;points=[[0,0.5],[1,0.5]];portConstraint=eastwest;top=0;left=0;right=0;bottom=0;" parent="dwkSHHfREJtTc5k_KRKD-82" vertex="1">
          <mxGeometry y="201" width="197" height="22" as="geometry" />
        </mxCell>
        <mxCell id="dwkSHHfREJtTc5k_KRKD-116" value="PaymentStatus" style="shape=partialRectangle;connectable=0;fillColor=none;top=0;left=0;bottom=0;right=0;align=left;spacingLeft=2;overflow=hidden;fontSize=11;" parent="dwkSHHfREJtTc5k_KRKD-115" vertex="1">
          <mxGeometry width="114" height="22" as="geometry">
            <mxRectangle width="114" height="22" as="alternateBounds" />
          </mxGeometry>
        </mxCell>
        <mxCell id="dwkSHHfREJtTc5k_KRKD-117" value="enum" style="shape=partialRectangle;connectable=0;fillColor=none;top=0;left=0;bottom=0;right=0;align=left;spacingLeft=2;overflow=hidden;fontSize=11;" parent="dwkSHHfREJtTc5k_KRKD-115" vertex="1">
          <mxGeometry x="114" width="61" height="22" as="geometry">
            <mxRectangle width="61" height="22" as="alternateBounds" />
          </mxGeometry>
        </mxCell>
        <mxCell id="dwkSHHfREJtTc5k_KRKD-118" value="" style="shape=partialRectangle;connectable=0;fillColor=none;top=0;left=0;bottom=0;right=0;align=left;spacingLeft=2;overflow=hidden;fontSize=11;" parent="dwkSHHfREJtTc5k_KRKD-115" vertex="1">
          <mxGeometry x="175" width="22" height="22" as="geometry">
            <mxRectangle width="22" height="22" as="alternateBounds" />
          </mxGeometry>
        </mxCell>
        <mxCell id="dwkSHHfREJtTc5k_KRKD-119" style="shape=tableRow;horizontal=0;startSize=0;swimlaneHead=0;swimlaneBody=0;fillColor=none;collapsible=0;dropTarget=0;points=[[0,0.5],[1,0.5]];portConstraint=eastwest;top=0;left=0;right=0;bottom=0;" parent="dwkSHHfREJtTc5k_KRKD-82" vertex="1">
          <mxGeometry y="223" width="197" height="22" as="geometry" />
        </mxCell>
        <mxCell id="dwkSHHfREJtTc5k_KRKD-120" value="created_at" style="shape=partialRectangle;connectable=0;fillColor=none;top=0;left=0;bottom=0;right=0;align=left;spacingLeft=2;overflow=hidden;fontSize=11;" parent="dwkSHHfREJtTc5k_KRKD-119" vertex="1">
          <mxGeometry width="114" height="22" as="geometry">
            <mxRectangle width="114" height="22" as="alternateBounds" />
          </mxGeometry>
        </mxCell>
        <mxCell id="dwkSHHfREJtTc5k_KRKD-121" value="timestamp" style="shape=partialRectangle;connectable=0;fillColor=none;top=0;left=0;bottom=0;right=0;align=left;spacingLeft=2;overflow=hidden;fontSize=11;" parent="dwkSHHfREJtTc5k_KRKD-119" vertex="1">
          <mxGeometry x="114" width="61" height="22" as="geometry">
            <mxRectangle width="61" height="22" as="alternateBounds" />
          </mxGeometry>
        </mxCell>
        <mxCell id="dwkSHHfREJtTc5k_KRKD-122" value="" style="shape=partialRectangle;connectable=0;fillColor=none;top=0;left=0;bottom=0;right=0;align=left;spacingLeft=2;overflow=hidden;fontSize=11;" parent="dwkSHHfREJtTc5k_KRKD-119" vertex="1">
          <mxGeometry x="175" width="22" height="22" as="geometry">
            <mxRectangle width="22" height="22" as="alternateBounds" />
          </mxGeometry>
        </mxCell>
        <mxCell id="dwkSHHfREJtTc5k_KRKD-123" style="shape=tableRow;horizontal=0;startSize=0;swimlaneHead=0;swimlaneBody=0;fillColor=none;collapsible=0;dropTarget=0;points=[[0,0.5],[1,0.5]];portConstraint=eastwest;top=0;left=0;right=0;bottom=0;" parent="dwkSHHfREJtTc5k_KRKD-82" vertex="1">
          <mxGeometry y="245" width="197" height="22" as="geometry" />
        </mxCell>
        <mxCell id="dwkSHHfREJtTc5k_KRKD-124" value="payment_at" style="shape=partialRectangle;connectable=0;fillColor=none;top=0;left=0;bottom=0;right=0;align=left;spacingLeft=2;overflow=hidden;fontSize=11;" parent="dwkSHHfREJtTc5k_KRKD-123" vertex="1">
          <mxGeometry width="114" height="22" as="geometry">
            <mxRectangle width="114" height="22" as="alternateBounds" />
          </mxGeometry>
        </mxCell>
        <mxCell id="dwkSHHfREJtTc5k_KRKD-125" value="timestamp" style="shape=partialRectangle;connectable=0;fillColor=none;top=0;left=0;bottom=0;right=0;align=left;spacingLeft=2;overflow=hidden;fontSize=11;" parent="dwkSHHfREJtTc5k_KRKD-123" vertex="1">
          <mxGeometry x="114" width="61" height="22" as="geometry">
            <mxRectangle width="61" height="22" as="alternateBounds" />
          </mxGeometry>
        </mxCell>
        <mxCell id="dwkSHHfREJtTc5k_KRKD-126" value="" style="shape=partialRectangle;connectable=0;fillColor=none;top=0;left=0;bottom=0;right=0;align=left;spacingLeft=2;overflow=hidden;fontSize=11;" parent="dwkSHHfREJtTc5k_KRKD-123" vertex="1">
          <mxGeometry x="175" width="22" height="22" as="geometry">
            <mxRectangle width="22" height="22" as="alternateBounds" />
          </mxGeometry>
        </mxCell>
        <mxCell id="dwkSHHfREJtTc5k_KRKD-127" style="shape=tableRow;horizontal=0;startSize=0;swimlaneHead=0;swimlaneBody=0;fillColor=none;collapsible=0;dropTarget=0;points=[[0,0.5],[1,0.5]];portConstraint=eastwest;top=0;left=0;right=0;bottom=0;" parent="dwkSHHfREJtTc5k_KRKD-82" vertex="1">
          <mxGeometry y="267" width="197" height="22" as="geometry" />
        </mxCell>
        <mxCell id="dwkSHHfREJtTc5k_KRKD-128" value="DeliveryVia" style="shape=partialRectangle;connectable=0;fillColor=none;top=0;left=0;bottom=0;right=0;align=left;spacingLeft=2;overflow=hidden;fontSize=11;" parent="dwkSHHfREJtTc5k_KRKD-127" vertex="1">
          <mxGeometry width="114" height="22" as="geometry">
            <mxRectangle width="114" height="22" as="alternateBounds" />
          </mxGeometry>
        </mxCell>
        <mxCell id="dwkSHHfREJtTc5k_KRKD-129" value="varchar" style="shape=partialRectangle;connectable=0;fillColor=none;top=0;left=0;bottom=0;right=0;align=left;spacingLeft=2;overflow=hidden;fontSize=11;" parent="dwkSHHfREJtTc5k_KRKD-127" vertex="1">
          <mxGeometry x="114" width="61" height="22" as="geometry">
            <mxRectangle width="61" height="22" as="alternateBounds" />
          </mxGeometry>
        </mxCell>
        <mxCell id="dwkSHHfREJtTc5k_KRKD-130" value="" style="shape=partialRectangle;connectable=0;fillColor=none;top=0;left=0;bottom=0;right=0;align=left;spacingLeft=2;overflow=hidden;fontSize=11;" parent="dwkSHHfREJtTc5k_KRKD-127" vertex="1">
          <mxGeometry x="175" width="22" height="22" as="geometry">
            <mxRectangle width="22" height="22" as="alternateBounds" />
          </mxGeometry>
        </mxCell>
        <mxCell id="dwkSHHfREJtTc5k_KRKD-131" style="shape=tableRow;horizontal=0;startSize=0;swimlaneHead=0;swimlaneBody=0;fillColor=none;collapsible=0;dropTarget=0;points=[[0,0.5],[1,0.5]];portConstraint=eastwest;top=0;left=0;right=0;bottom=0;" parent="dwkSHHfREJtTc5k_KRKD-82" vertex="1">
          <mxGeometry y="289" width="197" height="22" as="geometry" />
        </mxCell>
        <mxCell id="dwkSHHfREJtTc5k_KRKD-132" value="DeliveryDate" style="shape=partialRectangle;connectable=0;fillColor=none;top=0;left=0;bottom=0;right=0;align=left;spacingLeft=2;overflow=hidden;fontSize=11;" parent="dwkSHHfREJtTc5k_KRKD-131" vertex="1">
          <mxGeometry width="114" height="22" as="geometry">
            <mxRectangle width="114" height="22" as="alternateBounds" />
          </mxGeometry>
        </mxCell>
        <mxCell id="dwkSHHfREJtTc5k_KRKD-133" value="date" style="shape=partialRectangle;connectable=0;fillColor=none;top=0;left=0;bottom=0;right=0;align=left;spacingLeft=2;overflow=hidden;fontSize=11;" parent="dwkSHHfREJtTc5k_KRKD-131" vertex="1">
          <mxGeometry x="114" width="61" height="22" as="geometry">
            <mxRectangle width="61" height="22" as="alternateBounds" />
          </mxGeometry>
        </mxCell>
        <mxCell id="dwkSHHfREJtTc5k_KRKD-134" value="" style="shape=partialRectangle;connectable=0;fillColor=none;top=0;left=0;bottom=0;right=0;align=left;spacingLeft=2;overflow=hidden;fontSize=11;" parent="dwkSHHfREJtTc5k_KRKD-131" vertex="1">
          <mxGeometry x="175" width="22" height="22" as="geometry">
            <mxRectangle width="22" height="22" as="alternateBounds" />
          </mxGeometry>
        </mxCell>
        <mxCell id="dwkSHHfREJtTc5k_KRKD-135" style="shape=tableRow;horizontal=0;startSize=0;swimlaneHead=0;swimlaneBody=0;fillColor=none;collapsible=0;dropTarget=0;points=[[0,0.5],[1,0.5]];portConstraint=eastwest;top=0;left=0;right=0;bottom=0;" parent="dwkSHHfREJtTc5k_KRKD-82" vertex="1">
          <mxGeometry y="311" width="197" height="22" as="geometry" />
        </mxCell>
        <mxCell id="dwkSHHfREJtTc5k_KRKD-136" value="tracking_number" style="shape=partialRectangle;connectable=0;fillColor=none;top=0;left=0;bottom=0;right=0;align=left;spacingLeft=2;overflow=hidden;fontSize=11;" parent="dwkSHHfREJtTc5k_KRKD-135" vertex="1">
          <mxGeometry width="114" height="22" as="geometry">
            <mxRectangle width="114" height="22" as="alternateBounds" />
          </mxGeometry>
        </mxCell>
        <mxCell id="dwkSHHfREJtTc5k_KRKD-137" value="varchar" style="shape=partialRectangle;connectable=0;fillColor=none;top=0;left=0;bottom=0;right=0;align=left;spacingLeft=2;overflow=hidden;fontSize=11;" parent="dwkSHHfREJtTc5k_KRKD-135" vertex="1">
          <mxGeometry x="114" width="61" height="22" as="geometry">
            <mxRectangle width="61" height="22" as="alternateBounds" />
          </mxGeometry>
        </mxCell>
        <mxCell id="dwkSHHfREJtTc5k_KRKD-138" value="" style="shape=partialRectangle;connectable=0;fillColor=none;top=0;left=0;bottom=0;right=0;align=left;spacingLeft=2;overflow=hidden;fontSize=11;" parent="dwkSHHfREJtTc5k_KRKD-135" vertex="1">
          <mxGeometry x="175" width="22" height="22" as="geometry">
            <mxRectangle width="22" height="22" as="alternateBounds" />
          </mxGeometry>
        </mxCell>
        <mxCell id="dwkSHHfREJtTc5k_KRKD-139" style="shape=tableRow;horizontal=0;startSize=0;swimlaneHead=0;swimlaneBody=0;fillColor=none;collapsible=0;dropTarget=0;points=[[0,0.5],[1,0.5]];portConstraint=eastwest;top=0;left=0;right=0;bottom=0;" parent="dwkSHHfREJtTc5k_KRKD-82" vertex="1">
          <mxGeometry y="333" width="197" height="22" as="geometry" />
        </mxCell>
        <mxCell id="dwkSHHfREJtTc5k_KRKD-140" value="CourierEmployeeName" style="shape=partialRectangle;connectable=0;fillColor=none;top=0;left=0;bottom=0;right=0;align=left;spacingLeft=2;overflow=hidden;fontSize=11;" parent="dwkSHHfREJtTc5k_KRKD-139" vertex="1">
          <mxGeometry width="114" height="22" as="geometry">
            <mxRectangle width="114" height="22" as="alternateBounds" />
          </mxGeometry>
        </mxCell>
        <mxCell id="dwkSHHfREJtTc5k_KRKD-141" value="varchar" style="shape=partialRectangle;connectable=0;fillColor=none;top=0;left=0;bottom=0;right=0;align=left;spacingLeft=2;overflow=hidden;fontSize=11;" parent="dwkSHHfREJtTc5k_KRKD-139" vertex="1">
          <mxGeometry x="114" width="61" height="22" as="geometry">
            <mxRectangle width="61" height="22" as="alternateBounds" />
          </mxGeometry>
        </mxCell>
        <mxCell id="dwkSHHfREJtTc5k_KRKD-142" value="" style="shape=partialRectangle;connectable=0;fillColor=none;top=0;left=0;bottom=0;right=0;align=left;spacingLeft=2;overflow=hidden;fontSize=11;" parent="dwkSHHfREJtTc5k_KRKD-139" vertex="1">
          <mxGeometry x="175" width="22" height="22" as="geometry">
            <mxRectangle width="22" height="22" as="alternateBounds" />
          </mxGeometry>
        </mxCell>
        <mxCell id="dwkSHHfREJtTc5k_KRKD-143" style="shape=tableRow;horizontal=0;startSize=0;swimlaneHead=0;swimlaneBody=0;fillColor=none;collapsible=0;dropTarget=0;points=[[0,0.5],[1,0.5]];portConstraint=eastwest;top=0;left=0;right=0;bottom=0;" parent="dwkSHHfREJtTc5k_KRKD-82" vertex="1">
          <mxGeometry y="355" width="197" height="22" as="geometry" />
        </mxCell>
        <mxCell id="dwkSHHfREJtTc5k_KRKD-144" value="CourierEmployeeNum" style="shape=partialRectangle;connectable=0;fillColor=none;top=0;left=0;bottom=0;right=0;align=left;spacingLeft=2;overflow=hidden;fontSize=11;" parent="dwkSHHfREJtTc5k_KRKD-143" vertex="1">
          <mxGeometry width="114" height="22" as="geometry">
            <mxRectangle width="114" height="22" as="alternateBounds" />
          </mxGeometry>
        </mxCell>
        <mxCell id="dwkSHHfREJtTc5k_KRKD-145" value="varchar" style="shape=partialRectangle;connectable=0;fillColor=none;top=0;left=0;bottom=0;right=0;align=left;spacingLeft=2;overflow=hidden;fontSize=11;" parent="dwkSHHfREJtTc5k_KRKD-143" vertex="1">
          <mxGeometry x="114" width="61" height="22" as="geometry">
            <mxRectangle width="61" height="22" as="alternateBounds" />
          </mxGeometry>
        </mxCell>
        <mxCell id="dwkSHHfREJtTc5k_KRKD-146" value="" style="shape=partialRectangle;connectable=0;fillColor=none;top=0;left=0;bottom=0;right=0;align=left;spacingLeft=2;overflow=hidden;fontSize=11;" parent="dwkSHHfREJtTc5k_KRKD-143" vertex="1">
          <mxGeometry x="175" width="22" height="22" as="geometry">
            <mxRectangle width="22" height="22" as="alternateBounds" />
          </mxGeometry>
        </mxCell>
        <mxCell id="ceBWvLwB6T9aIpPV3Hqk-45" value="CART_ITEMS" style="shape=table;startSize=25;container=1;collapsible=0;childLayout=tableLayout;fixedRows=1;rowLines=1;fontStyle=1;align=center;resizeLast=1;" vertex="1" parent="1">
          <mxGeometry x="750" y="-460" width="152" height="179" as="geometry" />
        </mxCell>
        <mxCell id="ceBWvLwB6T9aIpPV3Hqk-46" style="shape=tableRow;horizontal=0;startSize=0;swimlaneHead=0;swimlaneBody=0;fillColor=none;collapsible=0;dropTarget=0;points=[[0,0.5],[1,0.5]];portConstraint=eastwest;top=0;left=0;right=0;bottom=0;" vertex="1" parent="ceBWvLwB6T9aIpPV3Hqk-45">
          <mxGeometry y="25" width="152" height="22" as="geometry" />
        </mxCell>
        <mxCell id="ceBWvLwB6T9aIpPV3Hqk-47" value="int" style="shape=partialRectangle;connectable=0;fillColor=none;top=0;left=0;bottom=0;right=0;align=left;spacingLeft=2;overflow=hidden;fontSize=11;" vertex="1" parent="ceBWvLwB6T9aIpPV3Hqk-46">
          <mxGeometry width="54" height="22" as="geometry">
            <mxRectangle width="54" height="22" as="alternateBounds" />
          </mxGeometry>
        </mxCell>
        <mxCell id="ceBWvLwB6T9aIpPV3Hqk-48" value="cart_item_id" style="shape=partialRectangle;connectable=0;fillColor=none;top=0;left=0;bottom=0;right=0;align=left;spacingLeft=2;overflow=hidden;fontSize=11;" vertex="1" parent="ceBWvLwB6T9aIpPV3Hqk-46">
          <mxGeometry x="54" width="76" height="22" as="geometry">
            <mxRectangle width="76" height="22" as="alternateBounds" />
          </mxGeometry>
        </mxCell>
        <mxCell id="ceBWvLwB6T9aIpPV3Hqk-49" value="PK" style="shape=partialRectangle;connectable=0;fillColor=none;top=0;left=0;bottom=0;right=0;align=left;spacingLeft=2;overflow=hidden;fontSize=11;" vertex="1" parent="ceBWvLwB6T9aIpPV3Hqk-46">
          <mxGeometry x="130" width="22" height="22" as="geometry">
            <mxRectangle width="22" height="22" as="alternateBounds" />
          </mxGeometry>
        </mxCell>
        <mxCell id="ceBWvLwB6T9aIpPV3Hqk-50" style="shape=tableRow;horizontal=0;startSize=0;swimlaneHead=0;swimlaneBody=0;fillColor=none;collapsible=0;dropTarget=0;points=[[0,0.5],[1,0.5]];portConstraint=eastwest;top=0;left=0;right=0;bottom=0;" vertex="1" parent="ceBWvLwB6T9aIpPV3Hqk-45">
          <mxGeometry y="47" width="152" height="22" as="geometry" />
        </mxCell>
        <mxCell id="ceBWvLwB6T9aIpPV3Hqk-51" value="int" style="shape=partialRectangle;connectable=0;fillColor=none;top=0;left=0;bottom=0;right=0;align=left;spacingLeft=2;overflow=hidden;fontSize=11;" vertex="1" parent="ceBWvLwB6T9aIpPV3Hqk-50">
          <mxGeometry width="54" height="22" as="geometry">
            <mxRectangle width="54" height="22" as="alternateBounds" />
          </mxGeometry>
        </mxCell>
        <mxCell id="ceBWvLwB6T9aIpPV3Hqk-52" value="customerID" style="shape=partialRectangle;connectable=0;fillColor=none;top=0;left=0;bottom=0;right=0;align=left;spacingLeft=2;overflow=hidden;fontSize=11;" vertex="1" parent="ceBWvLwB6T9aIpPV3Hqk-50">
          <mxGeometry x="54" width="76" height="22" as="geometry">
            <mxRectangle width="76" height="22" as="alternateBounds" />
          </mxGeometry>
        </mxCell>
        <mxCell id="ceBWvLwB6T9aIpPV3Hqk-53" value="FK" style="shape=partialRectangle;connectable=0;fillColor=none;top=0;left=0;bottom=0;right=0;align=left;spacingLeft=2;overflow=hidden;fontSize=11;" vertex="1" parent="ceBWvLwB6T9aIpPV3Hqk-50">
          <mxGeometry x="130" width="22" height="22" as="geometry">
            <mxRectangle width="22" height="22" as="alternateBounds" />
          </mxGeometry>
        </mxCell>
        <mxCell id="ceBWvLwB6T9aIpPV3Hqk-54" style="shape=tableRow;horizontal=0;startSize=0;swimlaneHead=0;swimlaneBody=0;fillColor=none;collapsible=0;dropTarget=0;points=[[0,0.5],[1,0.5]];portConstraint=eastwest;top=0;left=0;right=0;bottom=0;" vertex="1" parent="ceBWvLwB6T9aIpPV3Hqk-45">
          <mxGeometry y="69" width="152" height="22" as="geometry" />
        </mxCell>
        <mxCell id="ceBWvLwB6T9aIpPV3Hqk-55" value="varchar" style="shape=partialRectangle;connectable=0;fillColor=none;top=0;left=0;bottom=0;right=0;align=left;spacingLeft=2;overflow=hidden;fontSize=11;" vertex="1" parent="ceBWvLwB6T9aIpPV3Hqk-54">
          <mxGeometry width="54" height="22" as="geometry">
            <mxRectangle width="54" height="22" as="alternateBounds" />
          </mxGeometry>
        </mxCell>
        <mxCell id="ceBWvLwB6T9aIpPV3Hqk-56" value="ProductID" style="shape=partialRectangle;connectable=0;fillColor=none;top=0;left=0;bottom=0;right=0;align=left;spacingLeft=2;overflow=hidden;fontSize=11;" vertex="1" parent="ceBWvLwB6T9aIpPV3Hqk-54">
          <mxGeometry x="54" width="76" height="22" as="geometry">
            <mxRectangle width="76" height="22" as="alternateBounds" />
          </mxGeometry>
        </mxCell>
        <mxCell id="ceBWvLwB6T9aIpPV3Hqk-57" value="FK" style="shape=partialRectangle;connectable=0;fillColor=none;top=0;left=0;bottom=0;right=0;align=left;spacingLeft=2;overflow=hidden;fontSize=11;" vertex="1" parent="ceBWvLwB6T9aIpPV3Hqk-54">
          <mxGeometry x="130" width="22" height="22" as="geometry">
            <mxRectangle width="22" height="22" as="alternateBounds" />
          </mxGeometry>
        </mxCell>
        <mxCell id="ceBWvLwB6T9aIpPV3Hqk-58" style="shape=tableRow;horizontal=0;startSize=0;swimlaneHead=0;swimlaneBody=0;fillColor=none;collapsible=0;dropTarget=0;points=[[0,0.5],[1,0.5]];portConstraint=eastwest;top=0;left=0;right=0;bottom=0;" vertex="1" parent="ceBWvLwB6T9aIpPV3Hqk-45">
          <mxGeometry y="91" width="152" height="22" as="geometry" />
        </mxCell>
        <mxCell id="ceBWvLwB6T9aIpPV3Hqk-59" value="int" style="shape=partialRectangle;connectable=0;fillColor=none;top=0;left=0;bottom=0;right=0;align=left;spacingLeft=2;overflow=hidden;fontSize=11;" vertex="1" parent="ceBWvLwB6T9aIpPV3Hqk-58">
          <mxGeometry width="54" height="22" as="geometry">
            <mxRectangle width="54" height="22" as="alternateBounds" />
          </mxGeometry>
        </mxCell>
        <mxCell id="ceBWvLwB6T9aIpPV3Hqk-60" value="VariationID" style="shape=partialRectangle;connectable=0;fillColor=none;top=0;left=0;bottom=0;right=0;align=left;spacingLeft=2;overflow=hidden;fontSize=11;" vertex="1" parent="ceBWvLwB6T9aIpPV3Hqk-58">
          <mxGeometry x="54" width="76" height="22" as="geometry">
            <mxRectangle width="76" height="22" as="alternateBounds" />
          </mxGeometry>
        </mxCell>
        <mxCell id="ceBWvLwB6T9aIpPV3Hqk-61" value="FK" style="shape=partialRectangle;connectable=0;fillColor=none;top=0;left=0;bottom=0;right=0;align=left;spacingLeft=2;overflow=hidden;fontSize=11;" vertex="1" parent="ceBWvLwB6T9aIpPV3Hqk-58">
          <mxGeometry x="130" width="22" height="22" as="geometry">
            <mxRectangle width="22" height="22" as="alternateBounds" />
          </mxGeometry>
        </mxCell>
        <mxCell id="ceBWvLwB6T9aIpPV3Hqk-62" style="shape=tableRow;horizontal=0;startSize=0;swimlaneHead=0;swimlaneBody=0;fillColor=none;collapsible=0;dropTarget=0;points=[[0,0.5],[1,0.5]];portConstraint=eastwest;top=0;left=0;right=0;bottom=0;" vertex="1" parent="ceBWvLwB6T9aIpPV3Hqk-45">
          <mxGeometry y="113" width="152" height="22" as="geometry" />
        </mxCell>
        <mxCell id="ceBWvLwB6T9aIpPV3Hqk-63" value="int" style="shape=partialRectangle;connectable=0;fillColor=none;top=0;left=0;bottom=0;right=0;align=left;spacingLeft=2;overflow=hidden;fontSize=11;" vertex="1" parent="ceBWvLwB6T9aIpPV3Hqk-62">
          <mxGeometry width="54" height="22" as="geometry">
            <mxRectangle width="54" height="22" as="alternateBounds" />
          </mxGeometry>
        </mxCell>
        <mxCell id="ceBWvLwB6T9aIpPV3Hqk-64" value="quantity" style="shape=partialRectangle;connectable=0;fillColor=none;top=0;left=0;bottom=0;right=0;align=left;spacingLeft=2;overflow=hidden;fontSize=11;" vertex="1" parent="ceBWvLwB6T9aIpPV3Hqk-62">
          <mxGeometry x="54" width="76" height="22" as="geometry">
            <mxRectangle width="76" height="22" as="alternateBounds" />
          </mxGeometry>
        </mxCell>
        <mxCell id="ceBWvLwB6T9aIpPV3Hqk-65" value="" style="shape=partialRectangle;connectable=0;fillColor=none;top=0;left=0;bottom=0;right=0;align=left;spacingLeft=2;overflow=hidden;fontSize=11;" vertex="1" parent="ceBWvLwB6T9aIpPV3Hqk-62">
          <mxGeometry x="130" width="22" height="22" as="geometry">
            <mxRectangle width="22" height="22" as="alternateBounds" />
          </mxGeometry>
        </mxCell>
        <mxCell id="ceBWvLwB6T9aIpPV3Hqk-66" style="shape=tableRow;horizontal=0;startSize=0;swimlaneHead=0;swimlaneBody=0;fillColor=none;collapsible=0;dropTarget=0;points=[[0,0.5],[1,0.5]];portConstraint=eastwest;top=0;left=0;right=0;bottom=0;" vertex="1" parent="ceBWvLwB6T9aIpPV3Hqk-45">
          <mxGeometry y="135" width="152" height="22" as="geometry" />
        </mxCell>
        <mxCell id="ceBWvLwB6T9aIpPV3Hqk-67" value="timestamp" style="shape=partialRectangle;connectable=0;fillColor=none;top=0;left=0;bottom=0;right=0;align=left;spacingLeft=2;overflow=hidden;fontSize=11;" vertex="1" parent="ceBWvLwB6T9aIpPV3Hqk-66">
          <mxGeometry width="54" height="22" as="geometry">
            <mxRectangle width="54" height="22" as="alternateBounds" />
          </mxGeometry>
        </mxCell>
        <mxCell id="ceBWvLwB6T9aIpPV3Hqk-68" value="added_at" style="shape=partialRectangle;connectable=0;fillColor=none;top=0;left=0;bottom=0;right=0;align=left;spacingLeft=2;overflow=hidden;fontSize=11;" vertex="1" parent="ceBWvLwB6T9aIpPV3Hqk-66">
          <mxGeometry x="54" width="76" height="22" as="geometry">
            <mxRectangle width="76" height="22" as="alternateBounds" />
          </mxGeometry>
        </mxCell>
        <mxCell id="ceBWvLwB6T9aIpPV3Hqk-69" value="" style="shape=partialRectangle;connectable=0;fillColor=none;top=0;left=0;bottom=0;right=0;align=left;spacingLeft=2;overflow=hidden;fontSize=11;" vertex="1" parent="ceBWvLwB6T9aIpPV3Hqk-66">
          <mxGeometry x="130" width="22" height="22" as="geometry">
            <mxRectangle width="22" height="22" as="alternateBounds" />
          </mxGeometry>
        </mxCell>
        <mxCell id="ceBWvLwB6T9aIpPV3Hqk-70" style="shape=tableRow;horizontal=0;startSize=0;swimlaneHead=0;swimlaneBody=0;fillColor=none;collapsible=0;dropTarget=0;points=[[0,0.5],[1,0.5]];portConstraint=eastwest;top=0;left=0;right=0;bottom=0;" vertex="1" parent="ceBWvLwB6T9aIpPV3Hqk-45">
          <mxGeometry y="157" width="152" height="22" as="geometry" />
        </mxCell>
        <mxCell id="ceBWvLwB6T9aIpPV3Hqk-71" value="timestamp" style="shape=partialRectangle;connectable=0;fillColor=none;top=0;left=0;bottom=0;right=0;align=left;spacingLeft=2;overflow=hidden;fontSize=11;" vertex="1" parent="ceBWvLwB6T9aIpPV3Hqk-70">
          <mxGeometry width="54" height="22" as="geometry">
            <mxRectangle width="54" height="22" as="alternateBounds" />
          </mxGeometry>
        </mxCell>
        <mxCell id="ceBWvLwB6T9aIpPV3Hqk-72" value="updated_at" style="shape=partialRectangle;connectable=0;fillColor=none;top=0;left=0;bottom=0;right=0;align=left;spacingLeft=2;overflow=hidden;fontSize=11;" vertex="1" parent="ceBWvLwB6T9aIpPV3Hqk-70">
          <mxGeometry x="54" width="76" height="22" as="geometry">
            <mxRectangle width="76" height="22" as="alternateBounds" />
          </mxGeometry>
        </mxCell>
        <mxCell id="ceBWvLwB6T9aIpPV3Hqk-73" value="" style="shape=partialRectangle;connectable=0;fillColor=none;top=0;left=0;bottom=0;right=0;align=left;spacingLeft=2;overflow=hidden;fontSize=11;" vertex="1" parent="ceBWvLwB6T9aIpPV3Hqk-70">
          <mxGeometry x="130" width="22" height="22" as="geometry">
            <mxRectangle width="22" height="22" as="alternateBounds" />
          </mxGeometry>
        </mxCell>
        <mxCell id="ceBWvLwB6T9aIpPV3Hqk-74" value="ADDRESSES" style="shape=table;startSize=25;container=1;collapsible=0;childLayout=tableLayout;fixedRows=1;rowLines=1;fontStyle=1;align=center;resizeLast=1;" vertex="1" parent="1">
          <mxGeometry x="-425" y="-450" width="165" height="289" as="geometry" />
        </mxCell>
        <mxCell id="ceBWvLwB6T9aIpPV3Hqk-75" style="shape=tableRow;horizontal=0;startSize=0;swimlaneHead=0;swimlaneBody=0;fillColor=none;collapsible=0;dropTarget=0;points=[[0,0.5],[1,0.5]];portConstraint=eastwest;top=0;left=0;right=0;bottom=0;" vertex="1" parent="ceBWvLwB6T9aIpPV3Hqk-74">
          <mxGeometry y="25" width="165" height="22" as="geometry" />
        </mxCell>
        <mxCell id="ceBWvLwB6T9aIpPV3Hqk-76" value="int" style="shape=partialRectangle;connectable=0;fillColor=none;top=0;left=0;bottom=0;right=0;align=left;spacingLeft=2;overflow=hidden;fontSize=11;" vertex="1" parent="ceBWvLwB6T9aIpPV3Hqk-75">
          <mxGeometry width="54" height="22" as="geometry">
            <mxRectangle width="54" height="22" as="alternateBounds" />
          </mxGeometry>
        </mxCell>
        <mxCell id="ceBWvLwB6T9aIpPV3Hqk-77" value="address_id" style="shape=partialRectangle;connectable=0;fillColor=none;top=0;left=0;bottom=0;right=0;align=left;spacingLeft=2;overflow=hidden;fontSize=11;" vertex="1" parent="ceBWvLwB6T9aIpPV3Hqk-75">
          <mxGeometry x="54" width="89" height="22" as="geometry">
            <mxRectangle width="89" height="22" as="alternateBounds" />
          </mxGeometry>
        </mxCell>
        <mxCell id="ceBWvLwB6T9aIpPV3Hqk-78" value="PK" style="shape=partialRectangle;connectable=0;fillColor=none;top=0;left=0;bottom=0;right=0;align=left;spacingLeft=2;overflow=hidden;fontSize=11;" vertex="1" parent="ceBWvLwB6T9aIpPV3Hqk-75">
          <mxGeometry x="143" width="22" height="22" as="geometry">
            <mxRectangle width="22" height="22" as="alternateBounds" />
          </mxGeometry>
        </mxCell>
        <mxCell id="ceBWvLwB6T9aIpPV3Hqk-79" style="shape=tableRow;horizontal=0;startSize=0;swimlaneHead=0;swimlaneBody=0;fillColor=none;collapsible=0;dropTarget=0;points=[[0,0.5],[1,0.5]];portConstraint=eastwest;top=0;left=0;right=0;bottom=0;" vertex="1" parent="ceBWvLwB6T9aIpPV3Hqk-74">
          <mxGeometry y="47" width="165" height="22" as="geometry" />
        </mxCell>
        <mxCell id="ceBWvLwB6T9aIpPV3Hqk-80" value="int" style="shape=partialRectangle;connectable=0;fillColor=none;top=0;left=0;bottom=0;right=0;align=left;spacingLeft=2;overflow=hidden;fontSize=11;" vertex="1" parent="ceBWvLwB6T9aIpPV3Hqk-79">
          <mxGeometry width="54" height="22" as="geometry">
            <mxRectangle width="54" height="22" as="alternateBounds" />
          </mxGeometry>
        </mxCell>
        <mxCell id="ceBWvLwB6T9aIpPV3Hqk-81" value="customerID" style="shape=partialRectangle;connectable=0;fillColor=none;top=0;left=0;bottom=0;right=0;align=left;spacingLeft=2;overflow=hidden;fontSize=11;" vertex="1" parent="ceBWvLwB6T9aIpPV3Hqk-79">
          <mxGeometry x="54" width="89" height="22" as="geometry">
            <mxRectangle width="89" height="22" as="alternateBounds" />
          </mxGeometry>
        </mxCell>
        <mxCell id="ceBWvLwB6T9aIpPV3Hqk-82" value="FK" style="shape=partialRectangle;connectable=0;fillColor=none;top=0;left=0;bottom=0;right=0;align=left;spacingLeft=2;overflow=hidden;fontSize=11;" vertex="1" parent="ceBWvLwB6T9aIpPV3Hqk-79">
          <mxGeometry x="143" width="22" height="22" as="geometry">
            <mxRectangle width="22" height="22" as="alternateBounds" />
          </mxGeometry>
        </mxCell>
        <mxCell id="ceBWvLwB6T9aIpPV3Hqk-83" style="shape=tableRow;horizontal=0;startSize=0;swimlaneHead=0;swimlaneBody=0;fillColor=none;collapsible=0;dropTarget=0;points=[[0,0.5],[1,0.5]];portConstraint=eastwest;top=0;left=0;right=0;bottom=0;" vertex="1" parent="ceBWvLwB6T9aIpPV3Hqk-74">
          <mxGeometry y="69" width="165" height="22" as="geometry" />
        </mxCell>
        <mxCell id="ceBWvLwB6T9aIpPV3Hqk-84" value="varchar" style="shape=partialRectangle;connectable=0;fillColor=none;top=0;left=0;bottom=0;right=0;align=left;spacingLeft=2;overflow=hidden;fontSize=11;" vertex="1" parent="ceBWvLwB6T9aIpPV3Hqk-83">
          <mxGeometry width="54" height="22" as="geometry">
            <mxRectangle width="54" height="22" as="alternateBounds" />
          </mxGeometry>
        </mxCell>
        <mxCell id="ceBWvLwB6T9aIpPV3Hqk-85" value="contact_name" style="shape=partialRectangle;connectable=0;fillColor=none;top=0;left=0;bottom=0;right=0;align=left;spacingLeft=2;overflow=hidden;fontSize=11;" vertex="1" parent="ceBWvLwB6T9aIpPV3Hqk-83">
          <mxGeometry x="54" width="89" height="22" as="geometry">
            <mxRectangle width="89" height="22" as="alternateBounds" />
          </mxGeometry>
        </mxCell>
        <mxCell id="ceBWvLwB6T9aIpPV3Hqk-86" value="" style="shape=partialRectangle;connectable=0;fillColor=none;top=0;left=0;bottom=0;right=0;align=left;spacingLeft=2;overflow=hidden;fontSize=11;" vertex="1" parent="ceBWvLwB6T9aIpPV3Hqk-83">
          <mxGeometry x="143" width="22" height="22" as="geometry">
            <mxRectangle width="22" height="22" as="alternateBounds" />
          </mxGeometry>
        </mxCell>
        <mxCell id="ceBWvLwB6T9aIpPV3Hqk-87" style="shape=tableRow;horizontal=0;startSize=0;swimlaneHead=0;swimlaneBody=0;fillColor=none;collapsible=0;dropTarget=0;points=[[0,0.5],[1,0.5]];portConstraint=eastwest;top=0;left=0;right=0;bottom=0;" vertex="1" parent="ceBWvLwB6T9aIpPV3Hqk-74">
          <mxGeometry y="91" width="165" height="22" as="geometry" />
        </mxCell>
        <mxCell id="ceBWvLwB6T9aIpPV3Hqk-88" value="varchar" style="shape=partialRectangle;connectable=0;fillColor=none;top=0;left=0;bottom=0;right=0;align=left;spacingLeft=2;overflow=hidden;fontSize=11;" vertex="1" parent="ceBWvLwB6T9aIpPV3Hqk-87">
          <mxGeometry width="54" height="22" as="geometry">
            <mxRectangle width="54" height="22" as="alternateBounds" />
          </mxGeometry>
        </mxCell>
        <mxCell id="ceBWvLwB6T9aIpPV3Hqk-89" value="mobile_number" style="shape=partialRectangle;connectable=0;fillColor=none;top=0;left=0;bottom=0;right=0;align=left;spacingLeft=2;overflow=hidden;fontSize=11;" vertex="1" parent="ceBWvLwB6T9aIpPV3Hqk-87">
          <mxGeometry x="54" width="89" height="22" as="geometry">
            <mxRectangle width="89" height="22" as="alternateBounds" />
          </mxGeometry>
        </mxCell>
        <mxCell id="ceBWvLwB6T9aIpPV3Hqk-90" value="" style="shape=partialRectangle;connectable=0;fillColor=none;top=0;left=0;bottom=0;right=0;align=left;spacingLeft=2;overflow=hidden;fontSize=11;" vertex="1" parent="ceBWvLwB6T9aIpPV3Hqk-87">
          <mxGeometry x="143" width="22" height="22" as="geometry">
            <mxRectangle width="22" height="22" as="alternateBounds" />
          </mxGeometry>
        </mxCell>
        <mxCell id="ceBWvLwB6T9aIpPV3Hqk-91" style="shape=tableRow;horizontal=0;startSize=0;swimlaneHead=0;swimlaneBody=0;fillColor=none;collapsible=0;dropTarget=0;points=[[0,0.5],[1,0.5]];portConstraint=eastwest;top=0;left=0;right=0;bottom=0;" vertex="1" parent="ceBWvLwB6T9aIpPV3Hqk-74">
          <mxGeometry y="113" width="165" height="22" as="geometry" />
        </mxCell>
        <mxCell id="ceBWvLwB6T9aIpPV3Hqk-92" value="varchar" style="shape=partialRectangle;connectable=0;fillColor=none;top=0;left=0;bottom=0;right=0;align=left;spacingLeft=2;overflow=hidden;fontSize=11;" vertex="1" parent="ceBWvLwB6T9aIpPV3Hqk-91">
          <mxGeometry width="54" height="22" as="geometry">
            <mxRectangle width="54" height="22" as="alternateBounds" />
          </mxGeometry>
        </mxCell>
        <mxCell id="ceBWvLwB6T9aIpPV3Hqk-93" value="street_address" style="shape=partialRectangle;connectable=0;fillColor=none;top=0;left=0;bottom=0;right=0;align=left;spacingLeft=2;overflow=hidden;fontSize=11;" vertex="1" parent="ceBWvLwB6T9aIpPV3Hqk-91">
          <mxGeometry x="54" width="89" height="22" as="geometry">
            <mxRectangle width="89" height="22" as="alternateBounds" />
          </mxGeometry>
        </mxCell>
        <mxCell id="ceBWvLwB6T9aIpPV3Hqk-94" value="" style="shape=partialRectangle;connectable=0;fillColor=none;top=0;left=0;bottom=0;right=0;align=left;spacingLeft=2;overflow=hidden;fontSize=11;" vertex="1" parent="ceBWvLwB6T9aIpPV3Hqk-91">
          <mxGeometry x="143" width="22" height="22" as="geometry">
            <mxRectangle width="22" height="22" as="alternateBounds" />
          </mxGeometry>
        </mxCell>
        <mxCell id="ceBWvLwB6T9aIpPV3Hqk-95" style="shape=tableRow;horizontal=0;startSize=0;swimlaneHead=0;swimlaneBody=0;fillColor=none;collapsible=0;dropTarget=0;points=[[0,0.5],[1,0.5]];portConstraint=eastwest;top=0;left=0;right=0;bottom=0;" vertex="1" parent="ceBWvLwB6T9aIpPV3Hqk-74">
          <mxGeometry y="135" width="165" height="22" as="geometry" />
        </mxCell>
        <mxCell id="ceBWvLwB6T9aIpPV3Hqk-96" value="varchar" style="shape=partialRectangle;connectable=0;fillColor=none;top=0;left=0;bottom=0;right=0;align=left;spacingLeft=2;overflow=hidden;fontSize=11;" vertex="1" parent="ceBWvLwB6T9aIpPV3Hqk-95">
          <mxGeometry width="54" height="22" as="geometry">
            <mxRectangle width="54" height="22" as="alternateBounds" />
          </mxGeometry>
        </mxCell>
        <mxCell id="ceBWvLwB6T9aIpPV3Hqk-97" value="apt_suite_unit" style="shape=partialRectangle;connectable=0;fillColor=none;top=0;left=0;bottom=0;right=0;align=left;spacingLeft=2;overflow=hidden;fontSize=11;" vertex="1" parent="ceBWvLwB6T9aIpPV3Hqk-95">
          <mxGeometry x="54" width="89" height="22" as="geometry">
            <mxRectangle width="89" height="22" as="alternateBounds" />
          </mxGeometry>
        </mxCell>
        <mxCell id="ceBWvLwB6T9aIpPV3Hqk-98" value="" style="shape=partialRectangle;connectable=0;fillColor=none;top=0;left=0;bottom=0;right=0;align=left;spacingLeft=2;overflow=hidden;fontSize=11;" vertex="1" parent="ceBWvLwB6T9aIpPV3Hqk-95">
          <mxGeometry x="143" width="22" height="22" as="geometry">
            <mxRectangle width="22" height="22" as="alternateBounds" />
          </mxGeometry>
        </mxCell>
        <mxCell id="ceBWvLwB6T9aIpPV3Hqk-99" style="shape=tableRow;horizontal=0;startSize=0;swimlaneHead=0;swimlaneBody=0;fillColor=none;collapsible=0;dropTarget=0;points=[[0,0.5],[1,0.5]];portConstraint=eastwest;top=0;left=0;right=0;bottom=0;" vertex="1" parent="ceBWvLwB6T9aIpPV3Hqk-74">
          <mxGeometry y="157" width="165" height="22" as="geometry" />
        </mxCell>
        <mxCell id="ceBWvLwB6T9aIpPV3Hqk-100" value="varchar" style="shape=partialRectangle;connectable=0;fillColor=none;top=0;left=0;bottom=0;right=0;align=left;spacingLeft=2;overflow=hidden;fontSize=11;" vertex="1" parent="ceBWvLwB6T9aIpPV3Hqk-99">
          <mxGeometry width="54" height="22" as="geometry">
            <mxRectangle width="54" height="22" as="alternateBounds" />
          </mxGeometry>
        </mxCell>
        <mxCell id="ceBWvLwB6T9aIpPV3Hqk-101" value="province" style="shape=partialRectangle;connectable=0;fillColor=none;top=0;left=0;bottom=0;right=0;align=left;spacingLeft=2;overflow=hidden;fontSize=11;" vertex="1" parent="ceBWvLwB6T9aIpPV3Hqk-99">
          <mxGeometry x="54" width="89" height="22" as="geometry">
            <mxRectangle width="89" height="22" as="alternateBounds" />
          </mxGeometry>
        </mxCell>
        <mxCell id="ceBWvLwB6T9aIpPV3Hqk-102" value="" style="shape=partialRectangle;connectable=0;fillColor=none;top=0;left=0;bottom=0;right=0;align=left;spacingLeft=2;overflow=hidden;fontSize=11;" vertex="1" parent="ceBWvLwB6T9aIpPV3Hqk-99">
          <mxGeometry x="143" width="22" height="22" as="geometry">
            <mxRectangle width="22" height="22" as="alternateBounds" />
          </mxGeometry>
        </mxCell>
        <mxCell id="ceBWvLwB6T9aIpPV3Hqk-103" style="shape=tableRow;horizontal=0;startSize=0;swimlaneHead=0;swimlaneBody=0;fillColor=none;collapsible=0;dropTarget=0;points=[[0,0.5],[1,0.5]];portConstraint=eastwest;top=0;left=0;right=0;bottom=0;" vertex="1" parent="ceBWvLwB6T9aIpPV3Hqk-74">
          <mxGeometry y="179" width="165" height="22" as="geometry" />
        </mxCell>
        <mxCell id="ceBWvLwB6T9aIpPV3Hqk-104" value="varchar" style="shape=partialRectangle;connectable=0;fillColor=none;top=0;left=0;bottom=0;right=0;align=left;spacingLeft=2;overflow=hidden;fontSize=11;" vertex="1" parent="ceBWvLwB6T9aIpPV3Hqk-103">
          <mxGeometry width="54" height="22" as="geometry">
            <mxRectangle width="54" height="22" as="alternateBounds" />
          </mxGeometry>
        </mxCell>
        <mxCell id="ceBWvLwB6T9aIpPV3Hqk-105" value="district" style="shape=partialRectangle;connectable=0;fillColor=none;top=0;left=0;bottom=0;right=0;align=left;spacingLeft=2;overflow=hidden;fontSize=11;" vertex="1" parent="ceBWvLwB6T9aIpPV3Hqk-103">
          <mxGeometry x="54" width="89" height="22" as="geometry">
            <mxRectangle width="89" height="22" as="alternateBounds" />
          </mxGeometry>
        </mxCell>
        <mxCell id="ceBWvLwB6T9aIpPV3Hqk-106" value="" style="shape=partialRectangle;connectable=0;fillColor=none;top=0;left=0;bottom=0;right=0;align=left;spacingLeft=2;overflow=hidden;fontSize=11;" vertex="1" parent="ceBWvLwB6T9aIpPV3Hqk-103">
          <mxGeometry x="143" width="22" height="22" as="geometry">
            <mxRectangle width="22" height="22" as="alternateBounds" />
          </mxGeometry>
        </mxCell>
        <mxCell id="ceBWvLwB6T9aIpPV3Hqk-107" style="shape=tableRow;horizontal=0;startSize=0;swimlaneHead=0;swimlaneBody=0;fillColor=none;collapsible=0;dropTarget=0;points=[[0,0.5],[1,0.5]];portConstraint=eastwest;top=0;left=0;right=0;bottom=0;" vertex="1" parent="ceBWvLwB6T9aIpPV3Hqk-74">
          <mxGeometry y="201" width="165" height="22" as="geometry" />
        </mxCell>
        <mxCell id="ceBWvLwB6T9aIpPV3Hqk-108" value="varchar" style="shape=partialRectangle;connectable=0;fillColor=none;top=0;left=0;bottom=0;right=0;align=left;spacingLeft=2;overflow=hidden;fontSize=11;" vertex="1" parent="ceBWvLwB6T9aIpPV3Hqk-107">
          <mxGeometry width="54" height="22" as="geometry">
            <mxRectangle width="54" height="22" as="alternateBounds" />
          </mxGeometry>
        </mxCell>
        <mxCell id="ceBWvLwB6T9aIpPV3Hqk-109" value="zip_code" style="shape=partialRectangle;connectable=0;fillColor=none;top=0;left=0;bottom=0;right=0;align=left;spacingLeft=2;overflow=hidden;fontSize=11;" vertex="1" parent="ceBWvLwB6T9aIpPV3Hqk-107">
          <mxGeometry x="54" width="89" height="22" as="geometry">
            <mxRectangle width="89" height="22" as="alternateBounds" />
          </mxGeometry>
        </mxCell>
        <mxCell id="ceBWvLwB6T9aIpPV3Hqk-110" value="" style="shape=partialRectangle;connectable=0;fillColor=none;top=0;left=0;bottom=0;right=0;align=left;spacingLeft=2;overflow=hidden;fontSize=11;" vertex="1" parent="ceBWvLwB6T9aIpPV3Hqk-107">
          <mxGeometry x="143" width="22" height="22" as="geometry">
            <mxRectangle width="22" height="22" as="alternateBounds" />
          </mxGeometry>
        </mxCell>
        <mxCell id="ceBWvLwB6T9aIpPV3Hqk-111" style="shape=tableRow;horizontal=0;startSize=0;swimlaneHead=0;swimlaneBody=0;fillColor=none;collapsible=0;dropTarget=0;points=[[0,0.5],[1,0.5]];portConstraint=eastwest;top=0;left=0;right=0;bottom=0;" vertex="1" parent="ceBWvLwB6T9aIpPV3Hqk-74">
          <mxGeometry y="223" width="165" height="22" as="geometry" />
        </mxCell>
        <mxCell id="ceBWvLwB6T9aIpPV3Hqk-112" value="boolean" style="shape=partialRectangle;connectable=0;fillColor=none;top=0;left=0;bottom=0;right=0;align=left;spacingLeft=2;overflow=hidden;fontSize=11;" vertex="1" parent="ceBWvLwB6T9aIpPV3Hqk-111">
          <mxGeometry width="54" height="22" as="geometry">
            <mxRectangle width="54" height="22" as="alternateBounds" />
          </mxGeometry>
        </mxCell>
        <mxCell id="ceBWvLwB6T9aIpPV3Hqk-113" value="is_default" style="shape=partialRectangle;connectable=0;fillColor=none;top=0;left=0;bottom=0;right=0;align=left;spacingLeft=2;overflow=hidden;fontSize=11;" vertex="1" parent="ceBWvLwB6T9aIpPV3Hqk-111">
          <mxGeometry x="54" width="89" height="22" as="geometry">
            <mxRectangle width="89" height="22" as="alternateBounds" />
          </mxGeometry>
        </mxCell>
        <mxCell id="ceBWvLwB6T9aIpPV3Hqk-114" value="" style="shape=partialRectangle;connectable=0;fillColor=none;top=0;left=0;bottom=0;right=0;align=left;spacingLeft=2;overflow=hidden;fontSize=11;" vertex="1" parent="ceBWvLwB6T9aIpPV3Hqk-111">
          <mxGeometry x="143" width="22" height="22" as="geometry">
            <mxRectangle width="22" height="22" as="alternateBounds" />
          </mxGeometry>
        </mxCell>
        <mxCell id="ceBWvLwB6T9aIpPV3Hqk-115" style="shape=tableRow;horizontal=0;startSize=0;swimlaneHead=0;swimlaneBody=0;fillColor=none;collapsible=0;dropTarget=0;points=[[0,0.5],[1,0.5]];portConstraint=eastwest;top=0;left=0;right=0;bottom=0;" vertex="1" parent="ceBWvLwB6T9aIpPV3Hqk-74">
          <mxGeometry y="245" width="165" height="22" as="geometry" />
        </mxCell>
        <mxCell id="ceBWvLwB6T9aIpPV3Hqk-116" value="timestamp" style="shape=partialRectangle;connectable=0;fillColor=none;top=0;left=0;bottom=0;right=0;align=left;spacingLeft=2;overflow=hidden;fontSize=11;" vertex="1" parent="ceBWvLwB6T9aIpPV3Hqk-115">
          <mxGeometry width="54" height="22" as="geometry">
            <mxRectangle width="54" height="22" as="alternateBounds" />
          </mxGeometry>
        </mxCell>
        <mxCell id="ceBWvLwB6T9aIpPV3Hqk-117" value="created_at" style="shape=partialRectangle;connectable=0;fillColor=none;top=0;left=0;bottom=0;right=0;align=left;spacingLeft=2;overflow=hidden;fontSize=11;" vertex="1" parent="ceBWvLwB6T9aIpPV3Hqk-115">
          <mxGeometry x="54" width="89" height="22" as="geometry">
            <mxRectangle width="89" height="22" as="alternateBounds" />
          </mxGeometry>
        </mxCell>
        <mxCell id="ceBWvLwB6T9aIpPV3Hqk-118" value="" style="shape=partialRectangle;connectable=0;fillColor=none;top=0;left=0;bottom=0;right=0;align=left;spacingLeft=2;overflow=hidden;fontSize=11;" vertex="1" parent="ceBWvLwB6T9aIpPV3Hqk-115">
          <mxGeometry x="143" width="22" height="22" as="geometry">
            <mxRectangle width="22" height="22" as="alternateBounds" />
          </mxGeometry>
        </mxCell>
        <mxCell id="ceBWvLwB6T9aIpPV3Hqk-119" style="shape=tableRow;horizontal=0;startSize=0;swimlaneHead=0;swimlaneBody=0;fillColor=none;collapsible=0;dropTarget=0;points=[[0,0.5],[1,0.5]];portConstraint=eastwest;top=0;left=0;right=0;bottom=0;" vertex="1" parent="ceBWvLwB6T9aIpPV3Hqk-74">
          <mxGeometry y="267" width="165" height="22" as="geometry" />
        </mxCell>
        <mxCell id="ceBWvLwB6T9aIpPV3Hqk-120" value="timestamp" style="shape=partialRectangle;connectable=0;fillColor=none;top=0;left=0;bottom=0;right=0;align=left;spacingLeft=2;overflow=hidden;fontSize=11;" vertex="1" parent="ceBWvLwB6T9aIpPV3Hqk-119">
          <mxGeometry width="54" height="22" as="geometry">
            <mxRectangle width="54" height="22" as="alternateBounds" />
          </mxGeometry>
        </mxCell>
        <mxCell id="ceBWvLwB6T9aIpPV3Hqk-121" value="updated_at" style="shape=partialRectangle;connectable=0;fillColor=none;top=0;left=0;bottom=0;right=0;align=left;spacingLeft=2;overflow=hidden;fontSize=11;" vertex="1" parent="ceBWvLwB6T9aIpPV3Hqk-119">
          <mxGeometry x="54" width="89" height="22" as="geometry">
            <mxRectangle width="89" height="22" as="alternateBounds" />
          </mxGeometry>
        </mxCell>
        <mxCell id="ceBWvLwB6T9aIpPV3Hqk-122" value="" style="shape=partialRectangle;connectable=0;fillColor=none;top=0;left=0;bottom=0;right=0;align=left;spacingLeft=2;overflow=hidden;fontSize=11;" vertex="1" parent="ceBWvLwB6T9aIpPV3Hqk-119">
          <mxGeometry x="143" width="22" height="22" as="geometry">
            <mxRectangle width="22" height="22" as="alternateBounds" />
          </mxGeometry>
        </mxCell>
        <mxCell id="ceBWvLwB6T9aIpPV3Hqk-123" style="edgeStyle=orthogonalEdgeStyle;rounded=0;orthogonalLoop=1;jettySize=auto;html=1;entryX=-0.006;entryY=0.098;entryDx=0;entryDy=0;entryPerimeter=0;" edge="1" parent="1" source="Cv067esEAor_iLYO7rBp-243" target="ceBWvLwB6T9aIpPV3Hqk-45">
          <mxGeometry relative="1" as="geometry" />
        </mxCell>
      </root>
    </mxGraphModel>
  </diagram>
</mxfile>
